<svg width="100" height="100" viewBox="0 0 100 100" fill="none" xmlns="http://www.w3.org/2000/svg">
<rect x="17" width="10" height="100" fill="#FFCC99"/>
<rect x="27" width="70" height="100" fill="#808080"/>
<path d="M38.4766 12.4336L35.4824 21H33.9941L31 12.4336H32.4414L34.2461 17.8008C34.3008 17.957 34.3594 18.1465 34.4219 18.3691C34.4883 18.5918 34.5488 18.8164 34.6035 19.043C34.6621 19.2695 34.707 19.4707 34.7383 19.6465C34.7695 19.4707 34.8125 19.2695 34.8672 19.043C34.9258 18.8164 34.9863 18.5918 35.0488 18.3691C35.1113 18.1465 35.1699 17.9551 35.2246 17.7949L37.0352 12.4336H38.4766ZM45.2031 17.7422C45.2031 18.2812 45.1328 18.7598 44.9922 19.1777C44.8516 19.5957 44.6465 19.9492 44.377 20.2383C44.1074 20.5234 43.7832 20.7422 43.4043 20.8945C43.0254 21.043 42.5977 21.1172 42.1211 21.1172C41.6758 21.1172 41.2676 21.043 40.8965 20.8945C40.5254 20.7422 40.2031 20.5234 39.9297 20.2383C39.6602 19.9492 39.4512 19.5957 39.3027 19.1777C39.1543 18.7598 39.0801 18.2812 39.0801 17.7422C39.0801 17.0273 39.2031 16.4219 39.4492 15.9258C39.6992 15.4258 40.0547 15.0449 40.5156 14.7832C40.9766 14.5215 41.5254 14.3906 42.1621 14.3906C42.7598 14.3906 43.2871 14.5215 43.7441 14.7832C44.2012 15.0449 44.5586 15.4258 44.8164 15.9258C45.0742 16.4258 45.2031 17.0312 45.2031 17.7422ZM40.498 17.7422C40.498 18.2148 40.5547 18.6191 40.668 18.9551C40.7852 19.291 40.9648 19.5488 41.207 19.7285C41.4492 19.9043 41.7617 19.9922 42.1445 19.9922C42.5273 19.9922 42.8398 19.9043 43.082 19.7285C43.3242 19.5488 43.502 19.291 43.6152 18.9551C43.7285 18.6191 43.7852 18.2148 43.7852 17.7422C43.7852 17.2695 43.7285 16.8691 43.6152 16.541C43.502 16.209 43.3242 15.957 43.082 15.7852C42.8398 15.6094 42.5254 15.5215 42.1387 15.5215C41.5684 15.5215 41.1523 15.7129 40.8906 16.0957C40.6289 16.4785 40.498 17.0273 40.498 17.7422ZM48.168 21H46.7852V11.8828H48.168V21ZM55.791 14.5137V21H54.707L54.5195 20.127H54.4434C54.3066 20.3496 54.1328 20.5352 53.9219 20.6836C53.7109 20.8281 53.4766 20.9355 53.2188 21.0059C52.9609 21.0801 52.6895 21.1172 52.4043 21.1172C51.916 21.1172 51.498 21.0352 51.1504 20.8711C50.8066 20.7031 50.543 20.4453 50.3594 20.0977C50.1758 19.75 50.084 19.3008 50.084 18.75V14.5137H51.4668V18.4922C51.4668 18.9961 51.5684 19.373 51.7715 19.623C51.9785 19.873 52.2988 19.998 52.7324 19.998C53.1504 19.998 53.4824 19.9121 53.7285 19.7402C53.9746 19.5684 54.1484 19.3145 54.25 18.9785C54.3555 18.6426 54.4082 18.2305 54.4082 17.7422V14.5137H55.791ZM65.0957 14.3906C65.8223 14.3906 66.3691 14.5781 66.7363 14.9531C67.1074 15.3281 67.293 15.9297 67.293 16.7578V21H65.916V17.0039C65.916 16.5117 65.8203 16.1406 65.6289 15.8906C65.4375 15.6406 65.1465 15.5156 64.7559 15.5156C64.209 15.5156 63.8145 15.6914 63.5723 16.043C63.334 16.3906 63.2148 16.8965 63.2148 17.5605V21H61.8379V17.0039C61.8379 16.6758 61.7949 16.4023 61.709 16.1836C61.627 15.9609 61.5 15.7949 61.3281 15.6855C61.1562 15.5723 60.9395 15.5156 60.6777 15.5156C60.2988 15.5156 59.9961 15.6016 59.7695 15.7734C59.5469 15.9453 59.3867 16.1992 59.2891 16.5352C59.1914 16.8672 59.1426 17.2754 59.1426 17.7598V21H57.7656V14.5137H58.8379L59.0312 15.3867H59.1074C59.2402 15.1602 59.4043 14.9746 59.5996 14.8301C59.7988 14.6816 60.0195 14.5723 60.2617 14.502C60.5039 14.4277 60.7559 14.3906 61.0176 14.3906C61.502 14.3906 61.9102 14.4766 62.2422 14.6484C62.5742 14.8164 62.8223 15.0742 62.9863 15.4219H63.0918C63.2949 15.0703 63.5781 14.8105 63.9414 14.6426C64.3047 14.4746 64.6895 14.3906 65.0957 14.3906ZM71.7988 14.3906C72.377 14.3906 72.873 14.5098 73.2871 14.748C73.7012 14.9863 74.0195 15.3242 74.2422 15.7617C74.4648 16.1992 74.5762 16.7227 74.5762 17.332V18.0703H70.2461C70.2617 18.6992 70.4297 19.1836 70.75 19.5234C71.0742 19.8633 71.5273 20.0332 72.1094 20.0332C72.5234 20.0332 72.8945 19.9941 73.2227 19.916C73.5547 19.834 73.8965 19.7148 74.248 19.5586V20.6777C73.9238 20.8301 73.5938 20.9414 73.2578 21.0117C72.9219 21.082 72.5195 21.1172 72.0508 21.1172C71.4141 21.1172 70.8535 20.9941 70.3691 20.748C69.8887 20.498 69.5117 20.127 69.2383 19.6348C68.9688 19.1426 68.834 18.5312 68.834 17.8008C68.834 17.0742 68.957 16.457 69.2031 15.9492C69.4492 15.4414 69.7949 15.0547 70.2402 14.7891C70.6855 14.5234 71.2051 14.3906 71.7988 14.3906ZM71.7988 15.4277C71.3652 15.4277 71.0137 15.5684 70.7441 15.8496C70.4785 16.1309 70.3223 16.543 70.2754 17.0859H73.2285C73.2246 16.7617 73.1699 16.4746 73.0645 16.2246C72.9629 15.9746 72.8066 15.7793 72.5957 15.6387C72.3887 15.498 72.123 15.4277 71.7988 15.4277ZM82.8496 21H81.4668V15.4863C81.4668 15.3027 81.4688 15.1191 81.4727 14.9355C81.4766 14.752 81.4805 14.5723 81.4844 14.3965C81.4922 14.2207 81.502 14.0527 81.5137 13.8926C81.4316 13.9824 81.3301 14.0801 81.209 14.1855C81.0918 14.291 80.9668 14.4004 80.834 14.5137L79.8496 15.2988L79.1582 14.4258L81.7012 12.4336H82.8496V21ZM89.7168 21H88.334V15.4863C88.334 15.3027 88.3359 15.1191 88.3398 14.9355C88.3438 14.752 88.3477 14.5723 88.3516 14.3965C88.3594 14.2207 88.3691 14.0527 88.3809 13.8926C88.2988 13.9824 88.1973 14.0801 88.0762 14.1855C87.959 14.291 87.834 14.4004 87.7012 14.5137L86.7168 15.2988L86.0254 14.4258L88.5684 12.4336H89.7168V21Z" fill="white"/>
<path d="M53.9375 27.2891H55.6367C56.3737 27.2891 56.9297 27.3958 57.3047 27.6094C57.6797 27.8229 57.8672 28.1914 57.8672 28.7148C57.8672 28.9336 57.8281 29.1315 57.75 29.3086C57.6745 29.4831 57.5638 29.6276 57.418 29.7422C57.2721 29.8542 57.0924 29.9297 56.8789 29.9688V30.0078C57.1003 30.0469 57.2969 30.1159 57.4688 30.2148C57.6432 30.3138 57.7799 30.4557 57.8789 30.6406C57.9805 30.8255 58.0312 31.0651 58.0312 31.3594C58.0312 31.7083 57.9479 32.0052 57.7812 32.25C57.6172 32.4948 57.3815 32.681 57.0742 32.8086C56.7695 32.9362 56.4076 33 55.9883 33H53.9375V27.2891ZM54.875 29.6445H55.7734C56.1979 29.6445 56.4922 29.5755 56.6562 29.4375C56.8203 29.2995 56.9023 29.0977 56.9023 28.832C56.9023 28.5612 56.8047 28.3659 56.6094 28.2461C56.4167 28.1263 56.1094 28.0664 55.6875 28.0664H54.875V29.6445ZM54.875 30.4023V32.2148H55.8633C56.3008 32.2148 56.6081 32.1302 56.7852 31.9609C56.9622 31.7917 57.0508 31.5625 57.0508 31.2734C57.0508 31.0964 57.0104 30.9427 56.9297 30.8125C56.8516 30.6823 56.7227 30.582 56.543 30.5117C56.3633 30.4388 56.1211 30.4023 55.8164 30.4023H54.875ZM62.9453 30.8281C62.9453 31.1875 62.8984 31.5065 62.8047 31.7852C62.7109 32.0638 62.5742 32.2995 62.3945 32.4922C62.2148 32.6823 61.9987 32.8281 61.7461 32.9297C61.4935 33.0286 61.2083 33.0781 60.8906 33.0781C60.5938 33.0781 60.3216 33.0286 60.0742 32.9297C59.8268 32.8281 59.612 32.6823 59.4297 32.4922C59.25 32.2995 59.1107 32.0638 59.0117 31.7852C58.9128 31.5065 58.8633 31.1875 58.8633 30.8281C58.8633 30.3516 58.9453 29.9479 59.1094 29.6172C59.276 29.2839 59.513 29.0299 59.8203 28.8555C60.1276 28.681 60.4935 28.5938 60.918 28.5938C61.3164 28.5938 61.668 28.681 61.9727 28.8555C62.2773 29.0299 62.5156 29.2839 62.6875 29.6172C62.8594 29.9505 62.9453 30.3542 62.9453 30.8281ZM59.8086 30.8281C59.8086 31.1432 59.8464 31.4128 59.9219 31.6367C60 31.8607 60.1198 32.0326 60.2812 32.1523C60.4427 32.2695 60.651 32.3281 60.9062 32.3281C61.1615 32.3281 61.3698 32.2695 61.5312 32.1523C61.6927 32.0326 61.8112 31.8607 61.8867 31.6367C61.9622 31.4128 62 31.1432 62 30.8281C62 30.513 61.9622 30.2461 61.8867 30.0273C61.8112 29.806 61.6927 29.638 61.5312 29.5234C61.3698 29.4062 61.1602 29.3477 60.9023 29.3477C60.5221 29.3477 60.2448 29.4753 60.0703 29.7305C59.8958 29.9857 59.8086 30.3516 59.8086 30.8281ZM67.8281 30.8281C67.8281 31.1875 67.7812 31.5065 67.6875 31.7852C67.5938 32.0638 67.457 32.2995 67.2773 32.4922C67.0977 32.6823 66.8815 32.8281 66.6289 32.9297C66.3763 33.0286 66.0911 33.0781 65.7734 33.0781C65.4766 33.0781 65.2044 33.0286 64.957 32.9297C64.7096 32.8281 64.4948 32.6823 64.3125 32.4922C64.1328 32.2995 63.9935 32.0638 63.8945 31.7852C63.7956 31.5065 63.7461 31.1875 63.7461 30.8281C63.7461 30.3516 63.8281 29.9479 63.9922 29.6172C64.1589 29.2839 64.3958 29.0299 64.7031 28.8555C65.0104 28.681 65.3763 28.5938 65.8008 28.5938C66.1992 28.5938 66.5508 28.681 66.8555 28.8555C67.1602 29.0299 67.3984 29.2839 67.5703 29.6172C67.7422 29.9505 67.8281 30.3542 67.8281 30.8281ZM64.6914 30.8281C64.6914 31.1432 64.7292 31.4128 64.8047 31.6367C64.8828 31.8607 65.0026 32.0326 65.1641 32.1523C65.3255 32.2695 65.5339 32.3281 65.7891 32.3281C66.0443 32.3281 66.2526 32.2695 66.4141 32.1523C66.5755 32.0326 66.694 31.8607 66.7695 31.6367C66.8451 31.4128 66.8828 31.1432 66.8828 30.8281C66.8828 30.513 66.8451 30.2461 66.7695 30.0273C66.694 29.806 66.5755 29.638 66.4141 29.5234C66.2526 29.4062 66.043 29.3477 65.7852 29.3477C65.4049 29.3477 65.1276 29.4753 64.9531 29.7305C64.7786 29.9857 64.6914 30.3516 64.6914 30.8281ZM69.8008 26.9219V29.8594C69.8008 29.9922 69.7956 30.138 69.7852 30.2969C69.7747 30.4531 69.7643 30.6003 69.7539 30.7383H69.7734C69.8411 30.6471 69.9219 30.5404 70.0156 30.418C70.112 30.2956 70.2031 30.1888 70.2891 30.0977L71.6094 28.6758H72.6641L70.9336 30.5352L72.7773 33H71.6992L70.3164 31.1016L69.8008 31.543V33H68.8828V26.9219H69.8008Z" fill="white"/>
<path d="M46.75 38.2891H48.4492C49.1862 38.2891 49.7422 38.3958 50.1172 38.6094C50.4922 38.8229 50.6797 39.1914 50.6797 39.7148C50.6797 39.9336 50.6406 40.1315 50.5625 40.3086C50.487 40.4831 50.3763 40.6276 50.2305 40.7422C50.0846 40.8542 49.9049 40.9297 49.6914 40.9688V41.0078C49.9128 41.0469 50.1094 41.1159 50.2812 41.2148C50.4557 41.3138 50.5924 41.4557 50.6914 41.6406C50.793 41.8255 50.8438 42.0651 50.8438 42.3594C50.8438 42.7083 50.7604 43.0052 50.5938 43.25C50.4297 43.4948 50.194 43.681 49.8867 43.8086C49.582 43.9362 49.2201 44 48.8008 44H46.75V38.2891ZM47.6875 40.6445H48.5859C49.0104 40.6445 49.3047 40.5755 49.4688 40.4375C49.6328 40.2995 49.7148 40.0977 49.7148 39.832C49.7148 39.5612 49.6172 39.3659 49.4219 39.2461C49.2292 39.1263 48.9219 39.0664 48.5 39.0664H47.6875V40.6445ZM47.6875 41.4023V43.2148H48.6758C49.1133 43.2148 49.4206 43.1302 49.5977 42.9609C49.7747 42.7917 49.8633 42.5625 49.8633 42.2734C49.8633 42.0964 49.8229 41.9427 49.7422 41.8125C49.6641 41.6823 49.5352 41.582 49.3555 41.5117C49.1758 41.4388 48.9336 41.4023 48.6289 41.4023H47.6875ZM51.2773 39.6758H52.2773L53.1641 42.1445C53.2031 42.2565 53.2383 42.3672 53.2695 42.4766C53.3034 42.5833 53.332 42.6888 53.3555 42.793C53.3815 42.8971 53.4023 43.0013 53.418 43.1055H53.4414C53.4674 42.9701 53.5039 42.819 53.5508 42.6523C53.6003 42.4831 53.6549 42.3138 53.7148 42.1445L54.5664 39.6758H55.5547L53.6992 44.5938C53.5924 44.875 53.4609 45.1146 53.3047 45.3125C53.151 45.513 52.9688 45.6641 52.7578 45.7656C52.5469 45.8698 52.306 45.9219 52.0352 45.9219C51.9049 45.9219 51.7917 45.9141 51.6953 45.8984C51.599 45.8854 51.5169 45.8711 51.4492 45.8555V45.1211C51.5039 45.1341 51.5729 45.1458 51.6562 45.1562C51.7396 45.1667 51.8255 45.1719 51.9141 45.1719C52.0781 45.1719 52.2201 45.1393 52.3398 45.0742C52.4596 45.0091 52.5612 44.9167 52.6445 44.7969C52.7279 44.6797 52.7969 44.5456 52.8516 44.3945L53.0039 43.9883L51.2773 39.6758ZM61.6172 44H58.3828V38.2891H61.6172V39.0781H59.3203V40.6289H61.4727V41.4141H59.3203V43.207H61.6172V44ZM63.6797 44H62.7578V37.9219H63.6797V44ZM68.8203 41.8281C68.8203 42.1875 68.7734 42.5065 68.6797 42.7852C68.5859 43.0638 68.4492 43.2995 68.2695 43.4922C68.0898 43.6823 67.8737 43.8281 67.6211 43.9297C67.3685 44.0286 67.0833 44.0781 66.7656 44.0781C66.4688 44.0781 66.1966 44.0286 65.9492 43.9297C65.7018 43.8281 65.487 43.6823 65.3047 43.4922C65.125 43.2995 64.9857 43.0638 64.8867 42.7852C64.7878 42.5065 64.7383 42.1875 64.7383 41.8281C64.7383 41.3516 64.8203 40.9479 64.9844 40.6172C65.151 40.2839 65.388 40.0299 65.6953 39.8555C66.0026 39.681 66.3685 39.5938 66.793 39.5938C67.1914 39.5938 67.543 39.681 67.8477 39.8555C68.1523 40.0299 68.3906 40.2839 68.5625 40.6172C68.7344 40.9505 68.8203 41.3542 68.8203 41.8281ZM65.6836 41.8281C65.6836 42.1432 65.7214 42.4128 65.7969 42.6367C65.875 42.8607 65.9948 43.0326 66.1562 43.1523C66.3177 43.2695 66.526 43.3281 66.7812 43.3281C67.0365 43.3281 67.2448 43.2695 67.4062 43.1523C67.5677 43.0326 67.6862 42.8607 67.7617 42.6367C67.8372 42.4128 67.875 42.1432 67.875 41.8281C67.875 41.513 67.8372 41.2461 67.7617 41.0273C67.6862 40.806 67.5677 40.638 67.4062 40.5234C67.2448 40.4062 67.0352 40.3477 66.7773 40.3477C66.3971 40.3477 66.1198 40.4753 65.9453 40.7305C65.7708 40.9857 65.6836 41.3516 65.6836 41.8281ZM73.7031 41.8281C73.7031 42.1875 73.6562 42.5065 73.5625 42.7852C73.4688 43.0638 73.332 43.2995 73.1523 43.4922C72.9727 43.6823 72.7565 43.8281 72.5039 43.9297C72.2513 44.0286 71.9661 44.0781 71.6484 44.0781C71.3516 44.0781 71.0794 44.0286 70.832 43.9297C70.5846 43.8281 70.3698 43.6823 70.1875 43.4922C70.0078 43.2995 69.8685 43.0638 69.7695 42.7852C69.6706 42.5065 69.6211 42.1875 69.6211 41.8281C69.6211 41.3516 69.7031 40.9479 69.8672 40.6172C70.0339 40.2839 70.2708 40.0299 70.5781 39.8555C70.8854 39.681 71.2513 39.5938 71.6758 39.5938C72.0742 39.5938 72.4258 39.681 72.7305 39.8555C73.0352 40.0299 73.2734 40.2839 73.4453 40.6172C73.6172 40.9505 73.7031 41.3542 73.7031 41.8281ZM70.5664 41.8281C70.5664 42.1432 70.6042 42.4128 70.6797 42.6367C70.7578 42.8607 70.8776 43.0326 71.0391 43.1523C71.2005 43.2695 71.4089 43.3281 71.6641 43.3281C71.9193 43.3281 72.1276 43.2695 72.2891 43.1523C72.4505 43.0326 72.569 42.8607 72.6445 42.6367C72.7201 42.4128 72.7578 42.1432 72.7578 41.8281C72.7578 41.513 72.7201 41.2461 72.6445 41.0273C72.569 40.806 72.4505 40.638 72.2891 40.5234C72.1276 40.4062 71.918 40.3477 71.6602 40.3477C71.2799 40.3477 71.0026 40.4753 70.8281 40.7305C70.6536 40.9857 70.5664 41.3516 70.5664 41.8281ZM75.6797 44H74.7578V37.9219H75.6797V44ZM76.3398 39.6758H77.3398L78.2266 42.1445C78.2656 42.2565 78.3008 42.3672 78.332 42.4766C78.3659 42.5833 78.3945 42.6888 78.418 42.793C78.444 42.8971 78.4648 43.0013 78.4805 43.1055H78.5039C78.5299 42.9701 78.5664 42.819 78.6133 42.6523C78.6628 42.4831 78.7174 42.3138 78.7773 42.1445L79.6289 39.6758H80.6172L78.7617 44.5938C78.6549 44.875 78.5234 45.1146 78.3672 45.3125C78.2135 45.513 78.0312 45.6641 77.8203 45.7656C77.6094 45.8698 77.3685 45.9219 77.0977 45.9219C76.9674 45.9219 76.8542 45.9141 76.7578 45.8984C76.6615 45.8854 76.5794 45.8711 76.5117 45.8555V45.1211C76.5664 45.1341 76.6354 45.1458 76.7188 45.1562C76.8021 45.1667 76.888 45.1719 76.9766 45.1719C77.1406 45.1719 77.2826 45.1393 77.4023 45.0742C77.5221 45.0091 77.6237 44.9167 77.707 44.7969C77.7904 44.6797 77.8594 44.5456 77.9141 44.3945L78.0664 43.9883L76.3398 39.6758Z" fill="white"/>
</svg>
