<svg width="100" height="100" viewBox="0 0 100 100" fill="none" xmlns="http://www.w3.org/2000/svg">
<rect x="17" width="10" height="100" fill="#FFCC99"/>
<rect x="27" width="70" height="100" fill="#E48033"/>
<path d="M41.4766 12.4336L38.4824 21H36.9941L34 12.4336H35.4414L37.2461 17.8008C37.3008 17.957 37.3594 18.1465 37.4219 18.3691C37.4883 18.5918 37.5488 18.8164 37.6035 19.043C37.6621 19.2695 37.707 19.4707 37.7383 19.6465C37.7695 19.4707 37.8125 19.2695 37.8672 19.043C37.9258 18.8164 37.9863 18.5918 38.0488 18.3691C38.1113 18.1465 38.1699 17.9551 38.2246 17.7949L40.0352 12.4336H41.4766ZM48.2031 17.7422C48.2031 18.2812 48.1328 18.7598 47.9922 19.1777C47.8516 19.5957 47.6465 19.9492 47.377 20.2383C47.1074 20.5234 46.7832 20.7422 46.4043 20.8945C46.0254 21.043 45.5977 21.1172 45.1211 21.1172C44.6758 21.1172 44.2676 21.043 43.8965 20.8945C43.5254 20.7422 43.2031 20.5234 42.9297 20.2383C42.6602 19.9492 42.4512 19.5957 42.3027 19.1777C42.1543 18.7598 42.0801 18.2812 42.0801 17.7422C42.0801 17.0273 42.2031 16.4219 42.4492 15.9258C42.6992 15.4258 43.0547 15.0449 43.5156 14.7832C43.9766 14.5215 44.5254 14.3906 45.1621 14.3906C45.7598 14.3906 46.2871 14.5215 46.7441 14.7832C47.2012 15.0449 47.5586 15.4258 47.8164 15.9258C48.0742 16.4258 48.2031 17.0312 48.2031 17.7422ZM43.498 17.7422C43.498 18.2148 43.5547 18.6191 43.668 18.9551C43.7852 19.291 43.9648 19.5488 44.207 19.7285C44.4492 19.9043 44.7617 19.9922 45.1445 19.9922C45.5273 19.9922 45.8398 19.9043 46.082 19.7285C46.3242 19.5488 46.502 19.291 46.6152 18.9551C46.7285 18.6191 46.7852 18.2148 46.7852 17.7422C46.7852 17.2695 46.7285 16.8691 46.6152 16.541C46.502 16.209 46.3242 15.957 46.082 15.7852C45.8398 15.6094 45.5254 15.5215 45.1387 15.5215C44.5684 15.5215 44.1523 15.7129 43.8906 16.0957C43.6289 16.4785 43.498 17.0273 43.498 17.7422ZM51.168 21H49.7852V11.8828H51.168V21ZM58.791 14.5137V21H57.707L57.5195 20.127H57.4434C57.3066 20.3496 57.1328 20.5352 56.9219 20.6836C56.7109 20.8281 56.4766 20.9355 56.2188 21.0059C55.9609 21.0801 55.6895 21.1172 55.4043 21.1172C54.916 21.1172 54.498 21.0352 54.1504 20.8711C53.8066 20.7031 53.543 20.4453 53.3594 20.0977C53.1758 19.75 53.084 19.3008 53.084 18.75V14.5137H54.4668V18.4922C54.4668 18.9961 54.5684 19.373 54.7715 19.623C54.9785 19.873 55.2988 19.998 55.7324 19.998C56.1504 19.998 56.4824 19.9121 56.7285 19.7402C56.9746 19.5684 57.1484 19.3145 57.25 18.9785C57.3555 18.6426 57.4082 18.2305 57.4082 17.7422V14.5137H58.791ZM68.0957 14.3906C68.8223 14.3906 69.3691 14.5781 69.7363 14.9531C70.1074 15.3281 70.293 15.9297 70.293 16.7578V21H68.916V17.0039C68.916 16.5117 68.8203 16.1406 68.6289 15.8906C68.4375 15.6406 68.1465 15.5156 67.7559 15.5156C67.209 15.5156 66.8145 15.6914 66.5723 16.043C66.334 16.3906 66.2148 16.8965 66.2148 17.5605V21H64.8379V17.0039C64.8379 16.6758 64.7949 16.4023 64.709 16.1836C64.627 15.9609 64.5 15.7949 64.3281 15.6855C64.1562 15.5723 63.9395 15.5156 63.6777 15.5156C63.2988 15.5156 62.9961 15.6016 62.7695 15.7734C62.5469 15.9453 62.3867 16.1992 62.2891 16.5352C62.1914 16.8672 62.1426 17.2754 62.1426 17.7598V21H60.7656V14.5137H61.8379L62.0312 15.3867H62.1074C62.2402 15.1602 62.4043 14.9746 62.5996 14.8301C62.7988 14.6816 63.0195 14.5723 63.2617 14.502C63.5039 14.4277 63.7559 14.3906 64.0176 14.3906C64.502 14.3906 64.9102 14.4766 65.2422 14.6484C65.5742 14.8164 65.8223 15.0742 65.9863 15.4219H66.0918C66.2949 15.0703 66.5781 14.8105 66.9414 14.6426C67.3047 14.4746 67.6895 14.3906 68.0957 14.3906ZM74.7988 14.3906C75.377 14.3906 75.873 14.5098 76.2871 14.748C76.7012 14.9863 77.0195 15.3242 77.2422 15.7617C77.4648 16.1992 77.5762 16.7227 77.5762 17.332V18.0703H73.2461C73.2617 18.6992 73.4297 19.1836 73.75 19.5234C74.0742 19.8633 74.5273 20.0332 75.1094 20.0332C75.5234 20.0332 75.8945 19.9941 76.2227 19.916C76.5547 19.834 76.8965 19.7148 77.248 19.5586V20.6777C76.9238 20.8301 76.5938 20.9414 76.2578 21.0117C75.9219 21.082 75.5195 21.1172 75.0508 21.1172C74.4141 21.1172 73.8535 20.9941 73.3691 20.748C72.8887 20.498 72.5117 20.127 72.2383 19.6348C71.9688 19.1426 71.834 18.5312 71.834 17.8008C71.834 17.0742 71.957 16.457 72.2031 15.9492C72.4492 15.4414 72.7949 15.0547 73.2402 14.7891C73.6855 14.5234 74.2051 14.3906 74.7988 14.3906ZM74.7988 15.4277C74.3652 15.4277 74.0137 15.5684 73.7441 15.8496C73.4785 16.1309 73.3223 16.543 73.2754 17.0859H76.2285C76.2246 16.7617 76.1699 16.4746 76.0645 16.2246C75.9629 15.9746 75.8066 15.7793 75.5957 15.6387C75.3887 15.498 75.123 15.4277 74.7988 15.4277ZM87.6016 21H81.8008V19.9629L84.0215 17.7129C84.4512 17.2754 84.8047 16.8984 85.082 16.582C85.3594 16.2617 85.5645 15.959 85.6973 15.6738C85.834 15.3887 85.9023 15.0781 85.9023 14.7422C85.9023 14.3281 85.7832 14.0156 85.5449 13.8047C85.3066 13.5898 84.9922 13.4824 84.6016 13.4824C84.2305 13.4824 83.8867 13.5566 83.5703 13.7051C83.2578 13.8496 82.9336 14.0566 82.5977 14.3262L81.8418 13.418C82.0801 13.2148 82.334 13.0293 82.6035 12.8613C82.877 12.6934 83.1816 12.5605 83.5176 12.4629C83.8535 12.3613 84.2363 12.3105 84.666 12.3105C85.209 12.3105 85.6777 12.4082 86.0723 12.6035C86.4668 12.7949 86.7695 13.0625 86.9805 13.4062C87.1953 13.75 87.3027 14.1504 87.3027 14.6074C87.3027 15.0684 87.2109 15.4941 87.0273 15.8848C86.8438 16.2754 86.582 16.6621 86.2422 17.0449C85.9023 17.4238 85.498 17.8359 85.0293 18.2812L83.5469 19.7285V19.793H87.6016V21Z" fill="white"/>
<path d="M54.4375 27.2891H56.1367C56.8737 27.2891 57.4297 27.3958 57.8047 27.6094C58.1797 27.8229 58.3672 28.1914 58.3672 28.7148C58.3672 28.9336 58.3281 29.1315 58.25 29.3086C58.1745 29.4831 58.0638 29.6276 57.918 29.7422C57.7721 29.8542 57.5924 29.9297 57.3789 29.9688V30.0078C57.6003 30.0469 57.7969 30.1159 57.9688 30.2148C58.1432 30.3138 58.2799 30.4557 58.3789 30.6406C58.4805 30.8255 58.5312 31.0651 58.5312 31.3594C58.5312 31.7083 58.4479 32.0052 58.2812 32.25C58.1172 32.4948 57.8815 32.681 57.5742 32.8086C57.2695 32.9362 56.9076 33 56.4883 33H54.4375V27.2891ZM55.375 29.6445H56.2734C56.6979 29.6445 56.9922 29.5755 57.1562 29.4375C57.3203 29.2995 57.4023 29.0977 57.4023 28.832C57.4023 28.5612 57.3047 28.3659 57.1094 28.2461C56.9167 28.1263 56.6094 28.0664 56.1875 28.0664H55.375V29.6445ZM55.375 30.4023V32.2148H56.3633C56.8008 32.2148 57.1081 32.1302 57.2852 31.9609C57.4622 31.7917 57.5508 31.5625 57.5508 31.2734C57.5508 31.0964 57.5104 30.9427 57.4297 30.8125C57.3516 30.6823 57.2227 30.582 57.043 30.5117C56.8633 30.4388 56.6211 30.4023 56.3164 30.4023H55.375ZM63.4453 30.8281C63.4453 31.1875 63.3984 31.5065 63.3047 31.7852C63.2109 32.0638 63.0742 32.2995 62.8945 32.4922C62.7148 32.6823 62.4987 32.8281 62.2461 32.9297C61.9935 33.0286 61.7083 33.0781 61.3906 33.0781C61.0938 33.0781 60.8216 33.0286 60.5742 32.9297C60.3268 32.8281 60.112 32.6823 59.9297 32.4922C59.75 32.2995 59.6107 32.0638 59.5117 31.7852C59.4128 31.5065 59.3633 31.1875 59.3633 30.8281C59.3633 30.3516 59.4453 29.9479 59.6094 29.6172C59.776 29.2839 60.013 29.0299 60.3203 28.8555C60.6276 28.681 60.9935 28.5938 61.418 28.5938C61.8164 28.5938 62.168 28.681 62.4727 28.8555C62.7773 29.0299 63.0156 29.2839 63.1875 29.6172C63.3594 29.9505 63.4453 30.3542 63.4453 30.8281ZM60.3086 30.8281C60.3086 31.1432 60.3464 31.4128 60.4219 31.6367C60.5 31.8607 60.6198 32.0326 60.7812 32.1523C60.9427 32.2695 61.151 32.3281 61.4062 32.3281C61.6615 32.3281 61.8698 32.2695 62.0312 32.1523C62.1927 32.0326 62.3112 31.8607 62.3867 31.6367C62.4622 31.4128 62.5 31.1432 62.5 30.8281C62.5 30.513 62.4622 30.2461 62.3867 30.0273C62.3112 29.806 62.1927 29.638 62.0312 29.5234C61.8698 29.4062 61.6602 29.3477 61.4023 29.3477C61.0221 29.3477 60.7448 29.4753 60.5703 29.7305C60.3958 29.9857 60.3086 30.3516 60.3086 30.8281ZM68.3281 30.8281C68.3281 31.1875 68.2812 31.5065 68.1875 31.7852C68.0938 32.0638 67.957 32.2995 67.7773 32.4922C67.5977 32.6823 67.3815 32.8281 67.1289 32.9297C66.8763 33.0286 66.5911 33.0781 66.2734 33.0781C65.9766 33.0781 65.7044 33.0286 65.457 32.9297C65.2096 32.8281 64.9948 32.6823 64.8125 32.4922C64.6328 32.2995 64.4935 32.0638 64.3945 31.7852C64.2956 31.5065 64.2461 31.1875 64.2461 30.8281C64.2461 30.3516 64.3281 29.9479 64.4922 29.6172C64.6589 29.2839 64.8958 29.0299 65.2031 28.8555C65.5104 28.681 65.8763 28.5938 66.3008 28.5938C66.6992 28.5938 67.0508 28.681 67.3555 28.8555C67.6602 29.0299 67.8984 29.2839 68.0703 29.6172C68.2422 29.9505 68.3281 30.3542 68.3281 30.8281ZM65.1914 30.8281C65.1914 31.1432 65.2292 31.4128 65.3047 31.6367C65.3828 31.8607 65.5026 32.0326 65.6641 32.1523C65.8255 32.2695 66.0339 32.3281 66.2891 32.3281C66.5443 32.3281 66.7526 32.2695 66.9141 32.1523C67.0755 32.0326 67.194 31.8607 67.2695 31.6367C67.3451 31.4128 67.3828 31.1432 67.3828 30.8281C67.3828 30.513 67.3451 30.2461 67.2695 30.0273C67.194 29.806 67.0755 29.638 66.9141 29.5234C66.7526 29.4062 66.543 29.3477 66.2852 29.3477C65.9049 29.3477 65.6276 29.4753 65.4531 29.7305C65.2786 29.9857 65.1914 30.3516 65.1914 30.8281ZM70.3008 26.9219V29.8594C70.3008 29.9922 70.2956 30.138 70.2852 30.2969C70.2747 30.4531 70.2643 30.6003 70.2539 30.7383H70.2734C70.3411 30.6471 70.4219 30.5404 70.5156 30.418C70.612 30.2956 70.7031 30.1888 70.7891 30.0977L72.1094 28.6758H73.1641L71.4336 30.5352L73.2773 33H72.1992L70.8164 31.1016L70.3008 31.543V33H69.3828V26.9219H70.3008Z" fill="white"/>
<path d="M46.75 38.2891H48.4492C49.1862 38.2891 49.7422 38.3958 50.1172 38.6094C50.4922 38.8229 50.6797 39.1914 50.6797 39.7148C50.6797 39.9336 50.6406 40.1315 50.5625 40.3086C50.487 40.4831 50.3763 40.6276 50.2305 40.7422C50.0846 40.8542 49.9049 40.9297 49.6914 40.9688V41.0078C49.9128 41.0469 50.1094 41.1159 50.2812 41.2148C50.4557 41.3138 50.5924 41.4557 50.6914 41.6406C50.793 41.8255 50.8438 42.0651 50.8438 42.3594C50.8438 42.7083 50.7604 43.0052 50.5938 43.25C50.4297 43.4948 50.194 43.681 49.8867 43.8086C49.582 43.9362 49.2201 44 48.8008 44H46.75V38.2891ZM47.6875 40.6445H48.5859C49.0104 40.6445 49.3047 40.5755 49.4688 40.4375C49.6328 40.2995 49.7148 40.0977 49.7148 39.832C49.7148 39.5612 49.6172 39.3659 49.4219 39.2461C49.2292 39.1263 48.9219 39.0664 48.5 39.0664H47.6875V40.6445ZM47.6875 41.4023V43.2148H48.6758C49.1133 43.2148 49.4206 43.1302 49.5977 42.9609C49.7747 42.7917 49.8633 42.5625 49.8633 42.2734C49.8633 42.0964 49.8229 41.9427 49.7422 41.8125C49.6641 41.6823 49.5352 41.582 49.3555 41.5117C49.1758 41.4388 48.9336 41.4023 48.6289 41.4023H47.6875ZM51.2773 39.6758H52.2773L53.1641 42.1445C53.2031 42.2565 53.2383 42.3672 53.2695 42.4766C53.3034 42.5833 53.332 42.6888 53.3555 42.793C53.3815 42.8971 53.4023 43.0013 53.418 43.1055H53.4414C53.4674 42.9701 53.5039 42.819 53.5508 42.6523C53.6003 42.4831 53.6549 42.3138 53.7148 42.1445L54.5664 39.6758H55.5547L53.6992 44.5938C53.5924 44.875 53.4609 45.1146 53.3047 45.3125C53.151 45.513 52.9688 45.6641 52.7578 45.7656C52.5469 45.8698 52.306 45.9219 52.0352 45.9219C51.9049 45.9219 51.7917 45.9141 51.6953 45.8984C51.599 45.8854 51.5169 45.8711 51.4492 45.8555V45.1211C51.5039 45.1341 51.5729 45.1458 51.6562 45.1562C51.7396 45.1667 51.8255 45.1719 51.9141 45.1719C52.0781 45.1719 52.2201 45.1393 52.3398 45.0742C52.4596 45.0091 52.5612 44.9167 52.6445 44.7969C52.7279 44.6797 52.7969 44.5456 52.8516 44.3945L53.0039 43.9883L51.2773 39.6758ZM61.6172 44H58.3828V38.2891H61.6172V39.0781H59.3203V40.6289H61.4727V41.4141H59.3203V43.207H61.6172V44ZM63.6797 44H62.7578V37.9219H63.6797V44ZM68.8203 41.8281C68.8203 42.1875 68.7734 42.5065 68.6797 42.7852C68.5859 43.0638 68.4492 43.2995 68.2695 43.4922C68.0898 43.6823 67.8737 43.8281 67.6211 43.9297C67.3685 44.0286 67.0833 44.0781 66.7656 44.0781C66.4688 44.0781 66.1966 44.0286 65.9492 43.9297C65.7018 43.8281 65.487 43.6823 65.3047 43.4922C65.125 43.2995 64.9857 43.0638 64.8867 42.7852C64.7878 42.5065 64.7383 42.1875 64.7383 41.8281C64.7383 41.3516 64.8203 40.9479 64.9844 40.6172C65.151 40.2839 65.388 40.0299 65.6953 39.8555C66.0026 39.681 66.3685 39.5938 66.793 39.5938C67.1914 39.5938 67.543 39.681 67.8477 39.8555C68.1523 40.0299 68.3906 40.2839 68.5625 40.6172C68.7344 40.9505 68.8203 41.3542 68.8203 41.8281ZM65.6836 41.8281C65.6836 42.1432 65.7214 42.4128 65.7969 42.6367C65.875 42.8607 65.9948 43.0326 66.1562 43.1523C66.3177 43.2695 66.526 43.3281 66.7812 43.3281C67.0365 43.3281 67.2448 43.2695 67.4062 43.1523C67.5677 43.0326 67.6862 42.8607 67.7617 42.6367C67.8372 42.4128 67.875 42.1432 67.875 41.8281C67.875 41.513 67.8372 41.2461 67.7617 41.0273C67.6862 40.806 67.5677 40.638 67.4062 40.5234C67.2448 40.4062 67.0352 40.3477 66.7773 40.3477C66.3971 40.3477 66.1198 40.4753 65.9453 40.7305C65.7708 40.9857 65.6836 41.3516 65.6836 41.8281ZM73.7031 41.8281C73.7031 42.1875 73.6562 42.5065 73.5625 42.7852C73.4688 43.0638 73.332 43.2995 73.1523 43.4922C72.9727 43.6823 72.7565 43.8281 72.5039 43.9297C72.2513 44.0286 71.9661 44.0781 71.6484 44.0781C71.3516 44.0781 71.0794 44.0286 70.832 43.9297C70.5846 43.8281 70.3698 43.6823 70.1875 43.4922C70.0078 43.2995 69.8685 43.0638 69.7695 42.7852C69.6706 42.5065 69.6211 42.1875 69.6211 41.8281C69.6211 41.3516 69.7031 40.9479 69.8672 40.6172C70.0339 40.2839 70.2708 40.0299 70.5781 39.8555C70.8854 39.681 71.2513 39.5938 71.6758 39.5938C72.0742 39.5938 72.4258 39.681 72.7305 39.8555C73.0352 40.0299 73.2734 40.2839 73.4453 40.6172C73.6172 40.9505 73.7031 41.3542 73.7031 41.8281ZM70.5664 41.8281C70.5664 42.1432 70.6042 42.4128 70.6797 42.6367C70.7578 42.8607 70.8776 43.0326 71.0391 43.1523C71.2005 43.2695 71.4089 43.3281 71.6641 43.3281C71.9193 43.3281 72.1276 43.2695 72.2891 43.1523C72.4505 43.0326 72.569 42.8607 72.6445 42.6367C72.7201 42.4128 72.7578 42.1432 72.7578 41.8281C72.7578 41.513 72.7201 41.2461 72.6445 41.0273C72.569 40.806 72.4505 40.638 72.2891 40.5234C72.1276 40.4062 71.918 40.3477 71.6602 40.3477C71.2799 40.3477 71.0026 40.4753 70.8281 40.7305C70.6536 40.9857 70.5664 41.3516 70.5664 41.8281ZM75.6797 44H74.7578V37.9219H75.6797V44ZM76.3398 39.6758H77.3398L78.2266 42.1445C78.2656 42.2565 78.3008 42.3672 78.332 42.4766C78.3659 42.5833 78.3945 42.6888 78.418 42.793C78.444 42.8971 78.4648 43.0013 78.4805 43.1055H78.5039C78.5299 42.9701 78.5664 42.819 78.6133 42.6523C78.6628 42.4831 78.7174 42.3138 78.7773 42.1445L79.6289 39.6758H80.6172L78.7617 44.5938C78.6549 44.875 78.5234 45.1146 78.3672 45.3125C78.2135 45.513 78.0312 45.6641 77.8203 45.7656C77.6094 45.8698 77.3685 45.9219 77.0977 45.9219C76.9674 45.9219 76.8542 45.9141 76.7578 45.8984C76.6615 45.8854 76.5794 45.8711 76.5117 45.8555V45.1211C76.5664 45.1341 76.6354 45.1458 76.7188 45.1562C76.8021 45.1667 76.888 45.1719 76.9766 45.1719C77.1406 45.1719 77.2826 45.1393 77.4023 45.0742C77.5221 45.0091 77.6237 44.9167 77.707 44.7969C77.7904 44.6797 77.8594 44.5456 77.9141 44.3945L78.0664 43.9883L76.3398 39.6758Z" fill="white"/>
</svg>
