<svg width="100" height="100" viewBox="0 0 100 100" fill="none" xmlns="http://www.w3.org/2000/svg">
<g clip-path="url(#clip0_14_303)">
<ellipse cx="50" cy="59.5" rx="40" ry="40.5" fill="#996633"/>
<mask id="mask0_14_303" style="mask-type:alpha" maskUnits="userSpaceOnUse" x="76" y="24" width="24" height="60">
<path d="M76.2447 34.4589C75.1508 28.3339 78.8867 22.7292 82.9694 24.3703L92.4769 28.1922C96.5596 29.8334 97.9271 37.4896 94.9383 41.9734L87.9784 52.4149C84.9896 56.8987 79.8862 54.8473 78.7923 48.7223L76.2447 34.4589Z" fill="#D9D9D9"/>
<path d="M77.9094 36.9001L96.1139 35.3074L99.468 73.6448C99.9078 78.6718 96.1892 83.1036 91.1621 83.5434C86.1351 83.9832 81.7033 80.2645 81.2635 75.2375L77.9094 36.9001Z" fill="#D9D9D9"/>
</mask>
<g mask="url(#mask0_14_303)">
<rect x="101" y="21" width="63.5" height="29" transform="rotate(90 101 21)" fill="url(#paint0_linear_14_303)"/>
</g>
<mask id="mask1_14_303" style="mask-type:alpha" maskUnits="userSpaceOnUse" x="-1" y="22" width="32" height="59">
<path d="M22.4653 44.192C19.5263 49.676 13.1202 51.7575 10.9343 47.9386L5.84392 39.0455C3.65801 35.2266 7.3317 28.3716 12.4566 26.7064L24.391 22.8287C29.5158 21.1635 32.2482 25.9371 29.3093 31.4212L22.4653 44.192Z" fill="#D9D9D9"/>
<path d="M6.22333 31.7882L24.2198 34.9615L17.5371 72.8607C16.6608 77.8302 11.9218 81.1485 6.95227 80.2723C1.98269 79.396 -1.33559 74.657 -0.45932 69.6874L6.22333 31.7882Z" fill="#D9D9D9"/>
</mask>
<g mask="url(#mask1_14_303)">
<rect x="31" y="21" width="63" height="31" transform="rotate(90 31 21)" fill="url(#paint1_linear_14_303)"/>
</g>
<mask id="mask2_14_303" style="mask-type:alpha" maskUnits="userSpaceOnUse" x="10" y="19" width="80" height="81">
<ellipse cx="50" cy="59.5" rx="40" ry="40.5" fill="#FFE4B1"/>
</mask>
<g mask="url(#mask2_14_303)">
<path d="M24 55.5C24 45.835 31.835 38 41.5 38H59.5C69.165 38 77 45.835 77 55.5V100H24V55.5Z" fill="#222222"/>
<circle cx="33" cy="50" r="6" fill="#F0F0F0"/>
<circle cx="33" cy="50" r="5" fill="#664E22"/>
<circle cx="33" cy="50" r="2.5" fill="black"/>
<circle cx="68" cy="51" r="6" fill="#F0F0F0"/>
<circle cx="68" cy="51" r="5" fill="#664E22"/>
<circle cx="68" cy="51" r="2.5" fill="black"/>
<path d="M30 81C30 72.7157 36.7157 66 45 66H55C63.2843 66 70 72.7157 70 81V101H30V81Z" fill="#333333"/>
<path d="M40 77C40 74.2386 42.2386 72 45 72H55C57.7614 72 60 74.2386 60 77V81.5C60 85.6421 56.6421 89 52.5 89H47.5C43.3579 89 40 85.6421 40 81.5V77Z" fill="#222222"/>
<circle cx="45.5" cy="80.5" r="2.5" fill="black"/>
<circle cx="54.5" cy="80.5" r="2.5" fill="black"/>
<path d="M17.8713 104.25L50 94.2618L82.1287 104.25H17.8713Z" stroke="black" stroke-width="0.5"/>
<line x1="50" y1="89" x2="50" y2="94.5" stroke="black"/>
<path d="M46 34C46 31.7909 47.7909 30 50 30C52.2091 30 54 31.7909 54 34V67H46V34Z" fill="white"/>
</g>
</g>
<defs>
<linearGradient id="paint0_linear_14_303" x1="132.75" y1="21" x2="132.75" y2="50" gradientUnits="userSpaceOnUse">
<stop stop-color="#4E4E4E"/>
<stop offset="0.901042" stop-color="#996633"/>
</linearGradient>
<linearGradient id="paint1_linear_14_303" x1="62.5" y1="21" x2="62.5" y2="52" gradientUnits="userSpaceOnUse">
<stop stop-color="#996633"/>
<stop offset="0.901042" stop-color="#4E4E4E"/>
</linearGradient>
<clipPath id="clip0_14_303">
<rect width="100" height="100" fill="white"/>
</clipPath>
</defs>
</svg>
