<svg width="100" height="100" viewBox="0 0 100 100" fill="none" xmlns="http://www.w3.org/2000/svg">
<g clip-path="url(#clip0_14_429)">
<ellipse cx="50" cy="59.5" rx="33" ry="40.5" fill="#FFAA66"/>
<mask id="mask0_14_429" style="mask-type:alpha" maskUnits="userSpaceOnUse" x="14" y="1" width="30" height="42">
<path d="M22.3942 2.69305C22.589 1.8266 23.7323 1.62499 24.2117 2.37258L42.7287 31.2511C43.1141 31.8521 42.7637 32.6517 42.0606 32.7757L16.0202 37.3673C15.3171 37.4913 14.7143 36.8598 14.8709 36.1632L22.3942 2.69305Z" fill="black"/>
<path d="M42.9648 30.8266C43.1657 31.9663 42.9967 33.1597 42.4672 34.3387C41.9377 35.5178 41.0582 36.6593 39.8788 37.6982C38.6995 38.7371 37.2435 39.653 35.5939 40.3935C33.9443 41.1341 32.1334 41.6849 30.2646 42.0144C28.3958 42.3439 26.5058 42.4457 24.7023 42.314C22.8989 42.1823 21.2174 41.8197 19.7539 41.2468C18.2904 40.6739 17.0735 39.902 16.1727 38.9752C15.2719 38.0483 14.7048 36.9847 14.5038 35.845L28.7343 33.3358L42.9648 30.8266Z" fill="black"/>
</mask>
<g mask="url(#mask0_14_429)">
<rect x="4.29932" y="2.44711" width="37.4" height="48.175" transform="rotate(-10 4.29932 2.44711)" fill="url(#paint0_radial_14_429)"/>
</g>
<mask id="mask1_14_429" style="mask-type:alpha" maskUnits="userSpaceOnUse" x="56" y="1" width="30" height="42">
<path d="M75.7883 2.37758C76.2677 1.62998 77.411 1.83158 77.6058 2.69804L85.1291 36.1682C85.2857 36.8648 84.6829 37.4963 83.9798 37.3723L57.9394 32.7807C57.2363 32.6567 56.8859 31.8571 57.2713 31.2561L75.7883 2.37758Z" fill="black"/>
<path d="M85.4962 35.85C85.2952 36.9897 84.7281 38.0533 83.8273 38.9801C82.9265 39.907 81.7096 40.6789 80.2461 41.2518C78.7826 41.8246 77.1011 42.1873 75.2977 42.319C73.4942 42.4507 71.6042 42.3489 69.7354 42.0194C67.8666 41.6899 66.0557 41.1391 64.4061 40.3985C62.7565 39.658 61.3005 38.7421 60.1212 37.7032C58.9418 36.6643 58.0623 35.5228 57.5328 34.3437C57.0033 33.1647 56.8343 31.9712 57.0352 30.8316L71.2657 33.3408L85.4962 35.85Z" fill="black"/>
</mask>
<g mask="url(#mask1_14_429)">
<rect x="58.8688" y="-4.04236" width="37.4" height="48.175" transform="rotate(10 58.8688 -4.04236)" fill="url(#paint1_radial_14_429)"/>
</g>
<mask id="mask2_14_429" style="mask-type:alpha" maskUnits="userSpaceOnUse" x="17" y="19" width="66" height="81">
<ellipse cx="50" cy="59.5" rx="33" ry="40.5" fill="#FFAA66"/>
</mask>
<g mask="url(#mask2_14_429)">
<circle cx="33" cy="50" r="6" fill="#F0F0F0"/>
<circle cx="33" cy="50" r="5" fill="#664022"/>
<circle cx="33" cy="50" r="2.5" fill="black"/>
<circle cx="67" cy="50" r="6" fill="#F0F0F0"/>
<circle cx="67" cy="50" r="5" fill="#664022"/>
<circle cx="67" cy="50" r="2.5" fill="black"/>
<path d="M32 68C32 62.4772 36.4772 58 42 58H58C63.5228 58 68 62.4772 68 68V101H32V68Z" fill="#222222"/>
<path d="M41 67C41 64.2386 43.2386 62 46 62H56C58.7614 62 61 64.2386 61 67V74.5C61 78.6421 57.6421 82 53.5 82H48.5C44.3579 82 41 78.6421 41 74.5V67Z" fill="#4E4E4E"/>
<circle cx="46.5" cy="69.5" r="2.5" fill="black"/>
<circle cx="55.5" cy="69.5" r="2.5" fill="black"/>
<path d="M29.2666 101.5L50 89.2901L70.7334 101.5H29.2666Z" stroke="black" stroke-width="0.5"/>
<line x1="50" y1="82" x2="50" y2="89.5" stroke="black"/>
</g>
</g>
<defs>
<radialGradient id="paint0_radial_14_429" cx="0" cy="0" r="1" gradientUnits="userSpaceOnUse" gradientTransform="translate(22.9993 26.5346) rotate(90) scale(24.0875 18.7)">
<stop stop-color="#CC9999"/>
<stop offset="0.864583"/>
</radialGradient>
<radialGradient id="paint1_radial_14_429" cx="0" cy="0" r="1" gradientUnits="userSpaceOnUse" gradientTransform="translate(77.5688 20.0451) rotate(90) scale(24.0875 18.7)">
<stop stop-color="#CC9999"/>
<stop offset="0.864583"/>
</radialGradient>
<clipPath id="clip0_14_429">
<rect width="100" height="100" fill="white"/>
</clipPath>
</defs>
</svg>
