<svg width="100" height="100" viewBox="0 0 100 100" fill="none" xmlns="http://www.w3.org/2000/svg">
<ellipse cx="51" cy="59.5" rx="40" ry="40.5" fill="#F0E4D1"/>
<mask id="mask0_14_632" style="mask-type:alpha" maskUnits="userSpaceOnUse" x="11" y="19" width="80" height="81">
<ellipse cx="51" cy="59.5" rx="40" ry="40.5" fill="#FFCC99"/>
</mask>
<g mask="url(#mask0_14_632)">
<circle cx="33" cy="52" r="6" fill="#F0F0F0"/>
<circle cx="33" cy="52" r="5" fill="#664022"/>
<circle cx="33" cy="52" r="2.5" fill="black"/>
<circle cx="69" cy="52" r="6" fill="#F0F0F0"/>
<circle cx="69" cy="52" r="5" fill="#664022"/>
<circle cx="69" cy="52" r="2.5" fill="black"/>
<path d="M42 19H61V61H42V19Z" fill="#F6E4D1"/>
<mask id="mask1_14_632" style="mask-type:alpha" maskUnits="userSpaceOnUse" x="33" y="50" width="36" height="43">
<path d="M33 68C33 58.0589 41.0589 50 51 50C60.9411 50 69 58.0589 69 68V78C69 86.2843 62.2843 93 54 93H48C39.7157 93 33 86.2843 33 78V68Z" fill="#F6E4D1"/>
</mask>
<g mask="url(#mask1_14_632)">
<path d="M33 68C33 58.0589 41.0589 50 51 50C60.9411 50 69 58.0589 69 68V78C69 86.2843 62.2843 93 54 93H48C39.7157 93 33 86.2843 33 78V68Z" fill="#F6E4D1"/>
<path d="M41 61C41 58.2386 43.2386 56 46 56H56C58.7614 56 61 58.2386 61 61V68.5C61 72.6421 57.6421 76 53.5 76H48.5C44.3579 76 41 72.6421 41 68.5V61Z" fill="#222222"/>
<circle cx="46.5" cy="63.5" r="2.5" fill="black"/>
<circle cx="55.5" cy="63.5" r="2.5" fill="black"/>
<path d="M8.05691 94.25L50 78.2675L91.9431 94.25H8.05691Z" stroke="black" stroke-width="0.5"/>
</g>
</g>
<path d="M27 18C27 9.71573 33.7157 3 42 3H57C65.2843 3 72 9.71573 72 18C72 20.7614 69.7614 23 67 23H32C29.2386 23 27 20.7614 27 18Z" fill="url(#paint0_angular_14_632)"/>
<rect x="27" y="19" width="45" height="20" fill="url(#paint1_linear_14_632)"/>
<path d="M50.5735 21.0558C50.8929 21.1679 51.1654 21.4413 51.3313 21.816C51.4972 22.1907 51.543 22.6362 51.4587 23.0551C51.3743 23.474 51.1668 23.832 50.8814 24.0508C50.596 24.2696 50.256 24.3313 49.936 24.2225C49.6159 24.1137 49.3418 23.8431 49.1737 23.4701C49.0055 23.0971 48.9571 22.6521 49.0389 22.2323C49.1207 21.8126 49.3261 21.4525 49.6102 21.2308C49.8943 21.009 50.2338 20.9438 50.5545 21.0493L50.25 22.6375L50.5735 21.0558Z" fill="url(#paint2_angular_14_632)"/>
<rect x="49.6906" y="24.0784" width="0.350361" height="0.884703" transform="rotate(20 49.6906 24.0784)" fill="#0066CC"/>
<defs>
<radialGradient id="paint0_angular_14_632" cx="0" cy="0" r="1" gradientUnits="userSpaceOnUse" gradientTransform="translate(49.5 13) rotate(90) scale(10 22.5)">
<stop offset="0.130208" stop-color="#CC9955"/>
<stop offset="0.5" stop-color="#FFFAF6"/>
<stop offset="0.895833" stop-color="#CC9955"/>
</radialGradient>
<linearGradient id="paint1_linear_14_632" x1="49.5" y1="19" x2="49.5" y2="39" gradientUnits="userSpaceOnUse">
<stop stop-color="#CC9955"/>
<stop offset="1" stop-color="#F0E4D1"/>
</linearGradient>
<radialGradient id="paint2_angular_14_632" cx="0" cy="0" r="1" gradientUnits="userSpaceOnUse" gradientTransform="translate(50.25 22.6375) rotate(90) scale(1.6375 1.25)">
<stop stop-color="#0066CC"/>
<stop offset="1" stop-color="#333333"/>
</radialGradient>
</defs>
</svg>
