<svg width="100" height="100" viewBox="0 0 100 100" fill="none" xmlns="http://www.w3.org/2000/svg">
<g clip-path="url(#clip0_14_268)">
<ellipse cx="51" cy="59.5" rx="40" ry="40.5" fill="#222222"/>
<mask id="mask0_14_268" style="mask-type:alpha" maskUnits="userSpaceOnUse" x="13" y="0" width="29" height="41">
<path d="M15.8511 1.80894C15.8924 0.921824 16.9834 0.524741 17.5853 1.17773L40.8357 26.4021C41.3196 26.927 41.1134 27.7753 40.4425 28.0195L15.595 37.0633C14.9241 37.3074 14.2208 36.7902 14.2541 36.077L15.8511 1.80894Z" fill="black"/>
<path d="M40.9945 25.943C41.3903 27.0305 41.431 28.2351 41.1143 29.4882C40.7976 30.7413 40.1297 32.0182 39.1487 33.2461C38.1677 34.474 36.8928 35.6288 35.3969 36.6446C33.9009 37.6603 32.2132 38.5172 30.43 39.1662C28.6468 39.8152 26.8032 40.2437 25.0043 40.4272C23.2054 40.6106 21.4865 40.5455 19.9457 40.2354C18.4049 39.9254 17.0725 39.3765 16.0244 38.6202C14.9764 37.8638 14.2332 36.9148 13.8374 35.8274L27.4159 30.8852L40.9945 25.943Z" fill="black"/>
</mask>
<g mask="url(#mask0_14_268)">
<rect x="-2.0116" y="4.70886" width="37.4" height="48.175" transform="rotate(-20 -2.0116 4.70886)" fill="url(#paint0_radial_14_268)"/>
</g>
<mask id="mask1_14_268" style="mask-type:alpha" maskUnits="userSpaceOnUse" x="58" y="0" width="29" height="41">
<path d="M82.4147 1.17773C83.0166 0.524735 84.1076 0.921814 84.1489 1.80893L85.7459 36.077C85.7791 36.7902 85.0759 37.3074 84.405 37.0633L59.5575 28.0195C58.8866 27.7753 58.6804 26.927 59.1642 26.4021L82.4147 1.17773Z" fill="black"/>
<path d="M86.1626 35.8274C85.7668 36.9148 85.0236 37.8638 83.9756 38.6202C82.9275 39.3765 81.595 39.9254 80.0543 40.2354C78.5135 40.5454 76.7946 40.6106 74.9957 40.4271C73.1968 40.2437 71.3531 39.8152 69.57 39.1662C67.7868 38.5172 66.0991 37.6603 64.6031 36.6445C63.1072 35.6288 61.8323 34.474 60.8513 33.2461C59.8703 32.0182 59.2024 30.7413 58.8857 29.4882C58.569 28.2351 58.6097 27.0304 59.0055 25.943L72.584 30.8852L86.1626 35.8274Z" fill="black"/>
</mask>
<g mask="url(#mask1_14_268)">
<rect x="66.8671" y="-8.0827" width="37.4" height="48.175" transform="rotate(20 66.8671 -8.0827)" fill="url(#paint1_radial_14_268)"/>
</g>
<mask id="mask2_14_268" style="mask-type:alpha" maskUnits="userSpaceOnUse" x="11" y="19" width="80" height="81">
<ellipse cx="51" cy="59.5" rx="40" ry="40.5" fill="#808080"/>
</mask>
<g mask="url(#mask2_14_268)">
<rect y="79" width="100" height="21" fill="#DD9952"/>
<circle cx="33" cy="52" r="6" fill="#F0F0F0"/>
<circle cx="33" cy="52" r="5" fill="#332211"/>
<circle cx="33" cy="52" r="2.5" fill="black"/>
<circle cx="69" cy="52" r="6" fill="#F0F0F0"/>
<circle cx="69" cy="52" r="5" fill="#332211"/>
<circle cx="69" cy="52" r="2.5" fill="black"/>
<path d="M25 84C25 72.9543 33.9543 64 45 64H57C68.0457 64 77 72.9543 77 84V101H25V84Z" fill="#F0AC66"/>
<path d="M41 72C41 69.2386 43.2386 67 46 67H56C58.7614 67 61 69.2386 61 72V79.5C61 83.6421 57.6421 87 53.5 87H48.5C44.3579 87 41 83.6421 41 79.5V72Z" fill="#4E4E4E"/>
<circle cx="46.5" cy="74.5" r="2.5" fill="black"/>
<circle cx="55.5" cy="74.5" r="2.5" fill="black"/>
<path d="M10.2656 105.5L51 93.261L91.7344 105.5H10.2656Z" stroke="black" stroke-width="0.5"/>
<rect x="3.2196" y="74.7049" width="12" height="18.66" transform="rotate(-45 3.2196 74.7049)" fill="#DD9952"/>
<rect x="3.2196" y="74.7049" width="12" height="18.66" transform="rotate(-45 3.2196 74.7049)" fill="#DD9952"/>
<rect x="90.19" y="66.22" width="12" height="18.66" transform="rotate(45 90.19 66.22)" fill="#DD9952"/>
<rect x="90.19" y="66.22" width="12" height="18.66" transform="rotate(45 90.19 66.22)" fill="#DD9952"/>
</g>
</g>
<defs>
<radialGradient id="paint0_radial_14_268" cx="0" cy="0" r="1" gradientUnits="userSpaceOnUse" gradientTransform="translate(16.6884 28.7964) rotate(90) scale(24.0875 18.7)">
<stop stop-color="#FFCCCC"/>
<stop offset="0.661458" stop-color="#222222"/>
</radialGradient>
<radialGradient id="paint1_radial_14_268" cx="0" cy="0" r="1" gradientUnits="userSpaceOnUse" gradientTransform="translate(85.5671 16.0048) rotate(90) scale(24.0875 18.7)">
<stop stop-color="#FFCCCC"/>
<stop offset="0.661458" stop-color="#222222"/>
</radialGradient>
<clipPath id="clip0_14_268">
<rect width="100" height="100" fill="white"/>
</clipPath>
</defs>
</svg>
