<svg width="100" height="100" viewBox="0 0 100 100" fill="none" xmlns="http://www.w3.org/2000/svg">
<g clip-path="url(#clip0_4_495)">
<ellipse cx="51" cy="59.5" rx="40" ry="40.5" fill="#FFCC99"/>
<mask id="mask0_4_495" style="mask-type:alpha" maskUnits="userSpaceOnUse" x="5" y="10" width="34" height="37">
<path d="M7.02149 46.4027C6.23256 46.8105 5.34319 46.0642 5.60775 45.2164L15.8274 12.4688C16.0401 11.7873 16.8779 11.5417 17.4248 12.0006L37.6807 28.9973C38.2276 29.4562 38.1313 30.3239 37.497 30.6517L7.02149 46.4027Z" fill="black"/>
<path d="M15.3505 12.5608C16.0944 11.6743 17.1173 11.0367 18.3608 10.6845C19.6044 10.3322 21.0442 10.2722 22.5981 10.5078C24.152 10.7434 25.7895 11.2701 27.4171 12.0578C29.0448 12.8454 30.6307 13.8786 32.0844 15.0984C33.538 16.3181 34.8309 17.7005 35.8893 19.1667C36.9476 20.6329 37.7506 22.1541 38.2525 23.6434C38.7544 25.1328 38.9453 26.5611 38.8143 27.847C38.6833 29.1328 38.233 30.2509 37.4892 31.1374L26.4198 21.8491L15.3505 12.5608Z" fill="black"/>
</mask>
<g mask="url(#mask0_4_495)">
<rect x="18.4642" y="60.4223" width="37.4" height="48.175" transform="rotate(-140 18.4642 60.4223)" fill="url(#paint0_radial_4_495)"/>
</g>
<mask id="mask1_4_495" style="mask-type:alpha" maskUnits="userSpaceOnUse" x="61" y="10" width="34" height="37">
<path d="M94.394 45.1418C94.6585 45.9895 93.7692 46.7358 92.9802 46.3281L62.5047 30.5771C61.8705 30.2493 61.7742 29.3816 62.3211 28.9227L82.5769 11.926C83.1238 11.4671 83.9616 11.7126 84.1743 12.3941L94.394 45.1418Z" fill="black"/>
<path d="M62.5126 31.0628C61.7687 30.1762 61.3184 29.0582 61.1874 27.7723C61.0565 26.4865 61.2474 25.0581 61.7492 23.5688C62.2511 22.0794 63.0541 20.5582 64.1125 19.0921C65.1708 17.6259 66.4637 16.2435 67.9173 15.0237C69.371 13.804 70.9569 12.7708 72.5846 11.9831C74.2122 11.1955 75.8498 10.6688 77.4037 10.4332C78.9575 10.1975 80.3974 10.2576 81.6409 10.6098C82.8844 10.9621 83.9074 11.5997 84.6512 12.4862L73.5819 21.7745L62.5126 31.0628Z" fill="black"/>
</mask>
<g mask="url(#mask1_4_495)">
<rect x="110.188" y="36.3074" width="37.4" height="48.175" transform="rotate(140 110.188 36.3074)" fill="url(#paint1_radial_4_495)"/>
</g>
<mask id="mask2_4_495" style="mask-type:alpha" maskUnits="userSpaceOnUse" x="11" y="19" width="80" height="81">
<ellipse cx="51" cy="59.5" rx="40" ry="40.5" fill="#808080"/>
</mask>
<g mask="url(#mask2_4_495)">
<circle cx="33" cy="52" r="6" fill="#F0F0F0"/>
<circle cx="33" cy="52" r="5" fill="#664022"/>
<circle cx="33" cy="52" r="2.5" fill="black"/>
<circle cx="69" cy="52" r="6" fill="#F0F0F0"/>
<circle cx="69" cy="52" r="5" fill="#664022"/>
<circle cx="69" cy="52" r="2.5" fill="black"/>
<path d="M33 85C33 75.0589 41.0589 67 51 67C60.9411 67 69 75.0589 69 85V101H33V85Z" fill="#F0F0F0"/>
<path d="M41 74C41 71.2386 43.2386 69 46 69H56C58.7614 69 61 71.2386 61 74V81.5C61 85.6421 57.6421 89 53.5 89H48.5C44.3579 89 41 85.6421 41 81.5V74Z" fill="#4E564E"/>
<circle cx="46.5" cy="77.5" r="2.5" fill="black"/>
<circle cx="55.5" cy="77.5" r="2.5" fill="black"/>
<path d="M26.6748 104.5L50.5 89.2966L74.3252 104.5H26.6748Z" stroke="black" stroke-width="0.5"/>
</g>
</g>
<defs>
<radialGradient id="paint0_radial_4_495" cx="0" cy="0" r="1" gradientUnits="userSpaceOnUse" gradientTransform="translate(37.1642 84.5098) rotate(90) scale(24.0875 18.7)">
<stop stop-color="#CC9980"/>
<stop offset="0.661458" stop-color="#FFCC99"/>
</radialGradient>
<radialGradient id="paint1_radial_4_495" cx="0" cy="0" r="1" gradientUnits="userSpaceOnUse" gradientTransform="translate(128.888 60.3949) rotate(90) scale(24.0875 18.7)">
<stop stop-color="#CC9980"/>
<stop offset="0.661458" stop-color="#FFCC99"/>
</radialGradient>
<clipPath id="clip0_4_495">
<rect width="100" height="100" fill="white"/>
</clipPath>
</defs>
</svg>
