<svg width="170" height="200" viewBox="0 0 170 200" fill="none" xmlns="http://www.w3.org/2000/svg">
<g opacity="0.9">
<path d="M164.99 114.189C165.607 131.568 138.146 177 119.318 177C100.49 177 75 132.522 75 115.134C79.0814 80.5014 118.668 81.1311 117.945 113.875C117.945 80.1867 163.816 81.1312 164.99 114.189Z" fill="#33804E"/>
<path d="M164.99 114.189C165.607 131.568 138.146 177 119.318 177C100.49 177 75 132.522 75 115.134C79.0814 80.5014 118.668 81.1311 117.945 113.875C117.945 80.1867 163.816 81.1312 164.99 114.189Z" fill="#33804E"/>
</g>
<mask id="mask0_206_37" style="mask-type:alpha" maskUnits="userSpaceOnUse" x="75" y="89" width="90" height="88">
<g opacity="0.9">
<path d="M164.99 114.189C165.607 131.568 138.146 177 119.318 177C100.49 177 75 132.522 75 115.134C79.0814 80.5014 118.668 81.1311 117.945 113.875C117.945 80.1867 163.816 81.1312 164.99 114.189Z" fill="#D12222"/>
<path d="M164.99 114.189C165.607 131.568 138.146 177 119.318 177C100.49 177 75 132.522 75 115.134C79.0814 80.5014 118.668 81.1311 117.945 113.875C117.945 80.1867 163.816 81.1312 164.99 114.189Z" fill="#D12222"/>
</g>
</mask>
<g mask="url(#mask0_206_37)">
<circle cx="120" cy="121" r="62.5" fill="url(#paint0_radial_206_37)" fill-opacity="0.6"/>
</g>
<rect width="11" height="40" transform="matrix(-1 0 0 1 83 29)" fill="#FFD1D1"/>
<rect width="1" height="40" transform="matrix(-1 0 0 1 84 26)" fill="#4E4E4E"/>
<rect width="12" height="23" transform="matrix(-1 0 0 1 70 59)" fill="#FFFFCC"/>
<rect width="2" height="19" transform="matrix(-1 0 0 1 72 53)" fill="#D1F0FF"/>
<rect width="4" height="8" transform="matrix(-1 0 0 1 63 74)" fill="#808080"/>
<path d="M105.566 111.334C107.6 111.334 109.398 111.649 110.959 112.279C112.52 112.895 113.745 113.826 114.633 115.072C115.535 116.318 115.986 117.872 115.986 119.734C115.986 121.84 115.428 123.523 114.311 124.783C113.208 126.029 111.618 126.824 109.541 127.168V127.318C112.09 127.619 114.06 128.457 115.449 129.832C116.839 131.207 117.533 133.219 117.533 135.869C117.533 137.889 117.104 139.615 116.244 141.047C115.385 142.465 114.16 143.546 112.57 144.291C110.995 145.036 109.118 145.408 106.941 145.408C105.395 145.408 104.027 145.279 102.838 145.021C101.663 144.764 100.611 144.398 99.6797 143.926V155.57H94.6094V121.432C94.6094 119.097 95.082 117.185 96.0273 115.695C96.987 114.206 98.2904 113.11 99.9375 112.408C101.599 111.692 103.475 111.334 105.566 111.334ZM105.438 115.373C104.392 115.373 103.425 115.566 102.537 115.953C101.663 116.34 100.969 117.006 100.453 117.951C99.9375 118.882 99.6797 120.178 99.6797 121.84V139.629C100.553 140.145 101.527 140.56 102.602 140.875C103.676 141.176 104.793 141.326 105.953 141.326C108.145 141.326 109.763 140.818 110.809 139.801C111.854 138.77 112.377 137.323 112.377 135.461C112.377 134.086 112.09 132.969 111.518 132.109C110.945 131.25 110.157 130.627 109.154 130.24C108.152 129.839 106.992 129.639 105.674 129.639H103.719V125.535H105.266C107.185 125.535 108.596 125.048 109.498 124.074C110.415 123.1 110.873 121.811 110.873 120.207C110.873 118.603 110.379 117.4 109.391 116.598C108.417 115.781 107.099 115.373 105.438 115.373ZM136.139 145H131.068V124.783C131.068 124.11 131.076 123.437 131.09 122.764C131.104 122.09 131.118 121.432 131.133 120.787C131.161 120.143 131.197 119.527 131.24 118.939C130.939 119.269 130.567 119.627 130.123 120.014C129.693 120.4 129.235 120.801 128.748 121.217L125.139 124.096L122.604 120.895L131.928 113.59H136.139V145Z" fill="white"/>
<path d="M48.86 174V166.86H50.97C51.7367 166.86 52.3267 166.997 52.74 167.27C53.16 167.537 53.37 167.983 53.37 168.61C53.37 169.057 53.2667 169.417 53.06 169.69C52.86 169.963 52.5833 170.137 52.23 170.21V170.26C52.4833 170.313 52.7067 170.407 52.9 170.54C53.1 170.667 53.2567 170.84 53.37 171.06C53.4833 171.28 53.54 171.567 53.54 171.92C53.54 172.353 53.4467 172.727 53.26 173.04C53.08 173.347 52.8167 173.583 52.47 173.75C52.13 173.917 51.7167 174 51.23 174H48.86ZM51.08 172.96C51.5267 172.96 51.8333 172.863 52 172.67C52.1733 172.47 52.26 172.203 52.26 171.87C52.26 171.643 52.22 171.453 52.14 171.3C52.0667 171.14 51.94 171.02 51.76 170.94C51.5867 170.853 51.3433 170.81 51.03 170.81H50.02V172.96H51.08ZM50.99 169.75C51.4033 169.75 51.6933 169.673 51.86 169.52C52.0333 169.367 52.12 169.13 52.12 168.81C52.12 168.483 52.0267 168.25 51.84 168.11C51.66 167.97 51.35 167.9 50.91 167.9H50.02V169.75H50.99ZM54.8561 174V166.86H59.2361V167.94H56.0661V169.75H59.0761V170.83H56.0661V172.92H59.2361V174H54.8561ZM62.3722 174V167.94H60.3522V166.86H65.6322V167.94H63.6122V174H62.3722ZM66.1283 174L68.2283 166.83H69.7383L71.8483 174H70.5983L69.2883 169.12C69.2616 168.993 69.2283 168.863 69.1883 168.73C69.1549 168.597 69.1216 168.457 69.0883 168.31C69.0549 168.163 69.0216 168.017 68.9883 167.87C68.9549 168.017 68.9216 168.163 68.8883 168.31C68.8549 168.457 68.8216 168.6 68.7883 168.74C68.7549 168.873 68.7183 169 68.6783 169.12L67.3483 174H66.1283ZM67.6183 172.07L67.9183 171.02H70.0583L70.2383 172.07H67.6183ZM80.3105 174L78.1405 166.86H79.4005L80.6005 171.25C80.6471 171.39 80.6938 171.56 80.7405 171.76C80.7871 171.953 80.8305 172.147 80.8705 172.34C80.9105 172.533 80.9438 172.707 80.9705 172.86H81.0405C81.0671 172.707 81.0971 172.533 81.1305 172.34C81.1705 172.147 81.2138 171.953 81.2605 171.76C81.3071 171.56 81.3471 171.387 81.3805 171.24L82.5405 166.86H83.8205L81.6705 174H80.3105ZM84.8366 174V166.86H89.2166V167.94H86.0466V169.75H89.0566V170.83H86.0466V172.92H89.2166V174H84.8366ZM90.8327 174V166.86H92.6527C93.2127 166.86 93.6827 166.943 94.0627 167.11C94.4427 167.27 94.7293 167.507 94.9227 167.82C95.116 168.127 95.2127 168.503 95.2127 168.95C95.2127 169.29 95.1593 169.59 95.0527 169.85C94.946 170.103 94.796 170.317 94.6027 170.49C94.416 170.663 94.1993 170.807 93.9527 170.92L95.7627 174H94.4227L92.8527 171.22H92.0727V174H90.8327ZM92.6227 170.16C92.9293 170.16 93.1793 170.117 93.3727 170.03C93.566 169.943 93.7093 169.817 93.8027 169.65C93.9027 169.477 93.9527 169.26 93.9527 169C93.9527 168.6 93.8393 168.32 93.6127 168.16C93.3927 168 93.0527 167.92 92.5927 167.92H92.0727V170.16H92.6227ZM98.7388 174.1C98.3721 174.1 98.0121 174.067 97.6588 174C97.3054 173.927 96.9954 173.823 96.7288 173.69V172.56C97.0488 172.713 97.3821 172.837 97.7288 172.93C98.0821 173.017 98.4321 173.06 98.7788 173.06C99.0521 173.06 99.2854 173.027 99.4788 172.96C99.6788 172.893 99.8288 172.79 99.9288 172.65C100.035 172.503 100.089 172.317 100.089 172.09C100.089 171.87 100.035 171.697 99.9288 171.57C99.8221 171.443 99.6554 171.323 99.4288 171.21C99.2021 171.097 98.9121 170.953 98.5588 170.78C98.2654 170.633 97.9888 170.47 97.7288 170.29C97.4688 170.11 97.2588 169.89 97.0988 169.63C96.9454 169.37 96.8688 169.047 96.8688 168.66C96.8688 168.24 96.9654 167.89 97.1588 167.61C97.3521 167.33 97.6221 167.12 97.9688 166.98C98.3154 166.833 98.7221 166.76 99.1888 166.76C99.5021 166.76 99.8388 166.797 100.199 166.87C100.559 166.937 100.902 167.047 101.229 167.2L100.829 168.18C100.542 168.053 100.262 167.96 99.9888 167.9C99.7154 167.84 99.4621 167.81 99.2288 167.81C99.0021 167.81 98.8054 167.843 98.6388 167.91C98.4788 167.97 98.3554 168.067 98.2688 168.2C98.1821 168.333 98.1388 168.503 98.1388 168.71C98.1388 168.917 98.1854 169.087 98.2788 169.22C98.3788 169.347 98.5254 169.463 98.7188 169.57C98.9188 169.67 99.1688 169.793 99.4688 169.94C99.8621 170.12 100.199 170.3 100.479 170.48C100.759 170.653 100.975 170.86 101.129 171.1C101.282 171.34 101.359 171.653 101.359 172.04C101.359 172.38 101.299 172.677 101.179 172.93C101.059 173.183 100.885 173.4 100.659 173.58C100.432 173.753 100.159 173.883 99.8388 173.97C99.5188 174.057 99.1521 174.1 98.7388 174.1ZM102.945 174V173.14L104.345 172.99V167.87L102.945 167.72V166.86H106.985V167.72L105.555 167.87V172.99L106.985 173.14V174H102.945ZM110.961 174.1C110.501 174.1 110.104 174.017 109.771 173.85C109.438 173.677 109.164 173.43 108.951 173.11C108.738 172.79 108.578 172.403 108.471 171.95C108.371 171.497 108.321 170.987 108.321 170.42C108.321 169.667 108.414 169.013 108.601 168.46C108.788 167.907 109.074 167.483 109.461 167.19C109.854 166.89 110.354 166.74 110.961 166.74C111.421 166.74 111.818 166.827 112.151 167C112.484 167.167 112.758 167.41 112.971 167.73C113.184 168.05 113.341 168.437 113.441 168.89C113.548 169.343 113.601 169.853 113.601 170.42C113.601 170.987 113.548 171.497 113.441 171.95C113.341 172.403 113.184 172.79 112.971 173.11C112.758 173.43 112.481 173.677 112.141 173.85C111.808 174.017 111.414 174.1 110.961 174.1ZM110.961 173.02C111.294 173.02 111.561 172.92 111.761 172.72C111.961 172.52 112.108 172.227 112.201 171.84C112.294 171.453 112.341 170.977 112.341 170.41C112.341 169.577 112.234 168.937 112.021 168.49C111.814 168.043 111.464 167.82 110.971 167.82C110.638 167.82 110.368 167.92 110.161 168.12C109.961 168.32 109.814 168.613 109.721 169C109.628 169.387 109.581 169.86 109.581 170.42C109.581 170.98 109.628 171.453 109.721 171.84C109.814 172.227 109.961 172.52 110.161 172.72C110.368 172.92 110.634 173.02 110.961 173.02ZM114.497 174V166.86H116.177L118.327 172.69H118.357C118.344 172.47 118.33 172.26 118.317 172.06C118.31 171.853 118.304 171.66 118.297 171.48C118.29 171.3 118.284 171.13 118.277 170.97C118.277 170.803 118.277 170.653 118.277 170.52V166.86H119.417V174H117.767L115.557 168.04H115.517C115.53 168.26 115.544 168.477 115.557 168.69C115.577 168.897 115.59 169.097 115.597 169.29C115.61 169.483 115.62 169.663 115.627 169.83C115.634 169.997 115.637 170.147 115.637 170.28V174H114.497Z" fill="#222222"/>
<path d="M98.5707 39.8201C106.515 52.4364 110.569 68.4896 109.936 84.8233C109.302 101.157 104.027 116.589 95.1477 128.086C86.2682 139.583 74.4268 146.312 61.9518 146.95C49.4768 147.589 37.2708 142.09 27.7337 131.536C18.1967 120.982 12.0187 106.136 10.4145 89.9164C8.81029 73.6972 11.896 57.2786 19.0648 43.8889C26.2336 30.4992 36.9668 21.1072 49.1541 17.5596C61.3414 14.0119 74.1009 16.5654 84.9238 24.7178L60 81.5L98.5707 39.8201Z" fill="url(#paint1_radial_206_37)"/>
<rect x="37.6221" y="139.135" width="14.0144" height="35.3881" transform="rotate(20 37.6221 139.135)" fill="#0066CC"/>
<path d="M35.9258 42H32.8047V36.2891H35.9258V36.6523H33.207V38.8164H35.7734V39.1797H33.207V41.6367H35.9258V42ZM37.5273 42H37.1289V35.9219H37.5273V42ZM42.4609 39.8711C42.4609 40.1992 42.4206 40.4987 42.3398 40.7695C42.2591 41.0378 42.1393 41.2695 41.9805 41.4648C41.8216 41.6602 41.6237 41.8112 41.3867 41.918C41.1523 42.0247 40.8789 42.0781 40.5664 42.0781C40.2695 42.0781 40.0052 42.026 39.7734 41.9219C39.5417 41.8151 39.3451 41.6641 39.1836 41.4688C39.0247 41.2734 38.9036 41.0417 38.8203 40.7734C38.737 40.5026 38.6953 40.2018 38.6953 39.8711C38.6953 39.4154 38.7708 39.0234 38.9219 38.6953C39.0755 38.3646 39.2943 38.112 39.5781 37.9375C39.8646 37.7604 40.207 37.6719 40.6055 37.6719C41.0169 37.6719 41.3594 37.7656 41.6328 37.9531C41.9089 38.138 42.1159 38.3958 42.2539 38.7266C42.3919 39.0573 42.4609 39.4388 42.4609 39.8711ZM39.1016 39.8711C39.1016 40.2435 39.1549 40.569 39.2617 40.8477C39.3685 41.1263 39.5299 41.3438 39.7461 41.5C39.9648 41.6562 40.2409 41.7344 40.5742 41.7344C40.9154 41.7344 41.1953 41.6562 41.4141 41.5C41.6328 41.3438 41.7943 41.125 41.8984 40.8438C42.0026 40.5625 42.0547 40.2383 42.0547 39.8711C42.0547 39.5143 42.0052 39.1966 41.9062 38.918C41.8073 38.6393 41.651 38.4206 41.4375 38.2617C41.224 38.1003 40.9453 38.0195 40.6016 38.0195C40.1094 38.0195 39.7357 38.1836 39.4805 38.5117C39.2279 38.8398 39.1016 39.293 39.1016 39.8711ZM47.1562 39.8711C47.1562 40.1992 47.1159 40.4987 47.0352 40.7695C46.9544 41.0378 46.8346 41.2695 46.6758 41.4648C46.5169 41.6602 46.319 41.8112 46.082 41.918C45.8477 42.0247 45.5742 42.0781 45.2617 42.0781C44.9648 42.0781 44.7005 42.026 44.4688 41.9219C44.237 41.8151 44.0404 41.6641 43.8789 41.4688C43.7201 41.2734 43.599 41.0417 43.5156 40.7734C43.4323 40.5026 43.3906 40.2018 43.3906 39.8711C43.3906 39.4154 43.4661 39.0234 43.6172 38.6953C43.7708 38.3646 43.9896 38.112 44.2734 37.9375C44.5599 37.7604 44.9023 37.6719 45.3008 37.6719C45.7122 37.6719 46.0547 37.7656 46.3281 37.9531C46.6042 38.138 46.8112 38.3958 46.9492 38.7266C47.0872 39.0573 47.1562 39.4388 47.1562 39.8711ZM43.7969 39.8711C43.7969 40.2435 43.8503 40.569 43.957 40.8477C44.0638 41.1263 44.2253 41.3438 44.4414 41.5C44.6602 41.6562 44.9362 41.7344 45.2695 41.7344C45.6107 41.7344 45.8906 41.6562 46.1094 41.5C46.3281 41.3438 46.4896 41.125 46.5938 40.8438C46.6979 40.5625 46.75 40.2383 46.75 39.8711C46.75 39.5143 46.7005 39.1966 46.6016 38.918C46.5026 38.6393 46.3464 38.4206 46.1328 38.2617C45.9193 38.1003 45.6406 38.0195 45.2969 38.0195C44.8047 38.0195 44.431 38.1836 44.1758 38.5117C43.9232 38.8398 43.7969 39.293 43.7969 39.8711ZM48.7305 42H48.332V35.9219H48.7305V42ZM49.4414 37.7539H49.8594L50.8906 40.4492C50.9531 40.6081 51.0078 40.7552 51.0547 40.8906C51.1042 41.0234 51.1471 41.1458 51.1836 41.2578C51.2201 41.3672 51.25 41.4674 51.2734 41.5586H51.2969C51.3359 41.4388 51.388 41.2852 51.4531 41.0977C51.5182 40.9076 51.5924 40.6966 51.6758 40.4648L52.6953 37.7539H53.1172L51.1797 42.7969C51.0859 43.0417 50.9831 43.2487 50.8711 43.418C50.7591 43.5898 50.6276 43.7188 50.4766 43.8047C50.3255 43.8932 50.1432 43.9375 49.9297 43.9375C49.8333 43.9375 49.7461 43.9297 49.668 43.9141C49.5898 43.901 49.5143 43.8828 49.4414 43.8594V43.5195C49.5091 43.5404 49.5781 43.5573 49.6484 43.5703C49.7214 43.5859 49.8008 43.5938 49.8867 43.5938C50.0352 43.5938 50.1628 43.5625 50.2695 43.5C50.3789 43.4401 50.4766 43.3464 50.5625 43.2188C50.6484 43.0911 50.7292 42.9284 50.8047 42.7305L51.0938 41.9766L49.4414 37.7539Z" fill="white"/>
<path d="M46.5801 112.762C46.5801 110.893 47.0586 109.583 48.0156 108.831C48.9954 108.056 50.1803 107.669 51.5703 107.669C52.9603 107.669 54.1452 108.056 55.125 108.831C56.1276 109.583 56.6289 110.893 56.6289 112.762C56.6289 114.585 56.1276 115.906 55.125 116.727C54.1452 117.524 52.9603 117.923 51.5703 117.923C50.1803 117.923 48.9954 117.524 48.0156 116.727C47.0586 115.906 46.5801 114.585 46.5801 112.762ZM100.003 106.028H93.2354V117H85.3057V106.028H62.5762V99.9443L85.4082 66.8926H93.2354V99.3633H100.003V106.028ZM85.3057 99.3633V86.9561C85.3057 85.9307 85.3171 84.8939 85.3398 83.8457C85.3854 82.7747 85.431 81.7493 85.4766 80.7695C85.5221 79.7897 85.5677 78.8896 85.6133 78.0693C85.6589 77.2262 85.693 76.5312 85.7158 75.9844H85.4424C85.0094 76.8958 84.5309 77.8301 84.0068 78.7871C83.4827 79.7214 82.9245 80.6328 82.332 81.5215L70.0273 99.3633H85.3057Z" fill="white"/>
<path d="M41.7627 117H33.6963V84.8369C33.6963 83.766 33.7077 82.695 33.7305 81.624C33.7533 80.5531 33.776 79.5049 33.7988 78.4795C33.8444 77.4541 33.9014 76.4743 33.9697 75.54C33.4912 76.0641 32.8988 76.6338 32.1924 77.249C31.5088 77.8643 30.7796 78.5023 30.0049 79.1631L24.2627 83.7432L20.2295 78.6504L35.0635 67.0293H41.7627V117Z" fill="white"/>
<path d="M40.2773 136H37.2773V130.289H40.2773V131.258H38.4414V132.547H40.1484V133.52H38.4414V135.02H40.2773V136ZM45.9219 131.547C46.3672 131.547 46.7018 131.676 46.9258 131.934C47.1523 132.189 47.2656 132.591 47.2656 133.141V136H46.1328V133.441C46.1328 133.124 46.0859 132.887 45.9922 132.73C45.901 132.572 45.7591 132.492 45.5664 132.492C45.2956 132.492 45.1042 132.603 44.9922 132.824C44.8802 133.046 44.8242 133.371 44.8242 133.801V136H43.6914V133.434C43.6914 133.223 43.6706 133.048 43.6289 132.91C43.5898 132.77 43.5286 132.665 43.4453 132.598C43.3646 132.527 43.2591 132.492 43.1289 132.492C42.9362 132.492 42.7852 132.547 42.6758 132.656C42.569 132.766 42.4922 132.928 42.4453 133.145C42.401 133.358 42.3789 133.62 42.3789 133.93V136H41.25V131.629H42.125L42.2656 132.188H42.332C42.4076 132.042 42.5052 131.922 42.625 131.828C42.7448 131.734 42.8789 131.664 43.0273 131.617C43.1784 131.57 43.3359 131.547 43.5 131.547C43.7943 131.547 44.0378 131.603 44.2305 131.715C44.4232 131.824 44.5677 131.98 44.6641 132.184H44.7578C44.875 131.967 45.0365 131.807 45.2422 131.703C45.4479 131.599 45.6745 131.547 45.9219 131.547ZM52.0078 133.805C52.0078 134.146 51.9661 134.456 51.8828 134.734C51.7995 135.013 51.6758 135.253 51.5117 135.453C51.3477 135.654 51.1445 135.809 50.9023 135.918C50.6602 136.025 50.3802 136.078 50.0625 136.078C49.763 136.078 49.4948 136.025 49.2578 135.918C49.0208 135.811 48.819 135.658 48.6523 135.457C48.4857 135.257 48.3581 135.017 48.2695 134.738C48.181 134.46 48.1367 134.148 48.1367 133.805C48.1367 133.339 48.2109 132.938 48.3594 132.602C48.5104 132.263 48.7305 132.003 49.0195 131.82C49.3086 131.638 49.6628 131.547 50.082 131.547C50.4622 131.547 50.7969 131.634 51.0859 131.809C51.375 131.983 51.6003 132.238 51.7617 132.574C51.9258 132.91 52.0078 133.32 52.0078 133.805ZM49.2852 133.812C49.2852 134.104 49.3125 134.35 49.3672 134.551C49.4219 134.749 49.5065 134.898 49.6211 135C49.7383 135.102 49.8893 135.152 50.0742 135.152C50.2591 135.152 50.4076 135.103 50.5195 135.004C50.6341 134.902 50.7174 134.751 50.7695 134.551C50.8242 134.35 50.8516 134.102 50.8516 133.805C50.8516 133.508 50.8242 133.262 50.7695 133.066C50.7174 132.871 50.6341 132.724 50.5195 132.625C50.4049 132.526 50.2552 132.477 50.0703 132.477C49.7943 132.477 49.5938 132.587 49.4688 132.809C49.3464 133.027 49.2852 133.362 49.2852 133.812ZM52.6328 137.922C52.513 137.922 52.3906 137.913 52.2656 137.895C52.1406 137.879 52.0326 137.857 51.9414 137.828V136.906C52.0195 136.932 52.0951 136.951 52.168 136.961C52.2409 136.974 52.3203 136.98 52.4062 136.98C52.5521 136.98 52.6693 136.934 52.7578 136.84C52.849 136.746 52.8945 136.581 52.8945 136.344V131.629H54.0234V136.473C54.0234 136.764 53.974 137.018 53.875 137.234C53.7786 137.453 53.6276 137.621 53.4219 137.738C53.2188 137.858 52.9557 137.919 52.6328 137.922ZM52.8438 130.504C52.8438 130.29 52.8997 130.139 53.0117 130.051C53.1237 129.96 53.2734 129.914 53.4609 129.914C53.6458 129.914 53.7943 129.96 53.9062 130.051C54.0182 130.139 54.0742 130.29 54.0742 130.504C54.0742 130.712 54.0169 130.862 53.9023 130.953C53.7878 131.044 53.6406 131.09 53.4609 131.09C53.2786 131.09 53.1302 131.044 53.0156 130.953C52.901 130.862 52.8438 130.712 52.8438 130.504ZM56.2734 131.629V136H55.1445V131.629H56.2734ZM55.7109 129.914C55.8958 129.914 56.0443 129.96 56.1562 130.051C56.2682 130.139 56.3242 130.29 56.3242 130.504C56.3242 130.712 56.2669 130.862 56.1523 130.953C56.0378 131.044 55.8906 131.09 55.7109 131.09C55.5286 131.09 55.3802 131.044 55.2656 130.953C55.151 130.862 55.0938 130.712 55.0938 130.504C55.0938 130.29 55.1497 130.139 55.2617 130.051C55.3737 129.96 55.5234 129.914 55.7109 129.914ZM60.9648 130.289C61.6393 130.289 62.1341 130.444 62.4492 130.754C62.7669 131.064 62.9258 131.5 62.9258 132.062C62.9258 132.328 62.888 132.577 62.8125 132.809C62.7396 133.04 62.6224 133.243 62.4609 133.418C62.3021 133.59 62.0924 133.725 61.832 133.824C61.5742 133.923 61.2604 133.973 60.8906 133.973H60.457V136H59.293V130.289H60.9648ZM60.8945 131.258H60.457V133H60.7734C60.9792 133 61.1549 132.97 61.3008 132.91C61.4492 132.848 61.5625 132.75 61.6406 132.617C61.7188 132.482 61.7578 132.307 61.7578 132.094C61.7578 131.807 61.6875 131.596 61.5469 131.461C61.4062 131.326 61.1888 131.258 60.8945 131.258ZM66.0195 131.547C66.0794 131.547 66.1432 131.551 66.2109 131.559C66.2812 131.566 66.3464 131.578 66.4062 131.594L66.3125 132.707C66.2682 132.691 66.2122 132.68 66.1445 132.672C66.0794 132.664 66.0156 132.66 65.9531 132.66C65.8151 132.66 65.6836 132.682 65.5586 132.727C65.4336 132.771 65.3242 132.839 65.2305 132.93C65.1367 133.021 65.0625 133.137 65.0078 133.277C64.9557 133.418 64.9297 133.583 64.9297 133.773V136H63.8008V131.629H64.6602L64.8281 132.359H64.8828C64.9557 132.214 65.0482 132.079 65.1602 131.957C65.2721 131.835 65.401 131.736 65.5469 131.66C65.6927 131.585 65.8503 131.547 66.0195 131.547ZM70.7344 133.805C70.7344 134.146 70.6927 134.456 70.6094 134.734C70.526 135.013 70.4023 135.253 70.2383 135.453C70.0742 135.654 69.8711 135.809 69.6289 135.918C69.3867 136.025 69.1068 136.078 68.7891 136.078C68.4896 136.078 68.2214 136.025 67.9844 135.918C67.7474 135.811 67.5456 135.658 67.3789 135.457C67.2122 135.257 67.0846 135.017 66.9961 134.738C66.9076 134.46 66.8633 134.148 66.8633 133.805C66.8633 133.339 66.9375 132.938 67.0859 132.602C67.237 132.263 67.457 132.003 67.7461 131.82C68.0352 131.638 68.3893 131.547 68.8086 131.547C69.1888 131.547 69.5234 131.634 69.8125 131.809C70.1016 131.983 70.3268 132.238 70.4883 132.574C70.6523 132.91 70.7344 133.32 70.7344 133.805ZM68.0117 133.812C68.0117 134.104 68.0391 134.35 68.0938 134.551C68.1484 134.749 68.2331 134.898 68.3477 135C68.4648 135.102 68.6159 135.152 68.8008 135.152C68.9857 135.152 69.1341 135.103 69.2461 135.004C69.3607 134.902 69.444 134.751 69.4961 134.551C69.5508 134.35 69.5781 134.102 69.5781 133.805C69.5781 133.508 69.5508 133.262 69.4961 133.066C69.444 132.871 69.3607 132.724 69.2461 132.625C69.1315 132.526 68.9818 132.477 68.7969 132.477C68.5208 132.477 68.3203 132.587 68.1953 132.809C68.0729 133.027 68.0117 133.362 68.0117 133.812ZM71.3594 137.922C71.2396 137.922 71.1172 137.913 70.9922 137.895C70.8672 137.879 70.7591 137.857 70.668 137.828V136.906C70.7461 136.932 70.8216 136.951 70.8945 136.961C70.9674 136.974 71.0469 136.98 71.1328 136.98C71.2786 136.98 71.3958 136.934 71.4844 136.84C71.5755 136.746 71.6211 136.581 71.6211 136.344V131.629H72.75V136.473C72.75 136.764 72.7005 137.018 72.6016 137.234C72.5052 137.453 72.3542 137.621 72.1484 137.738C71.9453 137.858 71.6823 137.919 71.3594 137.922ZM71.5703 130.504C71.5703 130.29 71.6263 130.139 71.7383 130.051C71.8503 129.96 72 129.914 72.1875 129.914C72.3724 129.914 72.5208 129.96 72.6328 130.051C72.7448 130.139 72.8008 130.29 72.8008 130.504C72.8008 130.712 72.7435 130.862 72.6289 130.953C72.5143 131.044 72.3672 131.09 72.1875 131.09C72.0052 131.09 71.8568 131.044 71.7422 130.953C71.6276 130.862 71.5703 130.712 71.5703 130.504ZM75.5156 131.551C75.8906 131.551 76.2109 131.63 76.4766 131.789C76.7422 131.945 76.9453 132.171 77.0859 132.465C77.2292 132.759 77.3008 133.115 77.3008 133.531V134.113H74.7773C74.7878 134.467 74.8763 134.738 75.043 134.926C75.2096 135.113 75.4505 135.207 75.7656 135.207C76.0052 135.207 76.2279 135.181 76.4336 135.129C76.6393 135.074 76.8529 134.988 77.0742 134.871V135.773C76.8737 135.878 76.6628 135.954 76.4414 136.004C76.2227 136.053 75.9661 136.078 75.6719 136.078C75.25 136.078 74.8867 135.993 74.582 135.824C74.2799 135.655 74.0482 135.405 73.8867 135.074C73.7253 134.741 73.6445 134.331 73.6445 133.844C73.6445 133.341 73.7201 132.921 73.8711 132.582C74.0221 132.241 74.237 131.984 74.5156 131.812C74.7969 131.638 75.1302 131.551 75.5156 131.551ZM75.5312 132.387C75.3229 132.387 75.1523 132.462 75.0195 132.613C74.8893 132.764 74.8151 133.005 74.7969 133.336H76.2461C76.2435 133.148 76.2148 132.983 76.1602 132.84C76.1081 132.697 76.0299 132.586 75.9258 132.508C75.8216 132.427 75.6901 132.387 75.5312 132.387ZM79.8203 136.078C79.4141 136.078 79.0703 135.999 78.7891 135.84C78.5104 135.678 78.2995 135.432 78.1562 135.102C78.013 134.771 77.9414 134.349 77.9414 133.836C77.9414 133.339 78.0182 132.921 78.1719 132.582C78.3281 132.241 78.5521 131.983 78.8438 131.809C79.1354 131.634 79.4844 131.547 79.8906 131.547C80.1589 131.547 80.3932 131.574 80.5938 131.629C80.7943 131.684 80.974 131.754 81.1328 131.84L80.8086 132.727C80.6471 132.654 80.4948 132.596 80.3516 132.555C80.2083 132.51 80.0651 132.488 79.9219 132.488C79.7396 132.488 79.5859 132.539 79.4609 132.641C79.3385 132.74 79.2461 132.889 79.1836 133.09C79.1211 133.288 79.0898 133.535 79.0898 133.832C79.0898 134.126 79.1224 134.371 79.1875 134.566C79.2526 134.759 79.3477 134.904 79.4727 135C79.5977 135.094 79.7487 135.141 79.9258 135.141C80.1341 135.141 80.3255 135.111 80.5 135.051C80.6771 134.988 80.849 134.9 81.0156 134.785V135.754C80.8516 135.868 80.6745 135.951 80.4844 136C80.2969 136.052 80.0755 136.078 79.8203 136.078ZM83.6016 135.145C83.7083 135.145 83.8151 135.133 83.9219 135.109C84.0312 135.086 84.1393 135.055 84.2461 135.016V135.879C84.1237 135.939 83.9779 135.987 83.8086 136.023C83.6419 136.06 83.4609 136.078 83.2656 136.078C83.0104 136.078 82.7891 136.033 82.6016 135.941C82.4141 135.85 82.2695 135.702 82.168 135.496C82.069 135.288 82.0195 135.008 82.0195 134.656V132.512H81.5039V131.984L82.1055 131.637L82.4102 130.703H83.1484V131.629H84.1992V132.512H83.1484V134.641C83.1484 134.81 83.1875 134.936 83.2656 135.02C83.3464 135.103 83.4583 135.145 83.6016 135.145Z" fill="white"/>
<path d="M50 125.137C50 125.574 49.9518 125.973 49.8555 126.332C49.7591 126.691 49.6133 127.003 49.418 127.266C49.2253 127.526 48.9805 127.727 48.6836 127.867C48.3893 128.008 48.0417 128.078 47.6406 128.078C47.2318 128.078 46.8789 128.008 46.582 127.867C46.2852 127.724 46.0391 127.522 45.8438 127.262C45.651 126.999 45.5065 126.686 45.4102 126.324C45.3164 125.962 45.2695 125.564 45.2695 125.129C45.2695 124.52 45.3568 123.996 45.5312 123.559C45.7057 123.121 45.9688 122.785 46.3203 122.551C46.6719 122.316 47.1133 122.199 47.6445 122.199C48.1784 122.199 48.6185 122.322 48.9648 122.566C49.3138 122.811 49.5729 123.154 49.7422 123.594C49.9141 124.034 50 124.548 50 125.137ZM46.2188 125.137C46.2188 125.592 46.2695 125.982 46.3711 126.305C46.4753 126.625 46.6315 126.87 46.8398 127.039C47.0508 127.208 47.3164 127.293 47.6367 127.293C47.9622 127.293 48.2292 127.21 48.4375 127.043C48.6458 126.874 48.7995 126.629 48.8984 126.309C49 125.986 49.0508 125.595 49.0508 125.137C49.0508 124.447 48.9375 123.915 48.7109 123.543C48.4844 123.171 48.1289 122.984 47.6445 122.984C47.319 122.984 47.0508 123.069 46.8398 123.238C46.6289 123.405 46.4727 123.648 46.3711 123.969C46.2695 124.289 46.2188 124.678 46.2188 125.137ZM53.0625 123.594C53.5339 123.594 53.9062 123.783 54.1797 124.16C54.4531 124.538 54.5898 125.095 54.5898 125.832C54.5898 126.316 54.5273 126.725 54.4023 127.059C54.2773 127.392 54.1003 127.646 53.8711 127.82C53.6419 127.992 53.3724 128.078 53.0625 128.078C52.875 128.078 52.7083 128.051 52.5625 127.996C52.4167 127.941 52.2891 127.867 52.1797 127.773C52.0729 127.677 51.9818 127.568 51.9062 127.445H51.8633C51.8737 127.56 51.8828 127.677 51.8906 127.797C51.901 127.917 51.9062 128.025 51.9062 128.121V129.918H51.0234V123.672H51.7422L51.8633 124.273H51.9062C51.987 124.133 52.0807 124.012 52.1875 123.91C52.2943 123.809 52.4193 123.73 52.5625 123.676C52.7083 123.621 52.875 123.594 53.0625 123.594ZM52.8242 124.324C52.6081 124.324 52.4323 124.375 52.2969 124.477C52.1641 124.576 52.0664 124.727 52.0039 124.93C51.9414 125.133 51.9089 125.391 51.9062 125.703V125.863C51.9062 126.189 51.9362 126.461 51.9961 126.68C52.0586 126.898 52.1576 127.064 52.293 127.176C52.4284 127.285 52.6081 127.34 52.832 127.34C53.0247 127.34 53.1849 127.281 53.3125 127.164C53.4401 127.047 53.5352 126.876 53.5977 126.652C53.6602 126.426 53.6914 126.151 53.6914 125.828C53.6914 125.341 53.6211 124.969 53.4805 124.711C53.3398 124.453 53.1211 124.324 52.8242 124.324ZM57.1016 123.594C57.4583 123.594 57.7604 123.674 58.0078 123.836C58.2578 123.997 58.4479 124.224 58.5781 124.516C58.7083 124.807 58.7734 125.151 58.7734 125.547V126.043H56.2188C56.2266 126.478 56.3242 126.809 56.5117 127.035C56.6992 127.262 56.9701 127.375 57.3242 127.375C57.556 127.375 57.7695 127.349 57.9648 127.297C58.1602 127.245 58.3633 127.165 58.5742 127.059V127.789C58.3789 127.888 58.1784 127.961 57.9727 128.008C57.7669 128.055 57.5286 128.078 57.2578 128.078C56.8516 128.078 56.5039 127.992 56.2148 127.82C55.9284 127.646 55.7083 127.393 55.5547 127.062C55.4036 126.732 55.3281 126.333 55.3281 125.867C55.3281 125.38 55.3997 124.969 55.543 124.633C55.6862 124.294 55.8893 124.036 56.1523 123.859C56.418 123.682 56.7344 123.594 57.1016 123.594ZM57.1094 124.27C56.8542 124.27 56.6497 124.363 56.4961 124.551C56.3451 124.738 56.2565 125.022 56.2305 125.402H57.9297C57.9297 125.184 57.8997 124.99 57.8398 124.82C57.7799 124.648 57.6888 124.514 57.5664 124.418C57.4466 124.319 57.2943 124.27 57.1094 124.27ZM61.7656 123.594C62.2005 123.594 62.5365 123.72 62.7734 123.973C63.013 124.223 63.1328 124.613 63.1328 125.145V128H62.2539V125.332C62.2539 125.001 62.1966 124.753 62.082 124.586C61.9701 124.419 61.7904 124.336 61.543 124.336C61.1914 124.336 60.9453 124.46 60.8047 124.707C60.6641 124.954 60.5938 125.332 60.5938 125.84V128H59.7109V123.672H60.4023L60.5156 124.262H60.5664C60.6471 124.113 60.7474 123.991 60.8672 123.895C60.9896 123.796 61.1276 123.721 61.2812 123.672C61.4349 123.62 61.5964 123.594 61.7656 123.594ZM63.9492 126.242V125.457H65.9102V126.242H63.9492ZM69.8398 126.422C69.8398 126.758 69.7643 127.051 69.6133 127.301C69.4622 127.548 69.2461 127.74 68.9648 127.875C68.6862 128.01 68.3542 128.078 67.9688 128.078C67.7812 128.078 67.6016 128.068 67.4297 128.047C67.2604 128.026 67.0977 127.993 66.9414 127.949C66.7878 127.905 66.6445 127.85 66.5117 127.785V126.902C66.7279 127.009 66.9648 127.1 67.2227 127.176C67.4805 127.249 67.7357 127.285 67.9883 127.285C68.1992 127.285 68.375 127.251 68.5156 127.184C68.6562 127.116 68.7617 127.023 68.832 126.906C68.9023 126.786 68.9375 126.648 68.9375 126.492C68.9375 126.326 68.8997 126.185 68.8242 126.07C68.7513 125.956 68.6354 125.849 68.4766 125.75C68.3177 125.648 68.112 125.54 67.8594 125.426C67.6797 125.345 67.5117 125.255 67.3555 125.156C67.1992 125.057 67.0625 124.944 66.9453 124.816C66.8281 124.689 66.7357 124.539 66.668 124.367C66.6029 124.193 66.5703 123.988 66.5703 123.754C66.5677 123.434 66.638 123.159 66.7812 122.93C66.9245 122.698 67.1276 122.52 67.3906 122.395C67.6536 122.27 67.9609 122.207 68.3125 122.207C68.5807 122.207 68.8359 122.238 69.0781 122.301C69.3203 122.361 69.5534 122.444 69.7773 122.551L69.4961 123.312C69.2878 123.214 69.0859 123.138 68.8906 123.086C68.6953 123.031 68.5 123.004 68.3047 123.004C68.125 123.004 67.9727 123.034 67.8477 123.094C67.7253 123.154 67.6315 123.238 67.5664 123.348C67.5013 123.454 67.4688 123.581 67.4688 123.727C67.4688 123.893 67.5026 124.034 67.5703 124.148C67.6406 124.26 67.7526 124.365 67.9062 124.461C68.0599 124.555 68.263 124.659 68.5156 124.773C68.7995 124.906 69.0391 125.047 69.2344 125.195C69.4323 125.341 69.582 125.512 69.6836 125.707C69.7878 125.902 69.8398 126.141 69.8398 126.422ZM74.2148 125.828C74.2148 126.172 74.1745 126.482 74.0938 126.758C74.013 127.034 73.8945 127.271 73.7383 127.469C73.582 127.664 73.388 127.815 73.1562 127.922C72.9271 128.026 72.6628 128.078 72.3633 128.078C72.0794 128.078 71.8242 128.026 71.5977 127.922C71.3737 127.818 71.1823 127.668 71.0234 127.473C70.8646 127.275 70.7422 127.038 70.6562 126.762C70.5729 126.483 70.5312 126.172 70.5312 125.828C70.5312 125.359 70.6029 124.958 70.7461 124.625C70.8893 124.292 71.0977 124.036 71.3711 123.859C71.6471 123.682 71.9844 123.594 72.3828 123.594C72.75 123.594 73.0703 123.681 73.3438 123.855C73.6198 124.027 73.8333 124.28 73.9844 124.613C74.138 124.944 74.2148 125.349 74.2148 125.828ZM71.4297 125.832C71.4297 126.155 71.4622 126.43 71.5273 126.656C71.5951 126.883 71.6979 127.055 71.8359 127.172C71.9766 127.289 72.1562 127.348 72.375 127.348C72.5938 127.348 72.7721 127.289 72.9102 127.172C73.0482 127.055 73.1497 126.884 73.2148 126.66C73.2799 126.434 73.3125 126.156 73.3125 125.828C73.3125 125.503 73.2799 125.229 73.2148 125.008C73.1497 124.784 73.0482 124.615 72.9102 124.5C72.7721 124.385 72.5924 124.328 72.3711 124.328C72.043 124.328 71.8034 124.456 71.6523 124.711C71.5039 124.966 71.4297 125.34 71.4297 125.832ZM78.5625 123.672V128H77.8672L77.7578 127.418H77.707C77.6263 127.564 77.5247 127.686 77.4023 127.785C77.2826 127.882 77.1471 127.954 76.9961 128.004C76.8451 128.053 76.6823 128.078 76.5078 128.078C76.2109 128.078 75.9609 128.021 75.7578 127.906C75.5547 127.789 75.401 127.615 75.2969 127.383C75.1927 127.148 75.1406 126.855 75.1406 126.504V123.672H76.0234V126.316C76.0234 126.658 76.0794 126.914 76.1914 127.086C76.3034 127.255 76.4792 127.34 76.7188 127.34C76.9609 127.34 77.1523 127.284 77.293 127.172C77.4336 127.06 77.5326 126.895 77.5898 126.676C77.6497 126.457 77.6797 126.189 77.6797 125.871V123.672H78.5625ZM81.7188 123.594C81.7865 123.594 81.8568 123.598 81.9297 123.605C82.0052 123.613 82.0755 123.625 82.1406 123.641L82.0508 124.504C81.9987 124.486 81.9375 124.473 81.8672 124.465C81.7969 124.457 81.7292 124.453 81.6641 124.453C81.5182 124.453 81.3815 124.482 81.2539 124.539C81.1289 124.596 81.0182 124.681 80.9219 124.793C80.8255 124.905 80.75 125.042 80.6953 125.203C80.6432 125.365 80.6172 125.547 80.6172 125.75V128H79.7383V123.672H80.4219L80.543 124.426H80.5859C80.6615 124.272 80.7539 124.133 80.8633 124.008C80.9753 123.883 81.1029 123.783 81.2461 123.707C81.3893 123.632 81.5469 123.594 81.7188 123.594ZM84.4336 128.078C84.0534 128.078 83.7279 127.999 83.457 127.84C83.1862 127.678 82.9792 127.434 82.8359 127.105C82.6953 126.777 82.625 126.362 82.625 125.859C82.625 125.362 82.7005 124.945 82.8516 124.609C83.0026 124.273 83.2174 124.021 83.4961 123.852C83.7773 123.68 84.1094 123.594 84.4922 123.594C84.724 123.594 84.9323 123.617 85.1172 123.664C85.3047 123.711 85.4688 123.772 85.6094 123.848L85.3477 124.551C85.2096 124.488 85.069 124.438 84.9258 124.398C84.7852 124.359 84.6471 124.34 84.5117 124.34C84.2956 124.34 84.1133 124.397 83.9648 124.512C83.819 124.626 83.7096 124.796 83.6367 125.02C83.5638 125.243 83.5273 125.522 83.5273 125.855C83.5273 126.178 83.5638 126.451 83.6367 126.672C83.7096 126.891 83.8177 127.056 83.9609 127.168C84.1068 127.28 84.2865 127.336 84.5 127.336C84.6953 127.336 84.8763 127.31 85.043 127.258C85.2096 127.206 85.3685 127.135 85.5195 127.047V127.805C85.3711 127.898 85.2083 127.967 85.0312 128.012C84.8568 128.056 84.6576 128.078 84.4336 128.078ZM87.9688 123.594C88.3255 123.594 88.6276 123.674 88.875 123.836C89.125 123.997 89.3151 124.224 89.4453 124.516C89.5755 124.807 89.6406 125.151 89.6406 125.547V126.043H87.0859C87.0938 126.478 87.1914 126.809 87.3789 127.035C87.5664 127.262 87.8372 127.375 88.1914 127.375C88.4232 127.375 88.6367 127.349 88.832 127.297C89.0273 127.245 89.2305 127.165 89.4414 127.059V127.789C89.2461 127.888 89.0456 127.961 88.8398 128.008C88.6341 128.055 88.3958 128.078 88.125 128.078C87.7188 128.078 87.3711 127.992 87.082 127.82C86.7956 127.646 86.5755 127.393 86.4219 127.062C86.2708 126.732 86.1953 126.333 86.1953 125.867C86.1953 125.38 86.2669 124.969 86.4102 124.633C86.5534 124.294 86.7565 124.036 87.0195 123.859C87.2852 123.682 87.6016 123.594 87.9688 123.594ZM87.9766 124.27C87.7214 124.27 87.5169 124.363 87.3633 124.551C87.2122 124.738 87.1237 125.022 87.0977 125.402H88.7969C88.7969 125.184 88.7669 124.99 88.707 124.82C88.6471 124.648 88.556 124.514 88.4336 124.418C88.3138 124.319 88.1615 124.27 87.9766 124.27Z" fill="white"/>
<path d="M37.3633 128L36.6602 126.188H34.3711L33.6719 128H33L35.2344 122.266H35.832L38.0508 128H37.3633ZM36.4609 125.598L35.793 123.797C35.7773 123.75 35.7513 123.673 35.7148 123.566C35.681 123.46 35.6458 123.349 35.6094 123.234C35.5729 123.12 35.543 123.027 35.5195 122.957C35.4935 123.064 35.4648 123.171 35.4336 123.277C35.4049 123.382 35.3763 123.479 35.3477 123.57C35.319 123.659 35.2943 123.734 35.2734 123.797L34.5938 125.598H36.4609ZM40.7734 123.641C41.2812 123.641 41.6654 123.766 41.9258 124.016C42.1862 124.263 42.3164 124.661 42.3164 125.211V128H41.6758V125.254C41.6758 124.897 41.5938 124.63 41.4297 124.453C41.2682 124.276 41.0195 124.188 40.6836 124.188C40.2096 124.188 39.8763 124.322 39.6836 124.59C39.4909 124.858 39.3945 125.247 39.3945 125.758V128H38.7461V123.719H39.2695L39.3672 124.336H39.4023C39.4935 124.185 39.6094 124.059 39.75 123.957C39.8906 123.853 40.0482 123.775 40.2227 123.723C40.3971 123.668 40.5807 123.641 40.7734 123.641Z" fill="white"/>
<path d="M44.9258 51H41.8047V45.2891H44.9258V45.6523H42.207V47.8164H44.7734V48.1797H42.207V50.6367H44.9258V51ZM50.5078 46.6719C50.9167 46.6719 51.2396 46.7904 51.4766 47.0273C51.7135 47.2643 51.832 47.638 51.832 48.1484V51H51.4453V48.1641C51.4453 47.7708 51.3555 47.4818 51.1758 47.2969C50.9961 47.112 50.7591 47.0195 50.4648 47.0195C50.0612 47.0195 49.7448 47.138 49.5156 47.375C49.2891 47.6094 49.1758 47.9792 49.1758 48.4844V51H48.7852V48.1641C48.7852 47.901 48.7435 47.6862 48.6602 47.5195C48.5794 47.3503 48.4661 47.2253 48.3203 47.1445C48.1745 47.0612 48.0026 47.0195 47.8047 47.0195C47.5417 47.0195 47.3138 47.0742 47.1211 47.1836C46.9284 47.2904 46.7799 47.457 46.6758 47.6836C46.5716 47.9076 46.5195 48.1927 46.5195 48.5391V51H46.125V46.7539H46.4453L46.5039 47.4492H46.5273C46.5977 47.3112 46.6914 47.1836 46.8086 47.0664C46.9258 46.9492 47.0703 46.8542 47.2422 46.7812C47.4167 46.7083 47.6211 46.6719 47.8555 46.6719C48.1602 46.6719 48.418 46.7409 48.6289 46.8789C48.8424 47.0143 48.9909 47.2161 49.0742 47.4844H49.1016C49.2161 47.2292 49.3932 47.0299 49.6328 46.8867C49.875 46.7435 50.1667 46.6719 50.5078 46.6719ZM56.7188 48.8711C56.7188 49.1992 56.6784 49.4987 56.5977 49.7695C56.5169 50.0378 56.3971 50.2695 56.2383 50.4648C56.0794 50.6602 55.8815 50.8112 55.6445 50.918C55.4102 51.0247 55.1367 51.0781 54.8242 51.0781C54.5273 51.0781 54.263 51.026 54.0312 50.9219C53.7995 50.8151 53.6029 50.6641 53.4414 50.4688C53.2826 50.2734 53.1615 50.0417 53.0781 49.7734C52.9948 49.5026 52.9531 49.2018 52.9531 48.8711C52.9531 48.4154 53.0286 48.0234 53.1797 47.6953C53.3333 47.3646 53.5521 47.112 53.8359 46.9375C54.1224 46.7604 54.4648 46.6719 54.8633 46.6719C55.2747 46.6719 55.6172 46.7656 55.8906 46.9531C56.1667 47.138 56.3737 47.3958 56.5117 47.7266C56.6497 48.0573 56.7188 48.4388 56.7188 48.8711ZM53.3594 48.8711C53.3594 49.2435 53.4128 49.569 53.5195 49.8477C53.6263 50.1263 53.7878 50.3438 54.0039 50.5C54.2227 50.6562 54.4987 50.7344 54.832 50.7344C55.1732 50.7344 55.4531 50.6562 55.6719 50.5C55.8906 50.3438 56.0521 50.125 56.1562 49.8438C56.2604 49.5625 56.3125 49.2383 56.3125 48.8711C56.3125 48.5143 56.263 48.1966 56.1641 47.918C56.0651 47.6393 55.9089 47.4206 55.6953 47.2617C55.4818 47.1003 55.2031 47.0195 54.8594 47.0195C54.3672 47.0195 53.9935 47.1836 53.7383 47.5117C53.4857 47.8398 53.3594 48.293 53.3594 48.8711ZM57.3086 52.9219C57.194 52.9219 57.0924 52.9128 57.0039 52.8945C56.9154 52.8789 56.8385 52.8581 56.7734 52.832V52.4922C56.8542 52.5234 56.9362 52.5443 57.0195 52.5547C57.1003 52.5677 57.1862 52.5742 57.2773 52.5742C57.4753 52.5742 57.6263 52.513 57.7305 52.3906C57.8372 52.2682 57.8906 52.0807 57.8906 51.8281V46.7539H58.2852V51.8398C58.2852 52.0742 58.2448 52.2721 58.1641 52.4336C58.0859 52.5951 57.974 52.7161 57.8281 52.7969C57.6823 52.8802 57.5091 52.9219 57.3086 52.9219ZM57.8125 45.5078C57.8125 45.4089 57.8359 45.3307 57.8828 45.2734C57.9297 45.2135 58 45.1836 58.0938 45.1836C58.1927 45.1836 58.2656 45.2135 58.3125 45.2734C58.3594 45.3307 58.3828 45.4089 58.3828 45.5078C58.3828 45.6068 58.3594 45.6849 58.3125 45.7422C58.2656 45.7995 58.1927 45.8281 58.0938 45.8281C58 45.8281 57.9297 45.7995 57.8828 45.7422C57.8359 45.6849 57.8125 45.6068 57.8125 45.5078ZM60.0977 46.7539V51H59.7031V46.7539H60.0977ZM59.9062 45.1836C60.0052 45.1836 60.0781 45.2135 60.125 45.2734C60.1719 45.3307 60.1953 45.4089 60.1953 45.5078C60.1953 45.6068 60.1719 45.6849 60.125 45.7422C60.0781 45.7995 60.0052 45.8281 59.9062 45.8281C59.8125 45.8281 59.7422 45.7995 59.6953 45.7422C59.6484 45.6849 59.625 45.6068 59.625 45.5078C59.625 45.4089 59.6484 45.3307 59.6953 45.2734C59.7422 45.2135 59.8125 45.1836 59.9062 45.1836Z" fill="white"/>
<defs>
<radialGradient id="paint0_radial_206_37" cx="0" cy="0" r="1" gradientUnits="userSpaceOnUse" gradientTransform="translate(120 121) rotate(90) scale(62.5)">
<stop stop-color="white"/>
<stop offset="1" stop-color="#CCCCCC" stop-opacity="0"/>
</radialGradient>
<radialGradient id="paint1_radial_206_37" cx="0" cy="0" r="1" gradientUnits="userSpaceOnUse" gradientTransform="translate(60 81.5) rotate(90) scale(65.5 50)">
<stop stop-color="#333333"/>
<stop offset="1" stop-color="#0066CC"/>
</radialGradient>
</defs>
</svg>
