<svg width="200" height="200" viewBox="0 0 200 200" fill="none" xmlns="http://www.w3.org/2000/svg">
<path d="M112.941 21.2319C125.717 25.7165 136.616 36.65 143.252 51.6387C149.888 66.6274 151.72 84.4499 148.347 101.204C144.974 117.958 136.67 132.279 125.255 141.031C113.839 149.783 100.241 152.252 87.4387 147.899C74.6361 143.546 63.6718 132.725 56.9462 117.805C50.2207 102.885 48.282 85.0822 51.5546 68.2938C54.8272 51.5054 63.0445 37.0997 74.4073 28.2308C85.7701 19.3618 99.3525 16.7522 112.181 20.9734L100 84.5L112.941 21.2319Z" fill="url(#paint0_radial_4_421)"/>
<rect x="77.6221" y="142.135" width="14.0144" height="35.3881" transform="rotate(20 77.6221 142.135)" fill="#0066CC"/>
<path d="M75.9258 45H72.8047V39.2891H75.9258V39.6523H73.207V41.8164H75.7734V42.1797H73.207V44.6367H75.9258V45ZM77.5273 45H77.1289V38.9219H77.5273V45ZM82.4609 42.8711C82.4609 43.1992 82.4206 43.4987 82.3398 43.7695C82.2591 44.0378 82.1393 44.2695 81.9805 44.4648C81.8216 44.6602 81.6237 44.8112 81.3867 44.918C81.1523 45.0247 80.8789 45.0781 80.5664 45.0781C80.2695 45.0781 80.0052 45.026 79.7734 44.9219C79.5417 44.8151 79.3451 44.6641 79.1836 44.4688C79.0247 44.2734 78.9036 44.0417 78.8203 43.7734C78.737 43.5026 78.6953 43.2018 78.6953 42.8711C78.6953 42.4154 78.7708 42.0234 78.9219 41.6953C79.0755 41.3646 79.2943 41.112 79.5781 40.9375C79.8646 40.7604 80.207 40.6719 80.6055 40.6719C81.0169 40.6719 81.3594 40.7656 81.6328 40.9531C81.9089 41.138 82.1159 41.3958 82.2539 41.7266C82.3919 42.0573 82.4609 42.4388 82.4609 42.8711ZM79.1016 42.8711C79.1016 43.2435 79.1549 43.569 79.2617 43.8477C79.3685 44.1263 79.5299 44.3438 79.7461 44.5C79.9648 44.6562 80.2409 44.7344 80.5742 44.7344C80.9154 44.7344 81.1953 44.6562 81.4141 44.5C81.6328 44.3438 81.7943 44.125 81.8984 43.8438C82.0026 43.5625 82.0547 43.2383 82.0547 42.8711C82.0547 42.5143 82.0052 42.1966 81.9062 41.918C81.8073 41.6393 81.651 41.4206 81.4375 41.2617C81.224 41.1003 80.9453 41.0195 80.6016 41.0195C80.1094 41.0195 79.7357 41.1836 79.4805 41.5117C79.2279 41.8398 79.1016 42.293 79.1016 42.8711ZM87.1562 42.8711C87.1562 43.1992 87.1159 43.4987 87.0352 43.7695C86.9544 44.0378 86.8346 44.2695 86.6758 44.4648C86.5169 44.6602 86.319 44.8112 86.082 44.918C85.8477 45.0247 85.5742 45.0781 85.2617 45.0781C84.9648 45.0781 84.7005 45.026 84.4688 44.9219C84.237 44.8151 84.0404 44.6641 83.8789 44.4688C83.7201 44.2734 83.599 44.0417 83.5156 43.7734C83.4323 43.5026 83.3906 43.2018 83.3906 42.8711C83.3906 42.4154 83.4661 42.0234 83.6172 41.6953C83.7708 41.3646 83.9896 41.112 84.2734 40.9375C84.5599 40.7604 84.9023 40.6719 85.3008 40.6719C85.7122 40.6719 86.0547 40.7656 86.3281 40.9531C86.6042 41.138 86.8112 41.3958 86.9492 41.7266C87.0872 42.0573 87.1562 42.4388 87.1562 42.8711ZM83.7969 42.8711C83.7969 43.2435 83.8503 43.569 83.957 43.8477C84.0638 44.1263 84.2253 44.3438 84.4414 44.5C84.6602 44.6562 84.9362 44.7344 85.2695 44.7344C85.6107 44.7344 85.8906 44.6562 86.1094 44.5C86.3281 44.3438 86.4896 44.125 86.5938 43.8438C86.6979 43.5625 86.75 43.2383 86.75 42.8711C86.75 42.5143 86.7005 42.1966 86.6016 41.918C86.5026 41.6393 86.3464 41.4206 86.1328 41.2617C85.9193 41.1003 85.6406 41.0195 85.2969 41.0195C84.8047 41.0195 84.431 41.1836 84.1758 41.5117C83.9232 41.8398 83.7969 42.293 83.7969 42.8711ZM88.7305 45H88.332V38.9219H88.7305V45ZM89.4414 40.7539H89.8594L90.8906 43.4492C90.9531 43.6081 91.0078 43.7552 91.0547 43.8906C91.1042 44.0234 91.1471 44.1458 91.1836 44.2578C91.2201 44.3672 91.25 44.4674 91.2734 44.5586H91.2969C91.3359 44.4388 91.388 44.2852 91.4531 44.0977C91.5182 43.9076 91.5924 43.6966 91.6758 43.4648L92.6953 40.7539H93.1172L91.1797 45.7969C91.0859 46.0417 90.9831 46.2487 90.8711 46.418C90.7591 46.5898 90.6276 46.7188 90.4766 46.8047C90.3255 46.8932 90.1432 46.9375 89.9297 46.9375C89.8333 46.9375 89.7461 46.9297 89.668 46.9141C89.5898 46.901 89.5143 46.8828 89.4414 46.8594V46.5195C89.5091 46.5404 89.5781 46.5573 89.6484 46.5703C89.7214 46.5859 89.8008 46.5938 89.8867 46.5938C90.0352 46.5938 90.1628 46.5625 90.2695 46.5C90.3789 46.4401 90.4766 46.3464 90.5625 46.2188C90.6484 46.0911 90.7292 45.9284 90.8047 45.7305L91.0938 44.9766L89.4414 40.7539Z" fill="white"/>
<path d="M86.5801 115.762C86.5801 113.893 87.0586 112.583 88.0156 111.831C88.9954 111.056 90.1803 110.669 91.5703 110.669C92.9603 110.669 94.1452 111.056 95.125 111.831C96.1276 112.583 96.6289 113.893 96.6289 115.762C96.6289 117.585 96.1276 118.906 95.125 119.727C94.1452 120.524 92.9603 120.923 91.5703 120.923C90.1803 120.923 88.9954 120.524 88.0156 119.727C87.0586 118.906 86.5801 117.585 86.5801 115.762ZM136.277 81.4453C136.277 83.7012 135.822 85.6608 134.91 87.3242C133.999 88.9876 132.745 90.3548 131.15 91.4258C129.578 92.474 127.755 93.2259 125.682 93.6816V93.9209C129.669 94.4222 132.677 95.6755 134.705 97.6807C136.756 99.6859 137.781 102.34 137.781 105.645C137.781 108.538 137.086 111.125 135.696 113.403C134.306 115.659 132.176 117.437 129.305 118.735C126.434 120.034 122.742 120.684 118.23 120.684C115.519 120.684 113.001 120.467 110.677 120.034C108.375 119.601 106.188 118.906 104.114 117.949V110.806C106.233 111.854 108.489 112.663 110.882 113.232C113.274 113.802 115.542 114.087 117.684 114.087C121.854 114.087 124.827 113.312 126.604 111.763C128.382 110.19 129.271 108.026 129.271 105.269C129.271 103.491 128.803 102.033 127.869 100.894C126.958 99.7542 125.534 98.8997 123.597 98.3301C121.683 97.7604 119.21 97.4756 116.18 97.4756H111.771V91.0156H116.214C119.108 91.0156 121.432 90.6738 123.187 89.9902C124.941 89.2839 126.206 88.3154 126.98 87.085C127.778 85.8545 128.177 84.4189 128.177 82.7783C128.177 80.6364 127.482 78.973 126.092 77.7881C124.702 76.5804 122.64 75.9766 119.905 75.9766C118.219 75.9766 116.681 76.1702 115.291 76.5576C113.924 76.945 112.659 77.4349 111.497 78.0273C110.335 78.6198 109.23 79.2578 108.182 79.9414L104.319 74.3701C106.211 72.9574 108.466 71.7611 111.087 70.7812C113.707 69.8014 116.761 69.3115 120.247 69.3115C125.374 69.3115 129.327 70.4167 132.107 72.627C134.887 74.8145 136.277 77.7539 136.277 81.4453Z" fill="white"/>
<path d="M81.7627 120H73.6963V87.8369C73.6963 86.766 73.7077 85.695 73.7305 84.624C73.7533 83.5531 73.776 82.5049 73.7988 81.4795C73.8444 80.4541 73.9014 79.4743 73.9697 78.54C73.4912 79.0641 72.8988 79.6338 72.1924 80.249C71.5088 80.8643 70.7796 81.5023 70.0049 82.1631L64.2627 86.7432L60.2295 81.6504L75.0635 70.0293H81.7627V120Z" fill="white"/>
<path d="M80.2773 139H77.2773V133.289H80.2773V134.258H78.4414V135.547H80.1484V136.52H78.4414V138.02H80.2773V139ZM85.9219 134.547C86.3672 134.547 86.7018 134.676 86.9258 134.934C87.1523 135.189 87.2656 135.591 87.2656 136.141V139H86.1328V136.441C86.1328 136.124 86.0859 135.887 85.9922 135.73C85.901 135.572 85.7591 135.492 85.5664 135.492C85.2956 135.492 85.1042 135.603 84.9922 135.824C84.8802 136.046 84.8242 136.371 84.8242 136.801V139H83.6914V136.434C83.6914 136.223 83.6706 136.048 83.6289 135.91C83.5898 135.77 83.5286 135.665 83.4453 135.598C83.3646 135.527 83.2591 135.492 83.1289 135.492C82.9362 135.492 82.7852 135.547 82.6758 135.656C82.569 135.766 82.4922 135.928 82.4453 136.145C82.401 136.358 82.3789 136.62 82.3789 136.93V139H81.25V134.629H82.125L82.2656 135.188H82.332C82.4076 135.042 82.5052 134.922 82.625 134.828C82.7448 134.734 82.8789 134.664 83.0273 134.617C83.1784 134.57 83.3359 134.547 83.5 134.547C83.7943 134.547 84.0378 134.603 84.2305 134.715C84.4232 134.824 84.5677 134.98 84.6641 135.184H84.7578C84.875 134.967 85.0365 134.807 85.2422 134.703C85.4479 134.599 85.6745 134.547 85.9219 134.547ZM92.0078 136.805C92.0078 137.146 91.9661 137.456 91.8828 137.734C91.7995 138.013 91.6758 138.253 91.5117 138.453C91.3477 138.654 91.1445 138.809 90.9023 138.918C90.6602 139.025 90.3802 139.078 90.0625 139.078C89.763 139.078 89.4948 139.025 89.2578 138.918C89.0208 138.811 88.819 138.658 88.6523 138.457C88.4857 138.257 88.3581 138.017 88.2695 137.738C88.181 137.46 88.1367 137.148 88.1367 136.805C88.1367 136.339 88.2109 135.938 88.3594 135.602C88.5104 135.263 88.7305 135.003 89.0195 134.82C89.3086 134.638 89.6628 134.547 90.082 134.547C90.4622 134.547 90.7969 134.634 91.0859 134.809C91.375 134.983 91.6003 135.238 91.7617 135.574C91.9258 135.91 92.0078 136.32 92.0078 136.805ZM89.2852 136.812C89.2852 137.104 89.3125 137.35 89.3672 137.551C89.4219 137.749 89.5065 137.898 89.6211 138C89.7383 138.102 89.8893 138.152 90.0742 138.152C90.2591 138.152 90.4076 138.103 90.5195 138.004C90.6341 137.902 90.7174 137.751 90.7695 137.551C90.8242 137.35 90.8516 137.102 90.8516 136.805C90.8516 136.508 90.8242 136.262 90.7695 136.066C90.7174 135.871 90.6341 135.724 90.5195 135.625C90.4049 135.526 90.2552 135.477 90.0703 135.477C89.7943 135.477 89.5938 135.587 89.4688 135.809C89.3464 136.027 89.2852 136.362 89.2852 136.812ZM92.6328 140.922C92.513 140.922 92.3906 140.913 92.2656 140.895C92.1406 140.879 92.0326 140.857 91.9414 140.828V139.906C92.0195 139.932 92.0951 139.951 92.168 139.961C92.2409 139.974 92.3203 139.98 92.4062 139.98C92.5521 139.98 92.6693 139.934 92.7578 139.84C92.849 139.746 92.8945 139.581 92.8945 139.344V134.629H94.0234V139.473C94.0234 139.764 93.974 140.018 93.875 140.234C93.7786 140.453 93.6276 140.621 93.4219 140.738C93.2188 140.858 92.9557 140.919 92.6328 140.922ZM92.8438 133.504C92.8438 133.29 92.8997 133.139 93.0117 133.051C93.1237 132.96 93.2734 132.914 93.4609 132.914C93.6458 132.914 93.7943 132.96 93.9062 133.051C94.0182 133.139 94.0742 133.29 94.0742 133.504C94.0742 133.712 94.0169 133.862 93.9023 133.953C93.7878 134.044 93.6406 134.09 93.4609 134.09C93.2786 134.09 93.1302 134.044 93.0156 133.953C92.901 133.862 92.8438 133.712 92.8438 133.504ZM96.2734 134.629V139H95.1445V134.629H96.2734ZM95.7109 132.914C95.8958 132.914 96.0443 132.96 96.1562 133.051C96.2682 133.139 96.3242 133.29 96.3242 133.504C96.3242 133.712 96.2669 133.862 96.1523 133.953C96.0378 134.044 95.8906 134.09 95.7109 134.09C95.5286 134.09 95.3802 134.044 95.2656 133.953C95.151 133.862 95.0938 133.712 95.0938 133.504C95.0938 133.29 95.1497 133.139 95.2617 133.051C95.3737 132.96 95.5234 132.914 95.7109 132.914ZM100.965 133.289C101.639 133.289 102.134 133.444 102.449 133.754C102.767 134.064 102.926 134.5 102.926 135.062C102.926 135.328 102.888 135.577 102.812 135.809C102.74 136.04 102.622 136.243 102.461 136.418C102.302 136.59 102.092 136.725 101.832 136.824C101.574 136.923 101.26 136.973 100.891 136.973H100.457V139H99.293V133.289H100.965ZM100.895 134.258H100.457V136H100.773C100.979 136 101.155 135.97 101.301 135.91C101.449 135.848 101.562 135.75 101.641 135.617C101.719 135.482 101.758 135.307 101.758 135.094C101.758 134.807 101.688 134.596 101.547 134.461C101.406 134.326 101.189 134.258 100.895 134.258ZM106.02 134.547C106.079 134.547 106.143 134.551 106.211 134.559C106.281 134.566 106.346 134.578 106.406 134.594L106.312 135.707C106.268 135.691 106.212 135.68 106.145 135.672C106.079 135.664 106.016 135.66 105.953 135.66C105.815 135.66 105.684 135.682 105.559 135.727C105.434 135.771 105.324 135.839 105.23 135.93C105.137 136.021 105.062 136.137 105.008 136.277C104.956 136.418 104.93 136.583 104.93 136.773V139H103.801V134.629H104.66L104.828 135.359H104.883C104.956 135.214 105.048 135.079 105.16 134.957C105.272 134.835 105.401 134.736 105.547 134.66C105.693 134.585 105.85 134.547 106.02 134.547ZM110.734 136.805C110.734 137.146 110.693 137.456 110.609 137.734C110.526 138.013 110.402 138.253 110.238 138.453C110.074 138.654 109.871 138.809 109.629 138.918C109.387 139.025 109.107 139.078 108.789 139.078C108.49 139.078 108.221 139.025 107.984 138.918C107.747 138.811 107.546 138.658 107.379 138.457C107.212 138.257 107.085 138.017 106.996 137.738C106.908 137.46 106.863 137.148 106.863 136.805C106.863 136.339 106.938 135.938 107.086 135.602C107.237 135.263 107.457 135.003 107.746 134.82C108.035 134.638 108.389 134.547 108.809 134.547C109.189 134.547 109.523 134.634 109.812 134.809C110.102 134.983 110.327 135.238 110.488 135.574C110.652 135.91 110.734 136.32 110.734 136.805ZM108.012 136.812C108.012 137.104 108.039 137.35 108.094 137.551C108.148 137.749 108.233 137.898 108.348 138C108.465 138.102 108.616 138.152 108.801 138.152C108.986 138.152 109.134 138.103 109.246 138.004C109.361 137.902 109.444 137.751 109.496 137.551C109.551 137.35 109.578 137.102 109.578 136.805C109.578 136.508 109.551 136.262 109.496 136.066C109.444 135.871 109.361 135.724 109.246 135.625C109.132 135.526 108.982 135.477 108.797 135.477C108.521 135.477 108.32 135.587 108.195 135.809C108.073 136.027 108.012 136.362 108.012 136.812ZM111.359 140.922C111.24 140.922 111.117 140.913 110.992 140.895C110.867 140.879 110.759 140.857 110.668 140.828V139.906C110.746 139.932 110.822 139.951 110.895 139.961C110.967 139.974 111.047 139.98 111.133 139.98C111.279 139.98 111.396 139.934 111.484 139.84C111.576 139.746 111.621 139.581 111.621 139.344V134.629H112.75V139.473C112.75 139.764 112.701 140.018 112.602 140.234C112.505 140.453 112.354 140.621 112.148 140.738C111.945 140.858 111.682 140.919 111.359 140.922ZM111.57 133.504C111.57 133.29 111.626 133.139 111.738 133.051C111.85 132.96 112 132.914 112.188 132.914C112.372 132.914 112.521 132.96 112.633 133.051C112.745 133.139 112.801 133.29 112.801 133.504C112.801 133.712 112.743 133.862 112.629 133.953C112.514 134.044 112.367 134.09 112.188 134.09C112.005 134.09 111.857 134.044 111.742 133.953C111.628 133.862 111.57 133.712 111.57 133.504ZM115.516 134.551C115.891 134.551 116.211 134.63 116.477 134.789C116.742 134.945 116.945 135.171 117.086 135.465C117.229 135.759 117.301 136.115 117.301 136.531V137.113H114.777C114.788 137.467 114.876 137.738 115.043 137.926C115.21 138.113 115.451 138.207 115.766 138.207C116.005 138.207 116.228 138.181 116.434 138.129C116.639 138.074 116.853 137.988 117.074 137.871V138.773C116.874 138.878 116.663 138.954 116.441 139.004C116.223 139.053 115.966 139.078 115.672 139.078C115.25 139.078 114.887 138.993 114.582 138.824C114.28 138.655 114.048 138.405 113.887 138.074C113.725 137.741 113.645 137.331 113.645 136.844C113.645 136.341 113.72 135.921 113.871 135.582C114.022 135.241 114.237 134.984 114.516 134.812C114.797 134.638 115.13 134.551 115.516 134.551ZM115.531 135.387C115.323 135.387 115.152 135.462 115.02 135.613C114.889 135.764 114.815 136.005 114.797 136.336H116.246C116.243 136.148 116.215 135.983 116.16 135.84C116.108 135.697 116.03 135.586 115.926 135.508C115.822 135.427 115.69 135.387 115.531 135.387ZM119.82 139.078C119.414 139.078 119.07 138.999 118.789 138.84C118.51 138.678 118.299 138.432 118.156 138.102C118.013 137.771 117.941 137.349 117.941 136.836C117.941 136.339 118.018 135.921 118.172 135.582C118.328 135.241 118.552 134.983 118.844 134.809C119.135 134.634 119.484 134.547 119.891 134.547C120.159 134.547 120.393 134.574 120.594 134.629C120.794 134.684 120.974 134.754 121.133 134.84L120.809 135.727C120.647 135.654 120.495 135.596 120.352 135.555C120.208 135.51 120.065 135.488 119.922 135.488C119.74 135.488 119.586 135.539 119.461 135.641C119.339 135.74 119.246 135.889 119.184 136.09C119.121 136.288 119.09 136.535 119.09 136.832C119.09 137.126 119.122 137.371 119.188 137.566C119.253 137.759 119.348 137.904 119.473 138C119.598 138.094 119.749 138.141 119.926 138.141C120.134 138.141 120.326 138.111 120.5 138.051C120.677 137.988 120.849 137.9 121.016 137.785V138.754C120.852 138.868 120.674 138.951 120.484 139C120.297 139.052 120.076 139.078 119.82 139.078ZM123.602 138.145C123.708 138.145 123.815 138.133 123.922 138.109C124.031 138.086 124.139 138.055 124.246 138.016V138.879C124.124 138.939 123.978 138.987 123.809 139.023C123.642 139.06 123.461 139.078 123.266 139.078C123.01 139.078 122.789 139.033 122.602 138.941C122.414 138.85 122.27 138.702 122.168 138.496C122.069 138.288 122.02 138.008 122.02 137.656V135.512H121.504V134.984L122.105 134.637L122.41 133.703H123.148V134.629H124.199V135.512H123.148V137.641C123.148 137.81 123.188 137.936 123.266 138.02C123.346 138.103 123.458 138.145 123.602 138.145Z" fill="white"/>
<path d="M90 128.137C90 128.574 89.9518 128.973 89.8555 129.332C89.7591 129.691 89.6133 130.003 89.418 130.266C89.2253 130.526 88.9805 130.727 88.6836 130.867C88.3893 131.008 88.0417 131.078 87.6406 131.078C87.2318 131.078 86.8789 131.008 86.582 130.867C86.2852 130.724 86.0391 130.522 85.8438 130.262C85.651 129.999 85.5065 129.686 85.4102 129.324C85.3164 128.962 85.2695 128.564 85.2695 128.129C85.2695 127.52 85.3568 126.996 85.5312 126.559C85.7057 126.121 85.9688 125.785 86.3203 125.551C86.6719 125.316 87.1133 125.199 87.6445 125.199C88.1784 125.199 88.6185 125.322 88.9648 125.566C89.3138 125.811 89.5729 126.154 89.7422 126.594C89.9141 127.034 90 127.548 90 128.137ZM86.2188 128.137C86.2188 128.592 86.2695 128.982 86.3711 129.305C86.4753 129.625 86.6315 129.87 86.8398 130.039C87.0508 130.208 87.3164 130.293 87.6367 130.293C87.9622 130.293 88.2292 130.21 88.4375 130.043C88.6458 129.874 88.7995 129.629 88.8984 129.309C89 128.986 89.0508 128.595 89.0508 128.137C89.0508 127.447 88.9375 126.915 88.7109 126.543C88.4844 126.171 88.1289 125.984 87.6445 125.984C87.319 125.984 87.0508 126.069 86.8398 126.238C86.6289 126.405 86.4727 126.648 86.3711 126.969C86.2695 127.289 86.2188 127.678 86.2188 128.137ZM93.0625 126.594C93.5339 126.594 93.9062 126.783 94.1797 127.16C94.4531 127.538 94.5898 128.095 94.5898 128.832C94.5898 129.316 94.5273 129.725 94.4023 130.059C94.2773 130.392 94.1003 130.646 93.8711 130.82C93.6419 130.992 93.3724 131.078 93.0625 131.078C92.875 131.078 92.7083 131.051 92.5625 130.996C92.4167 130.941 92.2891 130.867 92.1797 130.773C92.0729 130.677 91.9818 130.568 91.9062 130.445H91.8633C91.8737 130.56 91.8828 130.677 91.8906 130.797C91.901 130.917 91.9062 131.025 91.9062 131.121V132.918H91.0234V126.672H91.7422L91.8633 127.273H91.9062C91.987 127.133 92.0807 127.012 92.1875 126.91C92.2943 126.809 92.4193 126.73 92.5625 126.676C92.7083 126.621 92.875 126.594 93.0625 126.594ZM92.8242 127.324C92.6081 127.324 92.4323 127.375 92.2969 127.477C92.1641 127.576 92.0664 127.727 92.0039 127.93C91.9414 128.133 91.9089 128.391 91.9062 128.703V128.863C91.9062 129.189 91.9362 129.461 91.9961 129.68C92.0586 129.898 92.1576 130.064 92.293 130.176C92.4284 130.285 92.6081 130.34 92.832 130.34C93.0247 130.34 93.1849 130.281 93.3125 130.164C93.4401 130.047 93.5352 129.876 93.5977 129.652C93.6602 129.426 93.6914 129.151 93.6914 128.828C93.6914 128.341 93.6211 127.969 93.4805 127.711C93.3398 127.453 93.1211 127.324 92.8242 127.324ZM97.1016 126.594C97.4583 126.594 97.7604 126.674 98.0078 126.836C98.2578 126.997 98.4479 127.224 98.5781 127.516C98.7083 127.807 98.7734 128.151 98.7734 128.547V129.043H96.2188C96.2266 129.478 96.3242 129.809 96.5117 130.035C96.6992 130.262 96.9701 130.375 97.3242 130.375C97.556 130.375 97.7695 130.349 97.9648 130.297C98.1602 130.245 98.3633 130.165 98.5742 130.059V130.789C98.3789 130.888 98.1784 130.961 97.9727 131.008C97.7669 131.055 97.5286 131.078 97.2578 131.078C96.8516 131.078 96.5039 130.992 96.2148 130.82C95.9284 130.646 95.7083 130.393 95.5547 130.062C95.4036 129.732 95.3281 129.333 95.3281 128.867C95.3281 128.38 95.3997 127.969 95.543 127.633C95.6862 127.294 95.8893 127.036 96.1523 126.859C96.418 126.682 96.7344 126.594 97.1016 126.594ZM97.1094 127.27C96.8542 127.27 96.6497 127.363 96.4961 127.551C96.3451 127.738 96.2565 128.022 96.2305 128.402H97.9297C97.9297 128.184 97.8997 127.99 97.8398 127.82C97.7799 127.648 97.6888 127.514 97.5664 127.418C97.4466 127.319 97.2943 127.27 97.1094 127.27ZM101.766 126.594C102.201 126.594 102.536 126.72 102.773 126.973C103.013 127.223 103.133 127.613 103.133 128.145V131H102.254V128.332C102.254 128.001 102.197 127.753 102.082 127.586C101.97 127.419 101.79 127.336 101.543 127.336C101.191 127.336 100.945 127.46 100.805 127.707C100.664 127.954 100.594 128.332 100.594 128.84V131H99.7109V126.672H100.402L100.516 127.262H100.566C100.647 127.113 100.747 126.991 100.867 126.895C100.99 126.796 101.128 126.721 101.281 126.672C101.435 126.62 101.596 126.594 101.766 126.594ZM103.949 129.242V128.457H105.91V129.242H103.949ZM109.84 129.422C109.84 129.758 109.764 130.051 109.613 130.301C109.462 130.548 109.246 130.74 108.965 130.875C108.686 131.01 108.354 131.078 107.969 131.078C107.781 131.078 107.602 131.068 107.43 131.047C107.26 131.026 107.098 130.993 106.941 130.949C106.788 130.905 106.645 130.85 106.512 130.785V129.902C106.728 130.009 106.965 130.1 107.223 130.176C107.48 130.249 107.736 130.285 107.988 130.285C108.199 130.285 108.375 130.251 108.516 130.184C108.656 130.116 108.762 130.023 108.832 129.906C108.902 129.786 108.938 129.648 108.938 129.492C108.938 129.326 108.9 129.185 108.824 129.07C108.751 128.956 108.635 128.849 108.477 128.75C108.318 128.648 108.112 128.54 107.859 128.426C107.68 128.345 107.512 128.255 107.355 128.156C107.199 128.057 107.062 127.944 106.945 127.816C106.828 127.689 106.736 127.539 106.668 127.367C106.603 127.193 106.57 126.988 106.57 126.754C106.568 126.434 106.638 126.159 106.781 125.93C106.924 125.698 107.128 125.52 107.391 125.395C107.654 125.27 107.961 125.207 108.312 125.207C108.581 125.207 108.836 125.238 109.078 125.301C109.32 125.361 109.553 125.444 109.777 125.551L109.496 126.312C109.288 126.214 109.086 126.138 108.891 126.086C108.695 126.031 108.5 126.004 108.305 126.004C108.125 126.004 107.973 126.034 107.848 126.094C107.725 126.154 107.632 126.238 107.566 126.348C107.501 126.454 107.469 126.581 107.469 126.727C107.469 126.893 107.503 127.034 107.57 127.148C107.641 127.26 107.753 127.365 107.906 127.461C108.06 127.555 108.263 127.659 108.516 127.773C108.799 127.906 109.039 128.047 109.234 128.195C109.432 128.341 109.582 128.512 109.684 128.707C109.788 128.902 109.84 129.141 109.84 129.422ZM114.215 128.828C114.215 129.172 114.174 129.482 114.094 129.758C114.013 130.034 113.895 130.271 113.738 130.469C113.582 130.664 113.388 130.815 113.156 130.922C112.927 131.026 112.663 131.078 112.363 131.078C112.079 131.078 111.824 131.026 111.598 130.922C111.374 130.818 111.182 130.668 111.023 130.473C110.865 130.275 110.742 130.038 110.656 129.762C110.573 129.483 110.531 129.172 110.531 128.828C110.531 128.359 110.603 127.958 110.746 127.625C110.889 127.292 111.098 127.036 111.371 126.859C111.647 126.682 111.984 126.594 112.383 126.594C112.75 126.594 113.07 126.681 113.344 126.855C113.62 127.027 113.833 127.28 113.984 127.613C114.138 127.944 114.215 128.349 114.215 128.828ZM111.43 128.832C111.43 129.155 111.462 129.43 111.527 129.656C111.595 129.883 111.698 130.055 111.836 130.172C111.977 130.289 112.156 130.348 112.375 130.348C112.594 130.348 112.772 130.289 112.91 130.172C113.048 130.055 113.15 129.884 113.215 129.66C113.28 129.434 113.312 129.156 113.312 128.828C113.312 128.503 113.28 128.229 113.215 128.008C113.15 127.784 113.048 127.615 112.91 127.5C112.772 127.385 112.592 127.328 112.371 127.328C112.043 127.328 111.803 127.456 111.652 127.711C111.504 127.966 111.43 128.34 111.43 128.832ZM118.562 126.672V131H117.867L117.758 130.418H117.707C117.626 130.564 117.525 130.686 117.402 130.785C117.283 130.882 117.147 130.954 116.996 131.004C116.845 131.053 116.682 131.078 116.508 131.078C116.211 131.078 115.961 131.021 115.758 130.906C115.555 130.789 115.401 130.615 115.297 130.383C115.193 130.148 115.141 129.855 115.141 129.504V126.672H116.023V129.316C116.023 129.658 116.079 129.914 116.191 130.086C116.303 130.255 116.479 130.34 116.719 130.34C116.961 130.34 117.152 130.284 117.293 130.172C117.434 130.06 117.533 129.895 117.59 129.676C117.65 129.457 117.68 129.189 117.68 128.871V126.672H118.562ZM121.719 126.594C121.786 126.594 121.857 126.598 121.93 126.605C122.005 126.613 122.076 126.625 122.141 126.641L122.051 127.504C121.999 127.486 121.938 127.473 121.867 127.465C121.797 127.457 121.729 127.453 121.664 127.453C121.518 127.453 121.382 127.482 121.254 127.539C121.129 127.596 121.018 127.681 120.922 127.793C120.826 127.905 120.75 128.042 120.695 128.203C120.643 128.365 120.617 128.547 120.617 128.75V131H119.738V126.672H120.422L120.543 127.426H120.586C120.661 127.272 120.754 127.133 120.863 127.008C120.975 126.883 121.103 126.783 121.246 126.707C121.389 126.632 121.547 126.594 121.719 126.594ZM124.434 131.078C124.053 131.078 123.728 130.999 123.457 130.84C123.186 130.678 122.979 130.434 122.836 130.105C122.695 129.777 122.625 129.362 122.625 128.859C122.625 128.362 122.701 127.945 122.852 127.609C123.003 127.273 123.217 127.021 123.496 126.852C123.777 126.68 124.109 126.594 124.492 126.594C124.724 126.594 124.932 126.617 125.117 126.664C125.305 126.711 125.469 126.772 125.609 126.848L125.348 127.551C125.21 127.488 125.069 127.438 124.926 127.398C124.785 127.359 124.647 127.34 124.512 127.34C124.296 127.34 124.113 127.397 123.965 127.512C123.819 127.626 123.71 127.796 123.637 128.02C123.564 128.243 123.527 128.522 123.527 128.855C123.527 129.178 123.564 129.451 123.637 129.672C123.71 129.891 123.818 130.056 123.961 130.168C124.107 130.28 124.286 130.336 124.5 130.336C124.695 130.336 124.876 130.31 125.043 130.258C125.21 130.206 125.368 130.135 125.52 130.047V130.805C125.371 130.898 125.208 130.967 125.031 131.012C124.857 131.056 124.658 131.078 124.434 131.078ZM127.969 126.594C128.326 126.594 128.628 126.674 128.875 126.836C129.125 126.997 129.315 127.224 129.445 127.516C129.576 127.807 129.641 128.151 129.641 128.547V129.043H127.086C127.094 129.478 127.191 129.809 127.379 130.035C127.566 130.262 127.837 130.375 128.191 130.375C128.423 130.375 128.637 130.349 128.832 130.297C129.027 130.245 129.23 130.165 129.441 130.059V130.789C129.246 130.888 129.046 130.961 128.84 131.008C128.634 131.055 128.396 131.078 128.125 131.078C127.719 131.078 127.371 130.992 127.082 130.82C126.796 130.646 126.576 130.393 126.422 130.062C126.271 129.732 126.195 129.333 126.195 128.867C126.195 128.38 126.267 127.969 126.41 127.633C126.553 127.294 126.757 127.036 127.02 126.859C127.285 126.682 127.602 126.594 127.969 126.594ZM127.977 127.27C127.721 127.27 127.517 127.363 127.363 127.551C127.212 127.738 127.124 128.022 127.098 128.402H128.797C128.797 128.184 128.767 127.99 128.707 127.82C128.647 127.648 128.556 127.514 128.434 127.418C128.314 127.319 128.161 127.27 127.977 127.27Z" fill="white"/>
<path d="M77.3633 131L76.6602 129.188H74.3711L73.6719 131H73L75.2344 125.266H75.832L78.0508 131H77.3633ZM76.4609 128.598L75.793 126.797C75.7773 126.75 75.7513 126.673 75.7148 126.566C75.681 126.46 75.6458 126.349 75.6094 126.234C75.5729 126.12 75.543 126.027 75.5195 125.957C75.4935 126.064 75.4648 126.171 75.4336 126.277C75.4049 126.382 75.3763 126.479 75.3477 126.57C75.319 126.659 75.2943 126.734 75.2734 126.797L74.5938 128.598H76.4609ZM80.7734 126.641C81.2812 126.641 81.6654 126.766 81.9258 127.016C82.1862 127.263 82.3164 127.661 82.3164 128.211V131H81.6758V128.254C81.6758 127.897 81.5938 127.63 81.4297 127.453C81.2682 127.276 81.0195 127.188 80.6836 127.188C80.2096 127.188 79.8763 127.322 79.6836 127.59C79.4909 127.858 79.3945 128.247 79.3945 128.758V131H78.7461V126.719H79.2695L79.3672 127.336H79.4023C79.4935 127.185 79.6094 127.059 79.75 126.957C79.8906 126.853 80.0482 126.775 80.2227 126.723C80.3971 126.668 80.5807 126.641 80.7734 126.641Z" fill="white"/>
<path d="M84.9258 54H81.8047V48.2891H84.9258V48.6523H82.207V50.8164H84.7734V51.1797H82.207V53.6367H84.9258V54ZM90.5078 49.6719C90.9167 49.6719 91.2396 49.7904 91.4766 50.0273C91.7135 50.2643 91.832 50.638 91.832 51.1484V54H91.4453V51.1641C91.4453 50.7708 91.3555 50.4818 91.1758 50.2969C90.9961 50.112 90.7591 50.0195 90.4648 50.0195C90.0612 50.0195 89.7448 50.138 89.5156 50.375C89.2891 50.6094 89.1758 50.9792 89.1758 51.4844V54H88.7852V51.1641C88.7852 50.901 88.7435 50.6862 88.6602 50.5195C88.5794 50.3503 88.4661 50.2253 88.3203 50.1445C88.1745 50.0612 88.0026 50.0195 87.8047 50.0195C87.5417 50.0195 87.3138 50.0742 87.1211 50.1836C86.9284 50.2904 86.7799 50.457 86.6758 50.6836C86.5716 50.9076 86.5195 51.1927 86.5195 51.5391V54H86.125V49.7539H86.4453L86.5039 50.4492H86.5273C86.5977 50.3112 86.6914 50.1836 86.8086 50.0664C86.9258 49.9492 87.0703 49.8542 87.2422 49.7812C87.4167 49.7083 87.6211 49.6719 87.8555 49.6719C88.1602 49.6719 88.418 49.7409 88.6289 49.8789C88.8424 50.0143 88.9909 50.2161 89.0742 50.4844H89.1016C89.2161 50.2292 89.3932 50.0299 89.6328 49.8867C89.875 49.7435 90.1667 49.6719 90.5078 49.6719ZM96.7188 51.8711C96.7188 52.1992 96.6784 52.4987 96.5977 52.7695C96.5169 53.0378 96.3971 53.2695 96.2383 53.4648C96.0794 53.6602 95.8815 53.8112 95.6445 53.918C95.4102 54.0247 95.1367 54.0781 94.8242 54.0781C94.5273 54.0781 94.263 54.026 94.0312 53.9219C93.7995 53.8151 93.6029 53.6641 93.4414 53.4688C93.2826 53.2734 93.1615 53.0417 93.0781 52.7734C92.9948 52.5026 92.9531 52.2018 92.9531 51.8711C92.9531 51.4154 93.0286 51.0234 93.1797 50.6953C93.3333 50.3646 93.5521 50.112 93.8359 49.9375C94.1224 49.7604 94.4648 49.6719 94.8633 49.6719C95.2747 49.6719 95.6172 49.7656 95.8906 49.9531C96.1667 50.138 96.3737 50.3958 96.5117 50.7266C96.6497 51.0573 96.7188 51.4388 96.7188 51.8711ZM93.3594 51.8711C93.3594 52.2435 93.4128 52.569 93.5195 52.8477C93.6263 53.1263 93.7878 53.3438 94.0039 53.5C94.2227 53.6562 94.4987 53.7344 94.832 53.7344C95.1732 53.7344 95.4531 53.6562 95.6719 53.5C95.8906 53.3438 96.0521 53.125 96.1562 52.8438C96.2604 52.5625 96.3125 52.2383 96.3125 51.8711C96.3125 51.5143 96.263 51.1966 96.1641 50.918C96.0651 50.6393 95.9089 50.4206 95.6953 50.2617C95.4818 50.1003 95.2031 50.0195 94.8594 50.0195C94.3672 50.0195 93.9935 50.1836 93.7383 50.5117C93.4857 50.8398 93.3594 51.293 93.3594 51.8711ZM97.3086 55.9219C97.194 55.9219 97.0924 55.9128 97.0039 55.8945C96.9154 55.8789 96.8385 55.8581 96.7734 55.832V55.4922C96.8542 55.5234 96.9362 55.5443 97.0195 55.5547C97.1003 55.5677 97.1862 55.5742 97.2773 55.5742C97.4753 55.5742 97.6263 55.513 97.7305 55.3906C97.8372 55.2682 97.8906 55.0807 97.8906 54.8281V49.7539H98.2852V54.8398C98.2852 55.0742 98.2448 55.2721 98.1641 55.4336C98.0859 55.5951 97.974 55.7161 97.8281 55.7969C97.6823 55.8802 97.5091 55.9219 97.3086 55.9219ZM97.8125 48.5078C97.8125 48.4089 97.8359 48.3307 97.8828 48.2734C97.9297 48.2135 98 48.1836 98.0938 48.1836C98.1927 48.1836 98.2656 48.2135 98.3125 48.2734C98.3594 48.3307 98.3828 48.4089 98.3828 48.5078C98.3828 48.6068 98.3594 48.6849 98.3125 48.7422C98.2656 48.7995 98.1927 48.8281 98.0938 48.8281C98 48.8281 97.9297 48.7995 97.8828 48.7422C97.8359 48.6849 97.8125 48.6068 97.8125 48.5078ZM100.098 49.7539V54H99.7031V49.7539H100.098ZM99.9062 48.1836C100.005 48.1836 100.078 48.2135 100.125 48.2734C100.172 48.3307 100.195 48.4089 100.195 48.5078C100.195 48.6068 100.172 48.6849 100.125 48.7422C100.078 48.7995 100.005 48.8281 99.9062 48.8281C99.8125 48.8281 99.7422 48.7995 99.6953 48.7422C99.6484 48.6849 99.625 48.6068 99.625 48.5078C99.625 48.4089 99.6484 48.3307 99.6953 48.2734C99.7422 48.2135 99.8125 48.1836 99.9062 48.1836Z" fill="white"/>
<defs>
<radialGradient id="paint0_radial_4_421" cx="0" cy="0" r="1" gradientUnits="userSpaceOnUse" gradientTransform="translate(100 84.5) rotate(90) scale(65.5 50)">
<stop stop-color="#333333"/>
<stop offset="1" stop-color="#0066CC"/>
</radialGradient>
</defs>
</svg>
