<svg width="100" height="100" viewBox="0 0 100 100" fill="none" xmlns="http://www.w3.org/2000/svg">
<rect x="17" width="10" height="100" fill="#FFCC99"/>
<rect x="27" width="70" height="100" fill="#996633"/>
<path d="M38.4766 12.4336L35.4824 21H33.9941L31 12.4336H32.4414L34.2461 17.8008C34.3008 17.957 34.3594 18.1465 34.4219 18.3691C34.4883 18.5918 34.5488 18.8164 34.6035 19.043C34.6621 19.2695 34.707 19.4707 34.7383 19.6465C34.7695 19.4707 34.8125 19.2695 34.8672 19.043C34.9258 18.8164 34.9863 18.5918 35.0488 18.3691C35.1113 18.1465 35.1699 17.9551 35.2246 17.7949L37.0352 12.4336H38.4766ZM45.2031 17.7422C45.2031 18.2812 45.1328 18.7598 44.9922 19.1777C44.8516 19.5957 44.6465 19.9492 44.377 20.2383C44.1074 20.5234 43.7832 20.7422 43.4043 20.8945C43.0254 21.043 42.5977 21.1172 42.1211 21.1172C41.6758 21.1172 41.2676 21.043 40.8965 20.8945C40.5254 20.7422 40.2031 20.5234 39.9297 20.2383C39.6602 19.9492 39.4512 19.5957 39.3027 19.1777C39.1543 18.7598 39.0801 18.2812 39.0801 17.7422C39.0801 17.0273 39.2031 16.4219 39.4492 15.9258C39.6992 15.4258 40.0547 15.0449 40.5156 14.7832C40.9766 14.5215 41.5254 14.3906 42.1621 14.3906C42.7598 14.3906 43.2871 14.5215 43.7441 14.7832C44.2012 15.0449 44.5586 15.4258 44.8164 15.9258C45.0742 16.4258 45.2031 17.0312 45.2031 17.7422ZM40.498 17.7422C40.498 18.2148 40.5547 18.6191 40.668 18.9551C40.7852 19.291 40.9648 19.5488 41.207 19.7285C41.4492 19.9043 41.7617 19.9922 42.1445 19.9922C42.5273 19.9922 42.8398 19.9043 43.082 19.7285C43.3242 19.5488 43.502 19.291 43.6152 18.9551C43.7285 18.6191 43.7852 18.2148 43.7852 17.7422C43.7852 17.2695 43.7285 16.8691 43.6152 16.541C43.502 16.209 43.3242 15.957 43.082 15.7852C42.8398 15.6094 42.5254 15.5215 42.1387 15.5215C41.5684 15.5215 41.1523 15.7129 40.8906 16.0957C40.6289 16.4785 40.498 17.0273 40.498 17.7422ZM48.168 21H46.7852V11.8828H48.168V21ZM55.791 14.5137V21H54.707L54.5195 20.127H54.4434C54.3066 20.3496 54.1328 20.5352 53.9219 20.6836C53.7109 20.8281 53.4766 20.9355 53.2188 21.0059C52.9609 21.0801 52.6895 21.1172 52.4043 21.1172C51.916 21.1172 51.498 21.0352 51.1504 20.8711C50.8066 20.7031 50.543 20.4453 50.3594 20.0977C50.1758 19.75 50.084 19.3008 50.084 18.75V14.5137H51.4668V18.4922C51.4668 18.9961 51.5684 19.373 51.7715 19.623C51.9785 19.873 52.2988 19.998 52.7324 19.998C53.1504 19.998 53.4824 19.9121 53.7285 19.7402C53.9746 19.5684 54.1484 19.3145 54.25 18.9785C54.3555 18.6426 54.4082 18.2305 54.4082 17.7422V14.5137H55.791ZM65.0957 14.3906C65.8223 14.3906 66.3691 14.5781 66.7363 14.9531C67.1074 15.3281 67.293 15.9297 67.293 16.7578V21H65.916V17.0039C65.916 16.5117 65.8203 16.1406 65.6289 15.8906C65.4375 15.6406 65.1465 15.5156 64.7559 15.5156C64.209 15.5156 63.8145 15.6914 63.5723 16.043C63.334 16.3906 63.2148 16.8965 63.2148 17.5605V21H61.8379V17.0039C61.8379 16.6758 61.7949 16.4023 61.709 16.1836C61.627 15.9609 61.5 15.7949 61.3281 15.6855C61.1562 15.5723 60.9395 15.5156 60.6777 15.5156C60.2988 15.5156 59.9961 15.6016 59.7695 15.7734C59.5469 15.9453 59.3867 16.1992 59.2891 16.5352C59.1914 16.8672 59.1426 17.2754 59.1426 17.7598V21H57.7656V14.5137H58.8379L59.0312 15.3867H59.1074C59.2402 15.1602 59.4043 14.9746 59.5996 14.8301C59.7988 14.6816 60.0195 14.5723 60.2617 14.502C60.5039 14.4277 60.7559 14.3906 61.0176 14.3906C61.502 14.3906 61.9102 14.4766 62.2422 14.6484C62.5742 14.8164 62.8223 15.0742 62.9863 15.4219H63.0918C63.2949 15.0703 63.5781 14.8105 63.9414 14.6426C64.3047 14.4746 64.6895 14.3906 65.0957 14.3906ZM71.7988 14.3906C72.377 14.3906 72.873 14.5098 73.2871 14.748C73.7012 14.9863 74.0195 15.3242 74.2422 15.7617C74.4648 16.1992 74.5762 16.7227 74.5762 17.332V18.0703H70.2461C70.2617 18.6992 70.4297 19.1836 70.75 19.5234C71.0742 19.8633 71.5273 20.0332 72.1094 20.0332C72.5234 20.0332 72.8945 19.9941 73.2227 19.916C73.5547 19.834 73.8965 19.7148 74.248 19.5586V20.6777C73.9238 20.8301 73.5938 20.9414 73.2578 21.0117C72.9219 21.082 72.5195 21.1172 72.0508 21.1172C71.4141 21.1172 70.8535 20.9941 70.3691 20.748C69.8887 20.498 69.5117 20.127 69.2383 19.6348C68.9688 19.1426 68.834 18.5312 68.834 17.8008C68.834 17.0742 68.957 16.457 69.2031 15.9492C69.4492 15.4414 69.7949 15.0547 70.2402 14.7891C70.6855 14.5234 71.2051 14.3906 71.7988 14.3906ZM71.7988 15.4277C71.3652 15.4277 71.0137 15.5684 70.7441 15.8496C70.4785 16.1309 70.3223 16.543 70.2754 17.0859H73.2285C73.2246 16.7617 73.1699 16.4746 73.0645 16.2246C72.9629 15.9746 72.8066 15.7793 72.5957 15.6387C72.3887 15.498 72.123 15.4277 71.7988 15.4277ZM82.8496 21H81.4668V15.4863C81.4668 15.3027 81.4688 15.1191 81.4727 14.9355C81.4766 14.752 81.4805 14.5723 81.4844 14.3965C81.4922 14.2207 81.502 14.0527 81.5137 13.8926C81.4316 13.9824 81.3301 14.0801 81.209 14.1855C81.0918 14.291 80.9668 14.4004 80.834 14.5137L79.8496 15.2988L79.1582 14.4258L81.7012 12.4336H82.8496V21ZM91.1406 14.3906C91.1406 14.7773 91.0625 15.1133 90.9062 15.3984C90.75 15.6836 90.5352 15.918 90.2617 16.1016C89.9922 16.2812 89.6797 16.4102 89.3242 16.4883V16.5293C90.0078 16.6152 90.5234 16.8301 90.8711 17.1738C91.2227 17.5176 91.3984 17.9727 91.3984 18.5391C91.3984 19.0352 91.2793 19.4785 91.041 19.8691C90.8027 20.2559 90.4375 20.5605 89.9453 20.7832C89.4531 21.0059 88.8203 21.1172 88.0469 21.1172C87.582 21.1172 87.1504 21.0801 86.752 21.0059C86.3574 20.9316 85.9824 20.8125 85.627 20.6484V19.4238C85.9902 19.6035 86.377 19.7422 86.7871 19.8398C87.1973 19.9375 87.5859 19.9863 87.9531 19.9863C88.668 19.9863 89.1777 19.8535 89.4824 19.5879C89.7871 19.3184 89.9395 18.9473 89.9395 18.4746C89.9395 18.1699 89.8594 17.9199 89.6992 17.7246C89.543 17.5293 89.2988 17.3828 88.9668 17.2852C88.6387 17.1875 88.2148 17.1387 87.6953 17.1387H86.9395V16.0312H87.7012C88.1973 16.0312 88.5957 15.9727 88.8965 15.8555C89.1973 15.7344 89.4141 15.5684 89.5469 15.3574C89.6836 15.1465 89.752 14.9004 89.752 14.6191C89.752 14.252 89.6328 13.9668 89.3945 13.7637C89.1562 13.5566 88.8027 13.4531 88.334 13.4531C88.0449 13.4531 87.7812 13.4863 87.543 13.5527C87.3086 13.6191 87.0918 13.7031 86.8926 13.8047C86.6934 13.9062 86.5039 14.0156 86.3242 14.1328L85.6621 13.1777C85.9863 12.9355 86.373 12.7305 86.8223 12.5625C87.2715 12.3945 87.7949 12.3105 88.3926 12.3105C89.2715 12.3105 89.9492 12.5 90.4258 12.8789C90.9023 13.2539 91.1406 13.7578 91.1406 14.3906Z" fill="white"/>
<path d="M53.9375 27.2891H55.6367C56.3737 27.2891 56.9297 27.3958 57.3047 27.6094C57.6797 27.8229 57.8672 28.1914 57.8672 28.7148C57.8672 28.9336 57.8281 29.1315 57.75 29.3086C57.6745 29.4831 57.5638 29.6276 57.418 29.7422C57.2721 29.8542 57.0924 29.9297 56.8789 29.9688V30.0078C57.1003 30.0469 57.2969 30.1159 57.4688 30.2148C57.6432 30.3138 57.7799 30.4557 57.8789 30.6406C57.9805 30.8255 58.0312 31.0651 58.0312 31.3594C58.0312 31.7083 57.9479 32.0052 57.7812 32.25C57.6172 32.4948 57.3815 32.681 57.0742 32.8086C56.7695 32.9362 56.4076 33 55.9883 33H53.9375V27.2891ZM54.875 29.6445H55.7734C56.1979 29.6445 56.4922 29.5755 56.6562 29.4375C56.8203 29.2995 56.9023 29.0977 56.9023 28.832C56.9023 28.5612 56.8047 28.3659 56.6094 28.2461C56.4167 28.1263 56.1094 28.0664 55.6875 28.0664H54.875V29.6445ZM54.875 30.4023V32.2148H55.8633C56.3008 32.2148 56.6081 32.1302 56.7852 31.9609C56.9622 31.7917 57.0508 31.5625 57.0508 31.2734C57.0508 31.0964 57.0104 30.9427 56.9297 30.8125C56.8516 30.6823 56.7227 30.582 56.543 30.5117C56.3633 30.4388 56.1211 30.4023 55.8164 30.4023H54.875ZM62.9453 30.8281C62.9453 31.1875 62.8984 31.5065 62.8047 31.7852C62.7109 32.0638 62.5742 32.2995 62.3945 32.4922C62.2148 32.6823 61.9987 32.8281 61.7461 32.9297C61.4935 33.0286 61.2083 33.0781 60.8906 33.0781C60.5938 33.0781 60.3216 33.0286 60.0742 32.9297C59.8268 32.8281 59.612 32.6823 59.4297 32.4922C59.25 32.2995 59.1107 32.0638 59.0117 31.7852C58.9128 31.5065 58.8633 31.1875 58.8633 30.8281C58.8633 30.3516 58.9453 29.9479 59.1094 29.6172C59.276 29.2839 59.513 29.0299 59.8203 28.8555C60.1276 28.681 60.4935 28.5938 60.918 28.5938C61.3164 28.5938 61.668 28.681 61.9727 28.8555C62.2773 29.0299 62.5156 29.2839 62.6875 29.6172C62.8594 29.9505 62.9453 30.3542 62.9453 30.8281ZM59.8086 30.8281C59.8086 31.1432 59.8464 31.4128 59.9219 31.6367C60 31.8607 60.1198 32.0326 60.2812 32.1523C60.4427 32.2695 60.651 32.3281 60.9062 32.3281C61.1615 32.3281 61.3698 32.2695 61.5312 32.1523C61.6927 32.0326 61.8112 31.8607 61.8867 31.6367C61.9622 31.4128 62 31.1432 62 30.8281C62 30.513 61.9622 30.2461 61.8867 30.0273C61.8112 29.806 61.6927 29.638 61.5312 29.5234C61.3698 29.4062 61.1602 29.3477 60.9023 29.3477C60.5221 29.3477 60.2448 29.4753 60.0703 29.7305C59.8958 29.9857 59.8086 30.3516 59.8086 30.8281ZM67.8281 30.8281C67.8281 31.1875 67.7812 31.5065 67.6875 31.7852C67.5938 32.0638 67.457 32.2995 67.2773 32.4922C67.0977 32.6823 66.8815 32.8281 66.6289 32.9297C66.3763 33.0286 66.0911 33.0781 65.7734 33.0781C65.4766 33.0781 65.2044 33.0286 64.957 32.9297C64.7096 32.8281 64.4948 32.6823 64.3125 32.4922C64.1328 32.2995 63.9935 32.0638 63.8945 31.7852C63.7956 31.5065 63.7461 31.1875 63.7461 30.8281C63.7461 30.3516 63.8281 29.9479 63.9922 29.6172C64.1589 29.2839 64.3958 29.0299 64.7031 28.8555C65.0104 28.681 65.3763 28.5938 65.8008 28.5938C66.1992 28.5938 66.5508 28.681 66.8555 28.8555C67.1602 29.0299 67.3984 29.2839 67.5703 29.6172C67.7422 29.9505 67.8281 30.3542 67.8281 30.8281ZM64.6914 30.8281C64.6914 31.1432 64.7292 31.4128 64.8047 31.6367C64.8828 31.8607 65.0026 32.0326 65.1641 32.1523C65.3255 32.2695 65.5339 32.3281 65.7891 32.3281C66.0443 32.3281 66.2526 32.2695 66.4141 32.1523C66.5755 32.0326 66.694 31.8607 66.7695 31.6367C66.8451 31.4128 66.8828 31.1432 66.8828 30.8281C66.8828 30.513 66.8451 30.2461 66.7695 30.0273C66.694 29.806 66.5755 29.638 66.4141 29.5234C66.2526 29.4062 66.043 29.3477 65.7852 29.3477C65.4049 29.3477 65.1276 29.4753 64.9531 29.7305C64.7786 29.9857 64.6914 30.3516 64.6914 30.8281ZM69.8008 26.9219V29.8594C69.8008 29.9922 69.7956 30.138 69.7852 30.2969C69.7747 30.4531 69.7643 30.6003 69.7539 30.7383H69.7734C69.8411 30.6471 69.9219 30.5404 70.0156 30.418C70.112 30.2956 70.2031 30.1888 70.2891 30.0977L71.6094 28.6758H72.6641L70.9336 30.5352L72.7773 33H71.6992L70.3164 31.1016L69.8008 31.543V33H68.8828V26.9219H69.8008Z" fill="white"/>
<path d="M46.75 38.2891H48.4492C49.1862 38.2891 49.7422 38.3958 50.1172 38.6094C50.4922 38.8229 50.6797 39.1914 50.6797 39.7148C50.6797 39.9336 50.6406 40.1315 50.5625 40.3086C50.487 40.4831 50.3763 40.6276 50.2305 40.7422C50.0846 40.8542 49.9049 40.9297 49.6914 40.9688V41.0078C49.9128 41.0469 50.1094 41.1159 50.2812 41.2148C50.4557 41.3138 50.5924 41.4557 50.6914 41.6406C50.793 41.8255 50.8438 42.0651 50.8438 42.3594C50.8438 42.7083 50.7604 43.0052 50.5938 43.25C50.4297 43.4948 50.194 43.681 49.8867 43.8086C49.582 43.9362 49.2201 44 48.8008 44H46.75V38.2891ZM47.6875 40.6445H48.5859C49.0104 40.6445 49.3047 40.5755 49.4688 40.4375C49.6328 40.2995 49.7148 40.0977 49.7148 39.832C49.7148 39.5612 49.6172 39.3659 49.4219 39.2461C49.2292 39.1263 48.9219 39.0664 48.5 39.0664H47.6875V40.6445ZM47.6875 41.4023V43.2148H48.6758C49.1133 43.2148 49.4206 43.1302 49.5977 42.9609C49.7747 42.7917 49.8633 42.5625 49.8633 42.2734C49.8633 42.0964 49.8229 41.9427 49.7422 41.8125C49.6641 41.6823 49.5352 41.582 49.3555 41.5117C49.1758 41.4388 48.9336 41.4023 48.6289 41.4023H47.6875ZM51.2773 39.6758H52.2773L53.1641 42.1445C53.2031 42.2565 53.2383 42.3672 53.2695 42.4766C53.3034 42.5833 53.332 42.6888 53.3555 42.793C53.3815 42.8971 53.4023 43.0013 53.418 43.1055H53.4414C53.4674 42.9701 53.5039 42.819 53.5508 42.6523C53.6003 42.4831 53.6549 42.3138 53.7148 42.1445L54.5664 39.6758H55.5547L53.6992 44.5938C53.5924 44.875 53.4609 45.1146 53.3047 45.3125C53.151 45.513 52.9688 45.6641 52.7578 45.7656C52.5469 45.8698 52.306 45.9219 52.0352 45.9219C51.9049 45.9219 51.7917 45.9141 51.6953 45.8984C51.599 45.8854 51.5169 45.8711 51.4492 45.8555V45.1211C51.5039 45.1341 51.5729 45.1458 51.6562 45.1562C51.7396 45.1667 51.8255 45.1719 51.9141 45.1719C52.0781 45.1719 52.2201 45.1393 52.3398 45.0742C52.4596 45.0091 52.5612 44.9167 52.6445 44.7969C52.7279 44.6797 52.7969 44.5456 52.8516 44.3945L53.0039 43.9883L51.2773 39.6758ZM61.6172 44H58.3828V38.2891H61.6172V39.0781H59.3203V40.6289H61.4727V41.4141H59.3203V43.207H61.6172V44ZM63.6797 44H62.7578V37.9219H63.6797V44ZM68.8203 41.8281C68.8203 42.1875 68.7734 42.5065 68.6797 42.7852C68.5859 43.0638 68.4492 43.2995 68.2695 43.4922C68.0898 43.6823 67.8737 43.8281 67.6211 43.9297C67.3685 44.0286 67.0833 44.0781 66.7656 44.0781C66.4688 44.0781 66.1966 44.0286 65.9492 43.9297C65.7018 43.8281 65.487 43.6823 65.3047 43.4922C65.125 43.2995 64.9857 43.0638 64.8867 42.7852C64.7878 42.5065 64.7383 42.1875 64.7383 41.8281C64.7383 41.3516 64.8203 40.9479 64.9844 40.6172C65.151 40.2839 65.388 40.0299 65.6953 39.8555C66.0026 39.681 66.3685 39.5938 66.793 39.5938C67.1914 39.5938 67.543 39.681 67.8477 39.8555C68.1523 40.0299 68.3906 40.2839 68.5625 40.6172C68.7344 40.9505 68.8203 41.3542 68.8203 41.8281ZM65.6836 41.8281C65.6836 42.1432 65.7214 42.4128 65.7969 42.6367C65.875 42.8607 65.9948 43.0326 66.1562 43.1523C66.3177 43.2695 66.526 43.3281 66.7812 43.3281C67.0365 43.3281 67.2448 43.2695 67.4062 43.1523C67.5677 43.0326 67.6862 42.8607 67.7617 42.6367C67.8372 42.4128 67.875 42.1432 67.875 41.8281C67.875 41.513 67.8372 41.2461 67.7617 41.0273C67.6862 40.806 67.5677 40.638 67.4062 40.5234C67.2448 40.4062 67.0352 40.3477 66.7773 40.3477C66.3971 40.3477 66.1198 40.4753 65.9453 40.7305C65.7708 40.9857 65.6836 41.3516 65.6836 41.8281ZM73.7031 41.8281C73.7031 42.1875 73.6562 42.5065 73.5625 42.7852C73.4688 43.0638 73.332 43.2995 73.1523 43.4922C72.9727 43.6823 72.7565 43.8281 72.5039 43.9297C72.2513 44.0286 71.9661 44.0781 71.6484 44.0781C71.3516 44.0781 71.0794 44.0286 70.832 43.9297C70.5846 43.8281 70.3698 43.6823 70.1875 43.4922C70.0078 43.2995 69.8685 43.0638 69.7695 42.7852C69.6706 42.5065 69.6211 42.1875 69.6211 41.8281C69.6211 41.3516 69.7031 40.9479 69.8672 40.6172C70.0339 40.2839 70.2708 40.0299 70.5781 39.8555C70.8854 39.681 71.2513 39.5938 71.6758 39.5938C72.0742 39.5938 72.4258 39.681 72.7305 39.8555C73.0352 40.0299 73.2734 40.2839 73.4453 40.6172C73.6172 40.9505 73.7031 41.3542 73.7031 41.8281ZM70.5664 41.8281C70.5664 42.1432 70.6042 42.4128 70.6797 42.6367C70.7578 42.8607 70.8776 43.0326 71.0391 43.1523C71.2005 43.2695 71.4089 43.3281 71.6641 43.3281C71.9193 43.3281 72.1276 43.2695 72.2891 43.1523C72.4505 43.0326 72.569 42.8607 72.6445 42.6367C72.7201 42.4128 72.7578 42.1432 72.7578 41.8281C72.7578 41.513 72.7201 41.2461 72.6445 41.0273C72.569 40.806 72.4505 40.638 72.2891 40.5234C72.1276 40.4062 71.918 40.3477 71.6602 40.3477C71.2799 40.3477 71.0026 40.4753 70.8281 40.7305C70.6536 40.9857 70.5664 41.3516 70.5664 41.8281ZM75.6797 44H74.7578V37.9219H75.6797V44ZM76.3398 39.6758H77.3398L78.2266 42.1445C78.2656 42.2565 78.3008 42.3672 78.332 42.4766C78.3659 42.5833 78.3945 42.6888 78.418 42.793C78.444 42.8971 78.4648 43.0013 78.4805 43.1055H78.5039C78.5299 42.9701 78.5664 42.819 78.6133 42.6523C78.6628 42.4831 78.7174 42.3138 78.7773 42.1445L79.6289 39.6758H80.6172L78.7617 44.5938C78.6549 44.875 78.5234 45.1146 78.3672 45.3125C78.2135 45.513 78.0312 45.6641 77.8203 45.7656C77.6094 45.8698 77.3685 45.9219 77.0977 45.9219C76.9674 45.9219 76.8542 45.9141 76.7578 45.8984C76.6615 45.8854 76.5794 45.8711 76.5117 45.8555V45.1211C76.5664 45.1341 76.6354 45.1458 76.7188 45.1562C76.8021 45.1667 76.888 45.1719 76.9766 45.1719C77.1406 45.1719 77.2826 45.1393 77.4023 45.0742C77.5221 45.0091 77.6237 44.9167 77.707 44.7969C77.7904 44.6797 77.8594 44.5456 77.9141 44.3945L78.0664 43.9883L76.3398 39.6758Z" fill="white"/>
<rect x="7" width="10" height="100" fill="#FFCC99"/>
<rect x="17" width="70" height="100" fill="#E48033"/>
<path d="M31.4766 12.4336L28.4824 21H26.9941L24 12.4336H25.4414L27.2461 17.8008C27.3008 17.957 27.3594 18.1465 27.4219 18.3691C27.4883 18.5918 27.5488 18.8164 27.6035 19.043C27.6621 19.2695 27.707 19.4707 27.7383 19.6465C27.7695 19.4707 27.8125 19.2695 27.8672 19.043C27.9258 18.8164 27.9863 18.5918 28.0488 18.3691C28.1113 18.1465 28.1699 17.9551 28.2246 17.7949L30.0352 12.4336H31.4766ZM38.2031 17.7422C38.2031 18.2812 38.1328 18.7598 37.9922 19.1777C37.8516 19.5957 37.6465 19.9492 37.377 20.2383C37.1074 20.5234 36.7832 20.7422 36.4043 20.8945C36.0254 21.043 35.5977 21.1172 35.1211 21.1172C34.6758 21.1172 34.2676 21.043 33.8965 20.8945C33.5254 20.7422 33.2031 20.5234 32.9297 20.2383C32.6602 19.9492 32.4512 19.5957 32.3027 19.1777C32.1543 18.7598 32.0801 18.2812 32.0801 17.7422C32.0801 17.0273 32.2031 16.4219 32.4492 15.9258C32.6992 15.4258 33.0547 15.0449 33.5156 14.7832C33.9766 14.5215 34.5254 14.3906 35.1621 14.3906C35.7598 14.3906 36.2871 14.5215 36.7441 14.7832C37.2012 15.0449 37.5586 15.4258 37.8164 15.9258C38.0742 16.4258 38.2031 17.0312 38.2031 17.7422ZM33.498 17.7422C33.498 18.2148 33.5547 18.6191 33.668 18.9551C33.7852 19.291 33.9648 19.5488 34.207 19.7285C34.4492 19.9043 34.7617 19.9922 35.1445 19.9922C35.5273 19.9922 35.8398 19.9043 36.082 19.7285C36.3242 19.5488 36.502 19.291 36.6152 18.9551C36.7285 18.6191 36.7852 18.2148 36.7852 17.7422C36.7852 17.2695 36.7285 16.8691 36.6152 16.541C36.502 16.209 36.3242 15.957 36.082 15.7852C35.8398 15.6094 35.5254 15.5215 35.1387 15.5215C34.5684 15.5215 34.1523 15.7129 33.8906 16.0957C33.6289 16.4785 33.498 17.0273 33.498 17.7422ZM41.168 21H39.7852V11.8828H41.168V21ZM48.791 14.5137V21H47.707L47.5195 20.127H47.4434C47.3066 20.3496 47.1328 20.5352 46.9219 20.6836C46.7109 20.8281 46.4766 20.9355 46.2188 21.0059C45.9609 21.0801 45.6895 21.1172 45.4043 21.1172C44.916 21.1172 44.498 21.0352 44.1504 20.8711C43.8066 20.7031 43.543 20.4453 43.3594 20.0977C43.1758 19.75 43.084 19.3008 43.084 18.75V14.5137H44.4668V18.4922C44.4668 18.9961 44.5684 19.373 44.7715 19.623C44.9785 19.873 45.2988 19.998 45.7324 19.998C46.1504 19.998 46.4824 19.9121 46.7285 19.7402C46.9746 19.5684 47.1484 19.3145 47.25 18.9785C47.3555 18.6426 47.4082 18.2305 47.4082 17.7422V14.5137H48.791ZM58.0957 14.3906C58.8223 14.3906 59.3691 14.5781 59.7363 14.9531C60.1074 15.3281 60.293 15.9297 60.293 16.7578V21H58.916V17.0039C58.916 16.5117 58.8203 16.1406 58.6289 15.8906C58.4375 15.6406 58.1465 15.5156 57.7559 15.5156C57.209 15.5156 56.8145 15.6914 56.5723 16.043C56.334 16.3906 56.2148 16.8965 56.2148 17.5605V21H54.8379V17.0039C54.8379 16.6758 54.7949 16.4023 54.709 16.1836C54.627 15.9609 54.5 15.7949 54.3281 15.6855C54.1562 15.5723 53.9395 15.5156 53.6777 15.5156C53.2988 15.5156 52.9961 15.6016 52.7695 15.7734C52.5469 15.9453 52.3867 16.1992 52.2891 16.5352C52.1914 16.8672 52.1426 17.2754 52.1426 17.7598V21H50.7656V14.5137H51.8379L52.0312 15.3867H52.1074C52.2402 15.1602 52.4043 14.9746 52.5996 14.8301C52.7988 14.6816 53.0195 14.5723 53.2617 14.502C53.5039 14.4277 53.7559 14.3906 54.0176 14.3906C54.502 14.3906 54.9102 14.4766 55.2422 14.6484C55.5742 14.8164 55.8223 15.0742 55.9863 15.4219H56.0918C56.2949 15.0703 56.5781 14.8105 56.9414 14.6426C57.3047 14.4746 57.6895 14.3906 58.0957 14.3906ZM64.7988 14.3906C65.377 14.3906 65.873 14.5098 66.2871 14.748C66.7012 14.9863 67.0195 15.3242 67.2422 15.7617C67.4648 16.1992 67.5762 16.7227 67.5762 17.332V18.0703H63.2461C63.2617 18.6992 63.4297 19.1836 63.75 19.5234C64.0742 19.8633 64.5273 20.0332 65.1094 20.0332C65.5234 20.0332 65.8945 19.9941 66.2227 19.916C66.5547 19.834 66.8965 19.7148 67.248 19.5586V20.6777C66.9238 20.8301 66.5938 20.9414 66.2578 21.0117C65.9219 21.082 65.5195 21.1172 65.0508 21.1172C64.4141 21.1172 63.8535 20.9941 63.3691 20.748C62.8887 20.498 62.5117 20.127 62.2383 19.6348C61.9688 19.1426 61.834 18.5312 61.834 17.8008C61.834 17.0742 61.957 16.457 62.2031 15.9492C62.4492 15.4414 62.7949 15.0547 63.2402 14.7891C63.6855 14.5234 64.2051 14.3906 64.7988 14.3906ZM64.7988 15.4277C64.3652 15.4277 64.0137 15.5684 63.7441 15.8496C63.4785 16.1309 63.3223 16.543 63.2754 17.0859H66.2285C66.2246 16.7617 66.1699 16.4746 66.0645 16.2246C65.9629 15.9746 65.8066 15.7793 65.5957 15.6387C65.3887 15.498 65.123 15.4277 64.7988 15.4277ZM77.6016 21H71.8008V19.9629L74.0215 17.7129C74.4512 17.2754 74.8047 16.8984 75.082 16.582C75.3594 16.2617 75.5645 15.959 75.6973 15.6738C75.834 15.3887 75.9023 15.0781 75.9023 14.7422C75.9023 14.3281 75.7832 14.0156 75.5449 13.8047C75.3066 13.5898 74.9922 13.4824 74.6016 13.4824C74.2305 13.4824 73.8867 13.5566 73.5703 13.7051C73.2578 13.8496 72.9336 14.0566 72.5977 14.3262L71.8418 13.418C72.0801 13.2148 72.334 13.0293 72.6035 12.8613C72.877 12.6934 73.1816 12.5605 73.5176 12.4629C73.8535 12.3613 74.2363 12.3105 74.666 12.3105C75.209 12.3105 75.6777 12.4082 76.0723 12.6035C76.4668 12.7949 76.7695 13.0625 76.9805 13.4062C77.1953 13.75 77.3027 14.1504 77.3027 14.6074C77.3027 15.0684 77.2109 15.4941 77.0273 15.8848C76.8438 16.2754 76.582 16.6621 76.2422 17.0449C75.9023 17.4238 75.498 17.8359 75.0293 18.2812L73.5469 19.7285V19.793H77.6016V21Z" fill="white"/>
<path d="M44.4375 27.2891H46.1367C46.8737 27.2891 47.4297 27.3958 47.8047 27.6094C48.1797 27.8229 48.3672 28.1914 48.3672 28.7148C48.3672 28.9336 48.3281 29.1315 48.25 29.3086C48.1745 29.4831 48.0638 29.6276 47.918 29.7422C47.7721 29.8542 47.5924 29.9297 47.3789 29.9688V30.0078C47.6003 30.0469 47.7969 30.1159 47.9688 30.2148C48.1432 30.3138 48.2799 30.4557 48.3789 30.6406C48.4805 30.8255 48.5312 31.0651 48.5312 31.3594C48.5312 31.7083 48.4479 32.0052 48.2812 32.25C48.1172 32.4948 47.8815 32.681 47.5742 32.8086C47.2695 32.9362 46.9076 33 46.4883 33H44.4375V27.2891ZM45.375 29.6445H46.2734C46.6979 29.6445 46.9922 29.5755 47.1562 29.4375C47.3203 29.2995 47.4023 29.0977 47.4023 28.832C47.4023 28.5612 47.3047 28.3659 47.1094 28.2461C46.9167 28.1263 46.6094 28.0664 46.1875 28.0664H45.375V29.6445ZM45.375 30.4023V32.2148H46.3633C46.8008 32.2148 47.1081 32.1302 47.2852 31.9609C47.4622 31.7917 47.5508 31.5625 47.5508 31.2734C47.5508 31.0964 47.5104 30.9427 47.4297 30.8125C47.3516 30.6823 47.2227 30.582 47.043 30.5117C46.8633 30.4388 46.6211 30.4023 46.3164 30.4023H45.375ZM53.4453 30.8281C53.4453 31.1875 53.3984 31.5065 53.3047 31.7852C53.2109 32.0638 53.0742 32.2995 52.8945 32.4922C52.7148 32.6823 52.4987 32.8281 52.2461 32.9297C51.9935 33.0286 51.7083 33.0781 51.3906 33.0781C51.0938 33.0781 50.8216 33.0286 50.5742 32.9297C50.3268 32.8281 50.112 32.6823 49.9297 32.4922C49.75 32.2995 49.6107 32.0638 49.5117 31.7852C49.4128 31.5065 49.3633 31.1875 49.3633 30.8281C49.3633 30.3516 49.4453 29.9479 49.6094 29.6172C49.776 29.2839 50.013 29.0299 50.3203 28.8555C50.6276 28.681 50.9935 28.5938 51.418 28.5938C51.8164 28.5938 52.168 28.681 52.4727 28.8555C52.7773 29.0299 53.0156 29.2839 53.1875 29.6172C53.3594 29.9505 53.4453 30.3542 53.4453 30.8281ZM50.3086 30.8281C50.3086 31.1432 50.3464 31.4128 50.4219 31.6367C50.5 31.8607 50.6198 32.0326 50.7812 32.1523C50.9427 32.2695 51.151 32.3281 51.4062 32.3281C51.6615 32.3281 51.8698 32.2695 52.0312 32.1523C52.1927 32.0326 52.3112 31.8607 52.3867 31.6367C52.4622 31.4128 52.5 31.1432 52.5 30.8281C52.5 30.513 52.4622 30.2461 52.3867 30.0273C52.3112 29.806 52.1927 29.638 52.0312 29.5234C51.8698 29.4062 51.6602 29.3477 51.4023 29.3477C51.0221 29.3477 50.7448 29.4753 50.5703 29.7305C50.3958 29.9857 50.3086 30.3516 50.3086 30.8281ZM58.3281 30.8281C58.3281 31.1875 58.2812 31.5065 58.1875 31.7852C58.0938 32.0638 57.957 32.2995 57.7773 32.4922C57.5977 32.6823 57.3815 32.8281 57.1289 32.9297C56.8763 33.0286 56.5911 33.0781 56.2734 33.0781C55.9766 33.0781 55.7044 33.0286 55.457 32.9297C55.2096 32.8281 54.9948 32.6823 54.8125 32.4922C54.6328 32.2995 54.4935 32.0638 54.3945 31.7852C54.2956 31.5065 54.2461 31.1875 54.2461 30.8281C54.2461 30.3516 54.3281 29.9479 54.4922 29.6172C54.6589 29.2839 54.8958 29.0299 55.2031 28.8555C55.5104 28.681 55.8763 28.5938 56.3008 28.5938C56.6992 28.5938 57.0508 28.681 57.3555 28.8555C57.6602 29.0299 57.8984 29.2839 58.0703 29.6172C58.2422 29.9505 58.3281 30.3542 58.3281 30.8281ZM55.1914 30.8281C55.1914 31.1432 55.2292 31.4128 55.3047 31.6367C55.3828 31.8607 55.5026 32.0326 55.6641 32.1523C55.8255 32.2695 56.0339 32.3281 56.2891 32.3281C56.5443 32.3281 56.7526 32.2695 56.9141 32.1523C57.0755 32.0326 57.194 31.8607 57.2695 31.6367C57.3451 31.4128 57.3828 31.1432 57.3828 30.8281C57.3828 30.513 57.3451 30.2461 57.2695 30.0273C57.194 29.806 57.0755 29.638 56.9141 29.5234C56.7526 29.4062 56.543 29.3477 56.2852 29.3477C55.9049 29.3477 55.6276 29.4753 55.4531 29.7305C55.2786 29.9857 55.1914 30.3516 55.1914 30.8281ZM60.3008 26.9219V29.8594C60.3008 29.9922 60.2956 30.138 60.2852 30.2969C60.2747 30.4531 60.2643 30.6003 60.2539 30.7383H60.2734C60.3411 30.6471 60.4219 30.5404 60.5156 30.418C60.612 30.2956 60.7031 30.1888 60.7891 30.0977L62.1094 28.6758H63.1641L61.4336 30.5352L63.2773 33H62.1992L60.8164 31.1016L60.3008 31.543V33H59.3828V26.9219H60.3008Z" fill="white"/>
<path d="M36.75 38.2891H38.4492C39.1862 38.2891 39.7422 38.3958 40.1172 38.6094C40.4922 38.8229 40.6797 39.1914 40.6797 39.7148C40.6797 39.9336 40.6406 40.1315 40.5625 40.3086C40.487 40.4831 40.3763 40.6276 40.2305 40.7422C40.0846 40.8542 39.9049 40.9297 39.6914 40.9688V41.0078C39.9128 41.0469 40.1094 41.1159 40.2812 41.2148C40.4557 41.3138 40.5924 41.4557 40.6914 41.6406C40.793 41.8255 40.8438 42.0651 40.8438 42.3594C40.8438 42.7083 40.7604 43.0052 40.5938 43.25C40.4297 43.4948 40.194 43.681 39.8867 43.8086C39.582 43.9362 39.2201 44 38.8008 44H36.75V38.2891ZM37.6875 40.6445H38.5859C39.0104 40.6445 39.3047 40.5755 39.4688 40.4375C39.6328 40.2995 39.7148 40.0977 39.7148 39.832C39.7148 39.5612 39.6172 39.3659 39.4219 39.2461C39.2292 39.1263 38.9219 39.0664 38.5 39.0664H37.6875V40.6445ZM37.6875 41.4023V43.2148H38.6758C39.1133 43.2148 39.4206 43.1302 39.5977 42.9609C39.7747 42.7917 39.8633 42.5625 39.8633 42.2734C39.8633 42.0964 39.8229 41.9427 39.7422 41.8125C39.6641 41.6823 39.5352 41.582 39.3555 41.5117C39.1758 41.4388 38.9336 41.4023 38.6289 41.4023H37.6875ZM41.2773 39.6758H42.2773L43.1641 42.1445C43.2031 42.2565 43.2383 42.3672 43.2695 42.4766C43.3034 42.5833 43.332 42.6888 43.3555 42.793C43.3815 42.8971 43.4023 43.0013 43.418 43.1055H43.4414C43.4674 42.9701 43.5039 42.819 43.5508 42.6523C43.6003 42.4831 43.6549 42.3138 43.7148 42.1445L44.5664 39.6758H45.5547L43.6992 44.5938C43.5924 44.875 43.4609 45.1146 43.3047 45.3125C43.151 45.513 42.9688 45.6641 42.7578 45.7656C42.5469 45.8698 42.306 45.9219 42.0352 45.9219C41.9049 45.9219 41.7917 45.9141 41.6953 45.8984C41.599 45.8854 41.5169 45.8711 41.4492 45.8555V45.1211C41.5039 45.1341 41.5729 45.1458 41.6562 45.1562C41.7396 45.1667 41.8255 45.1719 41.9141 45.1719C42.0781 45.1719 42.2201 45.1393 42.3398 45.0742C42.4596 45.0091 42.5612 44.9167 42.6445 44.7969C42.7279 44.6797 42.7969 44.5456 42.8516 44.3945L43.0039 43.9883L41.2773 39.6758ZM51.6172 44H48.3828V38.2891H51.6172V39.0781H49.3203V40.6289H51.4727V41.4141H49.3203V43.207H51.6172V44ZM53.6797 44H52.7578V37.9219H53.6797V44ZM58.8203 41.8281C58.8203 42.1875 58.7734 42.5065 58.6797 42.7852C58.5859 43.0638 58.4492 43.2995 58.2695 43.4922C58.0898 43.6823 57.8737 43.8281 57.6211 43.9297C57.3685 44.0286 57.0833 44.0781 56.7656 44.0781C56.4688 44.0781 56.1966 44.0286 55.9492 43.9297C55.7018 43.8281 55.487 43.6823 55.3047 43.4922C55.125 43.2995 54.9857 43.0638 54.8867 42.7852C54.7878 42.5065 54.7383 42.1875 54.7383 41.8281C54.7383 41.3516 54.8203 40.9479 54.9844 40.6172C55.151 40.2839 55.388 40.0299 55.6953 39.8555C56.0026 39.681 56.3685 39.5938 56.793 39.5938C57.1914 39.5938 57.543 39.681 57.8477 39.8555C58.1523 40.0299 58.3906 40.2839 58.5625 40.6172C58.7344 40.9505 58.8203 41.3542 58.8203 41.8281ZM55.6836 41.8281C55.6836 42.1432 55.7214 42.4128 55.7969 42.6367C55.875 42.8607 55.9948 43.0326 56.1562 43.1523C56.3177 43.2695 56.526 43.3281 56.7812 43.3281C57.0365 43.3281 57.2448 43.2695 57.4062 43.1523C57.5677 43.0326 57.6862 42.8607 57.7617 42.6367C57.8372 42.4128 57.875 42.1432 57.875 41.8281C57.875 41.513 57.8372 41.2461 57.7617 41.0273C57.6862 40.806 57.5677 40.638 57.4062 40.5234C57.2448 40.4062 57.0352 40.3477 56.7773 40.3477C56.3971 40.3477 56.1198 40.4753 55.9453 40.7305C55.7708 40.9857 55.6836 41.3516 55.6836 41.8281ZM63.7031 41.8281C63.7031 42.1875 63.6562 42.5065 63.5625 42.7852C63.4688 43.0638 63.332 43.2995 63.1523 43.4922C62.9727 43.6823 62.7565 43.8281 62.5039 43.9297C62.2513 44.0286 61.9661 44.0781 61.6484 44.0781C61.3516 44.0781 61.0794 44.0286 60.832 43.9297C60.5846 43.8281 60.3698 43.6823 60.1875 43.4922C60.0078 43.2995 59.8685 43.0638 59.7695 42.7852C59.6706 42.5065 59.6211 42.1875 59.6211 41.8281C59.6211 41.3516 59.7031 40.9479 59.8672 40.6172C60.0339 40.2839 60.2708 40.0299 60.5781 39.8555C60.8854 39.681 61.2513 39.5938 61.6758 39.5938C62.0742 39.5938 62.4258 39.681 62.7305 39.8555C63.0352 40.0299 63.2734 40.2839 63.4453 40.6172C63.6172 40.9505 63.7031 41.3542 63.7031 41.8281ZM60.5664 41.8281C60.5664 42.1432 60.6042 42.4128 60.6797 42.6367C60.7578 42.8607 60.8776 43.0326 61.0391 43.1523C61.2005 43.2695 61.4089 43.3281 61.6641 43.3281C61.9193 43.3281 62.1276 43.2695 62.2891 43.1523C62.4505 43.0326 62.569 42.8607 62.6445 42.6367C62.7201 42.4128 62.7578 42.1432 62.7578 41.8281C62.7578 41.513 62.7201 41.2461 62.6445 41.0273C62.569 40.806 62.4505 40.638 62.2891 40.5234C62.1276 40.4062 61.918 40.3477 61.6602 40.3477C61.2799 40.3477 61.0026 40.4753 60.8281 40.7305C60.6536 40.9857 60.5664 41.3516 60.5664 41.8281ZM65.6797 44H64.7578V37.9219H65.6797V44ZM66.3398 39.6758H67.3398L68.2266 42.1445C68.2656 42.2565 68.3008 42.3672 68.332 42.4766C68.3659 42.5833 68.3945 42.6888 68.418 42.793C68.444 42.8971 68.4648 43.0013 68.4805 43.1055H68.5039C68.5299 42.9701 68.5664 42.819 68.6133 42.6523C68.6628 42.4831 68.7174 42.3138 68.7773 42.1445L69.6289 39.6758H70.6172L68.7617 44.5938C68.6549 44.875 68.5234 45.1146 68.3672 45.3125C68.2135 45.513 68.0312 45.6641 67.8203 45.7656C67.6094 45.8698 67.3685 45.9219 67.0977 45.9219C66.9674 45.9219 66.8542 45.9141 66.7578 45.8984C66.6615 45.8854 66.5794 45.8711 66.5117 45.8555V45.1211C66.5664 45.1341 66.6354 45.1458 66.7188 45.1562C66.8021 45.1667 66.888 45.1719 66.9766 45.1719C67.1406 45.1719 67.2826 45.1393 67.4023 45.0742C67.5221 45.0091 67.6237 44.9167 67.707 44.7969C67.7904 44.6797 67.8594 44.5456 67.9141 44.3945L68.0664 43.9883L66.3398 39.6758Z" fill="white"/>
<rect x="9" width="10" height="100" fill="#FFCC99"/>
<rect x="19" width="70" height="100" fill="#D80000"/>
<path d="M33.4766 12.4336L30.4824 21H28.9941L26 12.4336H27.4414L29.2461 17.8008C29.3008 17.957 29.3594 18.1465 29.4219 18.3691C29.4883 18.5918 29.5488 18.8164 29.6035 19.043C29.6621 19.2695 29.707 19.4707 29.7383 19.6465C29.7695 19.4707 29.8125 19.2695 29.8672 19.043C29.9258 18.8164 29.9863 18.5918 30.0488 18.3691C30.1113 18.1465 30.1699 17.9551 30.2246 17.7949L32.0352 12.4336H33.4766ZM40.2031 17.7422C40.2031 18.2812 40.1328 18.7598 39.9922 19.1777C39.8516 19.5957 39.6465 19.9492 39.377 20.2383C39.1074 20.5234 38.7832 20.7422 38.4043 20.8945C38.0254 21.043 37.5977 21.1172 37.1211 21.1172C36.6758 21.1172 36.2676 21.043 35.8965 20.8945C35.5254 20.7422 35.2031 20.5234 34.9297 20.2383C34.6602 19.9492 34.4512 19.5957 34.3027 19.1777C34.1543 18.7598 34.0801 18.2812 34.0801 17.7422C34.0801 17.0273 34.2031 16.4219 34.4492 15.9258C34.6992 15.4258 35.0547 15.0449 35.5156 14.7832C35.9766 14.5215 36.5254 14.3906 37.1621 14.3906C37.7598 14.3906 38.2871 14.5215 38.7441 14.7832C39.2012 15.0449 39.5586 15.4258 39.8164 15.9258C40.0742 16.4258 40.2031 17.0312 40.2031 17.7422ZM35.498 17.7422C35.498 18.2148 35.5547 18.6191 35.668 18.9551C35.7852 19.291 35.9648 19.5488 36.207 19.7285C36.4492 19.9043 36.7617 19.9922 37.1445 19.9922C37.5273 19.9922 37.8398 19.9043 38.082 19.7285C38.3242 19.5488 38.502 19.291 38.6152 18.9551C38.7285 18.6191 38.7852 18.2148 38.7852 17.7422C38.7852 17.2695 38.7285 16.8691 38.6152 16.541C38.502 16.209 38.3242 15.957 38.082 15.7852C37.8398 15.6094 37.5254 15.5215 37.1387 15.5215C36.5684 15.5215 36.1523 15.7129 35.8906 16.0957C35.6289 16.4785 35.498 17.0273 35.498 17.7422ZM43.168 21H41.7852V11.8828H43.168V21ZM50.791 14.5137V21H49.707L49.5195 20.127H49.4434C49.3066 20.3496 49.1328 20.5352 48.9219 20.6836C48.7109 20.8281 48.4766 20.9355 48.2188 21.0059C47.9609 21.0801 47.6895 21.1172 47.4043 21.1172C46.916 21.1172 46.498 21.0352 46.1504 20.8711C45.8066 20.7031 45.543 20.4453 45.3594 20.0977C45.1758 19.75 45.084 19.3008 45.084 18.75V14.5137H46.4668V18.4922C46.4668 18.9961 46.5684 19.373 46.7715 19.623C46.9785 19.873 47.2988 19.998 47.7324 19.998C48.1504 19.998 48.4824 19.9121 48.7285 19.7402C48.9746 19.5684 49.1484 19.3145 49.25 18.9785C49.3555 18.6426 49.4082 18.2305 49.4082 17.7422V14.5137H50.791ZM60.0957 14.3906C60.8223 14.3906 61.3691 14.5781 61.7363 14.9531C62.1074 15.3281 62.293 15.9297 62.293 16.7578V21H60.916V17.0039C60.916 16.5117 60.8203 16.1406 60.6289 15.8906C60.4375 15.6406 60.1465 15.5156 59.7559 15.5156C59.209 15.5156 58.8145 15.6914 58.5723 16.043C58.334 16.3906 58.2148 16.8965 58.2148 17.5605V21H56.8379V17.0039C56.8379 16.6758 56.7949 16.4023 56.709 16.1836C56.627 15.9609 56.5 15.7949 56.3281 15.6855C56.1562 15.5723 55.9395 15.5156 55.6777 15.5156C55.2988 15.5156 54.9961 15.6016 54.7695 15.7734C54.5469 15.9453 54.3867 16.1992 54.2891 16.5352C54.1914 16.8672 54.1426 17.2754 54.1426 17.7598V21H52.7656V14.5137H53.8379L54.0312 15.3867H54.1074C54.2402 15.1602 54.4043 14.9746 54.5996 14.8301C54.7988 14.6816 55.0195 14.5723 55.2617 14.502C55.5039 14.4277 55.7559 14.3906 56.0176 14.3906C56.502 14.3906 56.9102 14.4766 57.2422 14.6484C57.5742 14.8164 57.8223 15.0742 57.9863 15.4219H58.0918C58.2949 15.0703 58.5781 14.8105 58.9414 14.6426C59.3047 14.4746 59.6895 14.3906 60.0957 14.3906ZM66.7988 14.3906C67.377 14.3906 67.873 14.5098 68.2871 14.748C68.7012 14.9863 69.0195 15.3242 69.2422 15.7617C69.4648 16.1992 69.5762 16.7227 69.5762 17.332V18.0703H65.2461C65.2617 18.6992 65.4297 19.1836 65.75 19.5234C66.0742 19.8633 66.5273 20.0332 67.1094 20.0332C67.5234 20.0332 67.8945 19.9941 68.2227 19.916C68.5547 19.834 68.8965 19.7148 69.248 19.5586V20.6777C68.9238 20.8301 68.5938 20.9414 68.2578 21.0117C67.9219 21.082 67.5195 21.1172 67.0508 21.1172C66.4141 21.1172 65.8535 20.9941 65.3691 20.748C64.8887 20.498 64.5117 20.127 64.2383 19.6348C63.9688 19.1426 63.834 18.5312 63.834 17.8008C63.834 17.0742 63.957 16.457 64.2031 15.9492C64.4492 15.4414 64.7949 15.0547 65.2402 14.7891C65.6855 14.5234 66.2051 14.3906 66.7988 14.3906ZM66.7988 15.4277C66.3652 15.4277 66.0137 15.5684 65.7441 15.8496C65.4785 16.1309 65.3223 16.543 65.2754 17.0859H68.2285C68.2246 16.7617 68.1699 16.4746 68.0645 16.2246C67.9629 15.9746 67.8066 15.7793 67.5957 15.6387C67.3887 15.498 67.123 15.4277 66.7988 15.4277ZM77.8496 21H76.4668V15.4863C76.4668 15.3027 76.4688 15.1191 76.4727 14.9355C76.4766 14.752 76.4805 14.5723 76.4844 14.3965C76.4922 14.2207 76.502 14.0527 76.5137 13.8926C76.4316 13.9824 76.3301 14.0801 76.209 14.1855C76.0918 14.291 75.9668 14.4004 75.834 14.5137L74.8496 15.2988L74.1582 14.4258L76.7012 12.4336H77.8496V21Z" fill="white"/>
<path d="M45.9375 27.2891H47.6367C48.3737 27.2891 48.9297 27.3958 49.3047 27.6094C49.6797 27.8229 49.8672 28.1914 49.8672 28.7148C49.8672 28.9336 49.8281 29.1315 49.75 29.3086C49.6745 29.4831 49.5638 29.6276 49.418 29.7422C49.2721 29.8542 49.0924 29.9297 48.8789 29.9688V30.0078C49.1003 30.0469 49.2969 30.1159 49.4688 30.2148C49.6432 30.3138 49.7799 30.4557 49.8789 30.6406C49.9805 30.8255 50.0312 31.0651 50.0312 31.3594C50.0312 31.7083 49.9479 32.0052 49.7812 32.25C49.6172 32.4948 49.3815 32.681 49.0742 32.8086C48.7695 32.9362 48.4076 33 47.9883 33H45.9375V27.2891ZM46.875 29.6445H47.7734C48.1979 29.6445 48.4922 29.5755 48.6562 29.4375C48.8203 29.2995 48.9023 29.0977 48.9023 28.832C48.9023 28.5612 48.8047 28.3659 48.6094 28.2461C48.4167 28.1263 48.1094 28.0664 47.6875 28.0664H46.875V29.6445ZM46.875 30.4023V32.2148H47.8633C48.3008 32.2148 48.6081 32.1302 48.7852 31.9609C48.9622 31.7917 49.0508 31.5625 49.0508 31.2734C49.0508 31.0964 49.0104 30.9427 48.9297 30.8125C48.8516 30.6823 48.7227 30.582 48.543 30.5117C48.3633 30.4388 48.1211 30.4023 47.8164 30.4023H46.875ZM54.9453 30.8281C54.9453 31.1875 54.8984 31.5065 54.8047 31.7852C54.7109 32.0638 54.5742 32.2995 54.3945 32.4922C54.2148 32.6823 53.9987 32.8281 53.7461 32.9297C53.4935 33.0286 53.2083 33.0781 52.8906 33.0781C52.5938 33.0781 52.3216 33.0286 52.0742 32.9297C51.8268 32.8281 51.612 32.6823 51.4297 32.4922C51.25 32.2995 51.1107 32.0638 51.0117 31.7852C50.9128 31.5065 50.8633 31.1875 50.8633 30.8281C50.8633 30.3516 50.9453 29.9479 51.1094 29.6172C51.276 29.2839 51.513 29.0299 51.8203 28.8555C52.1276 28.681 52.4935 28.5938 52.918 28.5938C53.3164 28.5938 53.668 28.681 53.9727 28.8555C54.2773 29.0299 54.5156 29.2839 54.6875 29.6172C54.8594 29.9505 54.9453 30.3542 54.9453 30.8281ZM51.8086 30.8281C51.8086 31.1432 51.8464 31.4128 51.9219 31.6367C52 31.8607 52.1198 32.0326 52.2812 32.1523C52.4427 32.2695 52.651 32.3281 52.9062 32.3281C53.1615 32.3281 53.3698 32.2695 53.5312 32.1523C53.6927 32.0326 53.8112 31.8607 53.8867 31.6367C53.9622 31.4128 54 31.1432 54 30.8281C54 30.513 53.9622 30.2461 53.8867 30.0273C53.8112 29.806 53.6927 29.638 53.5312 29.5234C53.3698 29.4062 53.1602 29.3477 52.9023 29.3477C52.5221 29.3477 52.2448 29.4753 52.0703 29.7305C51.8958 29.9857 51.8086 30.3516 51.8086 30.8281ZM59.8281 30.8281C59.8281 31.1875 59.7812 31.5065 59.6875 31.7852C59.5938 32.0638 59.457 32.2995 59.2773 32.4922C59.0977 32.6823 58.8815 32.8281 58.6289 32.9297C58.3763 33.0286 58.0911 33.0781 57.7734 33.0781C57.4766 33.0781 57.2044 33.0286 56.957 32.9297C56.7096 32.8281 56.4948 32.6823 56.3125 32.4922C56.1328 32.2995 55.9935 32.0638 55.8945 31.7852C55.7956 31.5065 55.7461 31.1875 55.7461 30.8281C55.7461 30.3516 55.8281 29.9479 55.9922 29.6172C56.1589 29.2839 56.3958 29.0299 56.7031 28.8555C57.0104 28.681 57.3763 28.5938 57.8008 28.5938C58.1992 28.5938 58.5508 28.681 58.8555 28.8555C59.1602 29.0299 59.3984 29.2839 59.5703 29.6172C59.7422 29.9505 59.8281 30.3542 59.8281 30.8281ZM56.6914 30.8281C56.6914 31.1432 56.7292 31.4128 56.8047 31.6367C56.8828 31.8607 57.0026 32.0326 57.1641 32.1523C57.3255 32.2695 57.5339 32.3281 57.7891 32.3281C58.0443 32.3281 58.2526 32.2695 58.4141 32.1523C58.5755 32.0326 58.694 31.8607 58.7695 31.6367C58.8451 31.4128 58.8828 31.1432 58.8828 30.8281C58.8828 30.513 58.8451 30.2461 58.7695 30.0273C58.694 29.806 58.5755 29.638 58.4141 29.5234C58.2526 29.4062 58.043 29.3477 57.7852 29.3477C57.4049 29.3477 57.1276 29.4753 56.9531 29.7305C56.7786 29.9857 56.6914 30.3516 56.6914 30.8281ZM61.8008 26.9219V29.8594C61.8008 29.9922 61.7956 30.138 61.7852 30.2969C61.7747 30.4531 61.7643 30.6003 61.7539 30.7383H61.7734C61.8411 30.6471 61.9219 30.5404 62.0156 30.418C62.112 30.2956 62.2031 30.1888 62.2891 30.0977L63.6094 28.6758H64.6641L62.9336 30.5352L64.7773 33H63.6992L62.3164 31.1016L61.8008 31.543V33H60.8828V26.9219H61.8008Z" fill="white"/>
<path d="M38.75 38.2891H40.4492C41.1862 38.2891 41.7422 38.3958 42.1172 38.6094C42.4922 38.8229 42.6797 39.1914 42.6797 39.7148C42.6797 39.9336 42.6406 40.1315 42.5625 40.3086C42.487 40.4831 42.3763 40.6276 42.2305 40.7422C42.0846 40.8542 41.9049 40.9297 41.6914 40.9688V41.0078C41.9128 41.0469 42.1094 41.1159 42.2812 41.2148C42.4557 41.3138 42.5924 41.4557 42.6914 41.6406C42.793 41.8255 42.8438 42.0651 42.8438 42.3594C42.8438 42.7083 42.7604 43.0052 42.5938 43.25C42.4297 43.4948 42.194 43.681 41.8867 43.8086C41.582 43.9362 41.2201 44 40.8008 44H38.75V38.2891ZM39.6875 40.6445H40.5859C41.0104 40.6445 41.3047 40.5755 41.4688 40.4375C41.6328 40.2995 41.7148 40.0977 41.7148 39.832C41.7148 39.5612 41.6172 39.3659 41.4219 39.2461C41.2292 39.1263 40.9219 39.0664 40.5 39.0664H39.6875V40.6445ZM39.6875 41.4023V43.2148H40.6758C41.1133 43.2148 41.4206 43.1302 41.5977 42.9609C41.7747 42.7917 41.8633 42.5625 41.8633 42.2734C41.8633 42.0964 41.8229 41.9427 41.7422 41.8125C41.6641 41.6823 41.5352 41.582 41.3555 41.5117C41.1758 41.4388 40.9336 41.4023 40.6289 41.4023H39.6875ZM43.2773 39.6758H44.2773L45.1641 42.1445C45.2031 42.2565 45.2383 42.3672 45.2695 42.4766C45.3034 42.5833 45.332 42.6888 45.3555 42.793C45.3815 42.8971 45.4023 43.0013 45.418 43.1055H45.4414C45.4674 42.9701 45.5039 42.819 45.5508 42.6523C45.6003 42.4831 45.6549 42.3138 45.7148 42.1445L46.5664 39.6758H47.5547L45.6992 44.5938C45.5924 44.875 45.4609 45.1146 45.3047 45.3125C45.151 45.513 44.9688 45.6641 44.7578 45.7656C44.5469 45.8698 44.306 45.9219 44.0352 45.9219C43.9049 45.9219 43.7917 45.9141 43.6953 45.8984C43.599 45.8854 43.5169 45.8711 43.4492 45.8555V45.1211C43.5039 45.1341 43.5729 45.1458 43.6562 45.1562C43.7396 45.1667 43.8255 45.1719 43.9141 45.1719C44.0781 45.1719 44.2201 45.1393 44.3398 45.0742C44.4596 45.0091 44.5612 44.9167 44.6445 44.7969C44.7279 44.6797 44.7969 44.5456 44.8516 44.3945L45.0039 43.9883L43.2773 39.6758ZM53.6172 44H50.3828V38.2891H53.6172V39.0781H51.3203V40.6289H53.4727V41.4141H51.3203V43.207H53.6172V44ZM55.6797 44H54.7578V37.9219H55.6797V44ZM60.8203 41.8281C60.8203 42.1875 60.7734 42.5065 60.6797 42.7852C60.5859 43.0638 60.4492 43.2995 60.2695 43.4922C60.0898 43.6823 59.8737 43.8281 59.6211 43.9297C59.3685 44.0286 59.0833 44.0781 58.7656 44.0781C58.4688 44.0781 58.1966 44.0286 57.9492 43.9297C57.7018 43.8281 57.487 43.6823 57.3047 43.4922C57.125 43.2995 56.9857 43.0638 56.8867 42.7852C56.7878 42.5065 56.7383 42.1875 56.7383 41.8281C56.7383 41.3516 56.8203 40.9479 56.9844 40.6172C57.151 40.2839 57.388 40.0299 57.6953 39.8555C58.0026 39.681 58.3685 39.5938 58.793 39.5938C59.1914 39.5938 59.543 39.681 59.8477 39.8555C60.1523 40.0299 60.3906 40.2839 60.5625 40.6172C60.7344 40.9505 60.8203 41.3542 60.8203 41.8281ZM57.6836 41.8281C57.6836 42.1432 57.7214 42.4128 57.7969 42.6367C57.875 42.8607 57.9948 43.0326 58.1562 43.1523C58.3177 43.2695 58.526 43.3281 58.7812 43.3281C59.0365 43.3281 59.2448 43.2695 59.4062 43.1523C59.5677 43.0326 59.6862 42.8607 59.7617 42.6367C59.8372 42.4128 59.875 42.1432 59.875 41.8281C59.875 41.513 59.8372 41.2461 59.7617 41.0273C59.6862 40.806 59.5677 40.638 59.4062 40.5234C59.2448 40.4062 59.0352 40.3477 58.7773 40.3477C58.3971 40.3477 58.1198 40.4753 57.9453 40.7305C57.7708 40.9857 57.6836 41.3516 57.6836 41.8281ZM65.7031 41.8281C65.7031 42.1875 65.6562 42.5065 65.5625 42.7852C65.4688 43.0638 65.332 43.2995 65.1523 43.4922C64.9727 43.6823 64.7565 43.8281 64.5039 43.9297C64.2513 44.0286 63.9661 44.0781 63.6484 44.0781C63.3516 44.0781 63.0794 44.0286 62.832 43.9297C62.5846 43.8281 62.3698 43.6823 62.1875 43.4922C62.0078 43.2995 61.8685 43.0638 61.7695 42.7852C61.6706 42.5065 61.6211 42.1875 61.6211 41.8281C61.6211 41.3516 61.7031 40.9479 61.8672 40.6172C62.0339 40.2839 62.2708 40.0299 62.5781 39.8555C62.8854 39.681 63.2513 39.5938 63.6758 39.5938C64.0742 39.5938 64.4258 39.681 64.7305 39.8555C65.0352 40.0299 65.2734 40.2839 65.4453 40.6172C65.6172 40.9505 65.7031 41.3542 65.7031 41.8281ZM62.5664 41.8281C62.5664 42.1432 62.6042 42.4128 62.6797 42.6367C62.7578 42.8607 62.8776 43.0326 63.0391 43.1523C63.2005 43.2695 63.4089 43.3281 63.6641 43.3281C63.9193 43.3281 64.1276 43.2695 64.2891 43.1523C64.4505 43.0326 64.569 42.8607 64.6445 42.6367C64.7201 42.4128 64.7578 42.1432 64.7578 41.8281C64.7578 41.513 64.7201 41.2461 64.6445 41.0273C64.569 40.806 64.4505 40.638 64.2891 40.5234C64.1276 40.4062 63.918 40.3477 63.6602 40.3477C63.2799 40.3477 63.0026 40.4753 62.8281 40.7305C62.6536 40.9857 62.5664 41.3516 62.5664 41.8281ZM67.6797 44H66.7578V37.9219H67.6797V44ZM68.3398 39.6758H69.3398L70.2266 42.1445C70.2656 42.2565 70.3008 42.3672 70.332 42.4766C70.3659 42.5833 70.3945 42.6888 70.418 42.793C70.444 42.8971 70.4648 43.0013 70.4805 43.1055H70.5039C70.5299 42.9701 70.5664 42.819 70.6133 42.6523C70.6628 42.4831 70.7174 42.3138 70.7773 42.1445L71.6289 39.6758H72.6172L70.7617 44.5938C70.6549 44.875 70.5234 45.1146 70.3672 45.3125C70.2135 45.513 70.0312 45.6641 69.8203 45.7656C69.6094 45.8698 69.3685 45.9219 69.0977 45.9219C68.9674 45.9219 68.8542 45.9141 68.7578 45.8984C68.6615 45.8854 68.5794 45.8711 68.5117 45.8555V45.1211C68.5664 45.1341 68.6354 45.1458 68.7188 45.1562C68.8021 45.1667 68.888 45.1719 68.9766 45.1719C69.1406 45.1719 69.2826 45.1393 69.4023 45.0742C69.5221 45.0091 69.6237 44.9167 69.707 44.7969C69.7904 44.6797 69.8594 44.5456 69.9141 44.3945L70.0664 43.9883L68.3398 39.6758Z" fill="white"/>
</svg>
