<svg width="100" height="100" viewBox="0 0 100 100" fill="none" xmlns="http://www.w3.org/2000/svg">
<g clip-path="url(#clip0_419_377)">
<path d="M50 100C72.0914 100 90 82.0914 90 60C90 37.9086 72.0914 20 50 20C27.9086 20 10 37.9086 10 60C10 82.0914 27.9086 100 50 100Z" fill="#F6E033"/>
<path d="M36.1 56.8C38.5853 56.8 40.6 54.1137 40.6 50.8C40.6 47.4863 38.5853 44.8 36.1 44.8C33.6147 44.8 31.6 47.4863 31.6 50.8C31.6 54.1137 33.6147 56.8 36.1 56.8Z" fill="black" fill-opacity="0.8"/>
<path d="M64.1 56.8C66.5853 56.8 68.6 54.1137 68.6 50.8C68.6 47.4863 66.5853 44.8 64.1 44.8C61.6147 44.8 59.6 47.4863 59.6 50.8C59.6 54.1137 61.6147 56.8 64.1 56.8Z" fill="black" fill-opacity="0.8"/>
<path d="M34.1782 76.1686C39.4138 78.4234 45.0708 79.5331 50.7702 79.4234C56.4696 79.3136 62.0798 77.9869 67.2246 75.5322L65.1577 71.2C60.6302 73.3602 55.6933 74.5277 50.6778 74.6242C45.6623 74.7208 40.6841 73.7443 36.0768 71.7601L34.1782 76.1686Z" fill="#F08080"/>
</g>
<path d="M28.2609 18C28.2609 9.71572 34.9766 3 43.2609 3L56.7391 3C65.0234 3 71.7391 9.71573 71.7391 18V28.2632L28.2609 28.2632V18Z" fill="#664E22"/>
<mask id="mask0_419_377" style="mask-type:alpha" maskUnits="userSpaceOnUse" x="2" y="26" width="47" height="11">
<rect x="2" y="26" width="47" height="11" fill="#D9D9D9"/>
</mask>
<g mask="url(#mask0_419_377)">
<path d="M2.50515 26L100 26V30.4148C100 30.4148 11.8798 47.804 3.01031 29.9242C2.49386 28.8831 2 27.9621 2 27.2263C2 26.4905 2.30788 26.4789 2.50515 26Z" fill="#664E22"/>
</g>
<path d="M27.0938 26.9929H29C28.3499 27.0025 27.7146 27.0023 27.0938 26.9929H2.44536C2.44536 26.9929 1.44331 19 2.44536 19C3.41357 19 9.33537 26.726 27.0938 26.9929Z" fill="#664E22"/>
<mask id="mask1_419_377" style="mask-type:alpha" maskUnits="userSpaceOnUse" x="49" y="26" width="47" height="11">
<rect width="47" height="11" transform="matrix(-1 0 0 1 96 26)" fill="#D9D9D9"/>
</mask>
<g mask="url(#mask1_419_377)">
<path d="M95.4948 26L-1.99999 26V30.4148C-1.99999 30.4148 86.1202 47.804 94.9897 29.9242C95.5061 28.8831 96 27.9621 96 27.2263C96 26.4905 95.6921 26.4789 95.4948 26Z" fill="#664E22"/>
</g>
<path d="M70.9062 26.9929H69C69.6501 27.0025 70.2854 27.0023 70.9062 26.9929H95.5546C95.5546 26.9929 96.5567 19 95.5546 19C94.5864 19 88.6646 26.726 70.9062 26.9929Z" fill="#664E22"/>
<mask id="mask2_419_377" style="mask-type:alpha" maskUnits="userSpaceOnUse" x="2" y="3" width="94" height="97">
<g clip-path="url(#clip1_419_377)">
<path d="M50 100C72.0914 100 90 82.0914 90 60C90 37.9086 72.0914 20 50 20C27.9086 20 10 37.9086 10 60C10 82.0914 27.9086 100 50 100Z" fill="#F6E033"/>
<path d="M36.1 56.8C38.5853 56.8 40.6 54.1137 40.6 50.8C40.6 47.4863 38.5853 44.8 36.1 44.8C33.6147 44.8 31.6 47.4863 31.6 50.8C31.6 54.1137 33.6147 56.8 36.1 56.8Z" fill="black" fill-opacity="0.8"/>
<path d="M64.1 56.8C66.5853 56.8 68.6 54.1137 68.6 50.8C68.6 47.4863 66.5853 44.8 64.1 44.8C61.6147 44.8 59.6 47.4863 59.6 50.8C59.6 54.1137 61.6147 56.8 64.1 56.8Z" fill="black" fill-opacity="0.8"/>
<path d="M34.1782 76.1686C39.4138 78.4234 45.0708 79.5331 50.7702 79.4234C56.4696 79.3136 62.0798 77.9869 67.2246 75.5322L65.1577 71.2C60.6302 73.3602 55.6933 74.5277 50.6778 74.6242C45.6623 74.7208 40.6841 73.7443 36.0768 71.7601L34.1782 76.1686Z" fill="#F08080"/>
<mask id="mask3_419_377" style="mask-type:alpha" maskUnits="userSpaceOnUse" x="10" y="20" width="80" height="80">
<path d="M50 100C72.0914 100 90 82.0914 90 60C90 37.9086 72.0914 20 50 20C27.9086 20 10 37.9086 10 60C10 82.0914 27.9086 100 50 100Z" fill="url(#paint0_linear_419_377)"/>
</mask>
<g mask="url(#mask3_419_377)">
<path d="M49.2 92C71.2914 92 89.2 74.0914 89.2 52C89.2 29.9086 71.2914 12 49.2 12C27.1086 12 9.2 29.9086 9.2 52C9.2 74.0914 27.1086 92 49.2 92Z" fill="url(#paint1_radial_419_377)" fill-opacity="0.6"/>
</g>
</g>
<path d="M28.2609 18C28.2609 9.71572 34.9766 3 43.2609 3L56.7391 3C65.0234 3 71.7391 9.71573 71.7391 18V28.2632L28.2609 28.2632V18Z" fill="#664E22"/>
<mask id="mask4_419_377" style="mask-type:alpha" maskUnits="userSpaceOnUse" x="2" y="26" width="47" height="11">
<rect x="2" y="26" width="47" height="11" fill="#D9D9D9"/>
</mask>
<g mask="url(#mask4_419_377)">
<path d="M2.50515 26L100 26V30.4148C100 30.4148 11.8798 47.804 3.01031 29.9242C2.49386 28.8831 2 27.9621 2 27.2263C2 26.4905 2.30788 26.4789 2.50515 26Z" fill="#664E22"/>
</g>
<path d="M27.0938 26.9929H29C28.3499 27.0025 27.7146 27.0023 27.0938 26.9929H2.44536C2.44536 26.9929 1.44331 19 2.44536 19C3.41357 19 9.33537 26.726 27.0938 26.9929Z" fill="#664E22"/>
<mask id="mask5_419_377" style="mask-type:alpha" maskUnits="userSpaceOnUse" x="49" y="26" width="47" height="11">
<rect width="47" height="11" transform="matrix(-1 0 0 1 96 26)" fill="#D9D9D9"/>
</mask>
<g mask="url(#mask5_419_377)">
<path d="M95.4948 26L-1.99999 26V30.4148C-1.99999 30.4148 86.1202 47.804 94.9897 29.9242C95.5061 28.8831 96 27.9621 96 27.2263C96 26.4905 95.6921 26.4789 95.4948 26Z" fill="#664E22"/>
</g>
<path d="M70.9062 26.9929H69C69.6501 27.0025 70.2854 27.0023 70.9062 26.9929H95.5546C95.5546 26.9929 96.5567 19 95.5546 19C94.5864 19 88.6646 26.726 70.9062 26.9929Z" fill="#664E22"/>
</mask>
<g mask="url(#mask2_419_377)">
<circle cx="49" cy="40" r="50" fill="url(#paint2_radial_419_377)" fill-opacity="0.6"/>
</g>
<defs>
<linearGradient id="paint0_linear_419_377" x1="50" y1="20" x2="50" y2="100" gradientUnits="userSpaceOnUse">
<stop stop-color="#FFB14E"/>
<stop offset="1" stop-color="#FFE433"/>
</linearGradient>
<radialGradient id="paint1_radial_419_377" cx="0" cy="0" r="1" gradientUnits="userSpaceOnUse" gradientTransform="translate(49.2 52) rotate(90) scale(40)">
<stop stop-color="white"/>
<stop offset="1" stop-color="#CCCCCC" stop-opacity="0"/>
</radialGradient>
<radialGradient id="paint2_radial_419_377" cx="0" cy="0" r="1" gradientUnits="userSpaceOnUse" gradientTransform="translate(49 40) rotate(90) scale(50)">
<stop stop-color="white"/>
<stop offset="1" stop-color="#CCCCCC" stop-opacity="0"/>
</radialGradient>
<clipPath id="clip0_419_377">
<rect width="80" height="80" fill="white" transform="translate(10 20)"/>
</clipPath>
<clipPath id="clip1_419_377">
<rect width="80" height="80" fill="white" transform="translate(10 20)"/>
</clipPath>
</defs>
</svg>
