<svg width="100" height="100" viewBox="0 0 100 100" fill="none" xmlns="http://www.w3.org/2000/svg">
<g clip-path="url(#clip0_18_106)">
<circle cx="50" cy="50" r="50" fill="#F6E033"/>
<ellipse cx="32.625" cy="38.5" rx="5.625" ry="7.5" fill="black" fill-opacity="0.8"/>
<ellipse cx="67.625" cy="38.5" rx="5.625" ry="7.5" fill="black" fill-opacity="0.8"/>
<path d="M60.4141 64.6191C60.4141 65.5033 60.2318 66.2826 59.8672 66.957C59.5026 67.6315 59.0013 68.1829 58.3633 68.6113C57.7344 69.0397 57.0098 69.3314 56.1895 69.4863V69.5684C57.7572 69.7689 58.9557 70.2839 59.7852 71.1133C60.6146 71.9336 61.0293 73.0547 61.0293 74.4766C61.0293 75.5977 60.765 76.5957 60.2363 77.4707C59.7077 78.3457 58.9102 79.0339 57.8438 79.5352C56.7865 80.0273 55.4557 80.2734 53.8516 80.2734C52.7669 80.2734 51.7598 80.1732 50.8301 79.9727C49.9004 79.7721 49.0527 79.4941 48.2871 79.1387V77.7852C49.0436 78.1589 49.9141 78.4688 50.8984 78.7148C51.8919 78.9518 52.8809 79.0703 53.8652 79.0703C55.7975 79.0703 57.2331 78.6556 58.1719 77.8262C59.1107 76.9876 59.5801 75.8665 59.5801 74.4629C59.5801 73.4421 59.3294 72.6263 58.8281 72.0156C58.3268 71.3958 57.6204 70.9447 56.709 70.6621C55.8066 70.3796 54.7448 70.2383 53.5234 70.2383H51.3359V69.0215H53.5371C54.5671 69.0215 55.4922 68.862 56.3125 68.543C57.1328 68.2148 57.7799 67.7318 58.2539 67.0938C58.737 66.4466 58.9785 65.6445 58.9785 64.6875C58.9785 63.4479 58.582 62.5137 57.7891 61.8848C57.0052 61.2559 55.957 60.9414 54.6445 60.9414C53.9427 60.9414 53.2819 61.0143 52.6621 61.1602C52.0514 61.306 51.459 61.5202 50.8848 61.8027C50.3197 62.0762 49.7546 62.4089 49.1895 62.8008L48.4785 61.8027C49.2624 61.2012 50.1647 60.7044 51.1855 60.3125C52.2155 59.9206 53.3639 59.7246 54.6309 59.7246C56.4447 59.7246 57.862 60.1621 58.8828 61.0371C59.9036 61.9121 60.4141 63.1061 60.4141 64.6191Z" fill="black"/>
<mask id="mask0_18_106" style="mask-type:alpha" maskUnits="userSpaceOnUse" x="0" y="0" width="100" height="100">
<circle cx="50" cy="50" r="50" fill="url(#paint0_linear_18_106)"/>
</mask>
<g mask="url(#mask0_18_106)">
<circle cx="49" cy="40" r="50" fill="url(#paint1_radial_18_106)" fill-opacity="0.6"/>
</g>
</g>
<defs>
<linearGradient id="paint0_linear_18_106" x1="50" y1="0" x2="50" y2="100" gradientUnits="userSpaceOnUse">
<stop stop-color="#FFB14E"/>
<stop offset="1" stop-color="#FFE433"/>
</linearGradient>
<radialGradient id="paint1_radial_18_106" cx="0" cy="0" r="1" gradientUnits="userSpaceOnUse" gradientTransform="translate(49 40) rotate(90) scale(50)">
<stop stop-color="white"/>
<stop offset="1" stop-color="#CCCCCC" stop-opacity="0"/>
</radialGradient>
<clipPath id="clip0_18_106">
<rect width="100" height="100" fill="white"/>
</clipPath>
</defs>
</svg>
