<svg width="100" height="100" viewBox="0 0 100 100" fill="none" xmlns="http://www.w3.org/2000/svg">
<g clip-path="url(#clip0_18_106)">
<circle cx="50" cy="50" r="50" fill="#FFB14E"/>
<ellipse cx="32.625" cy="38.5" rx="5.625" ry="7.5" fill="black" fill-opacity="0.8"/>
<ellipse cx="67.625" cy="38.5" rx="5.625" ry="7.5" fill="black" fill-opacity="0.8"/>
<path d="M70 64C70 66.6264 69.4827 69.2272 68.4776 71.6537C67.4725 74.0802 65.9993 76.285 64.1421 78.1421C62.285 79.9993 60.0802 81.4725 57.6537 82.4776C55.2272 83.4827 52.6264 84 50 84C47.3736 84 44.7728 83.4827 42.3463 82.4776C39.9198 81.4725 37.715 79.9993 35.8579 78.1421C34.0007 76.285 32.5275 74.0802 31.5224 71.6537C30.5173 69.2272 30 66.6264 30 64L50 64H70Z" fill="#4E4E4E"/>
<mask id="mask0_18_106" style="mask-type:alpha" maskUnits="userSpaceOnUse" x="0" y="0" width="100" height="100">
<circle cx="50" cy="50" r="50" fill="url(#paint0_linear_18_106)"/>
</mask>
<g mask="url(#mask0_18_106)">
<circle cx="50" cy="39" r="50" fill="url(#paint1_radial_18_106)" fill-opacity="0.6"/>
</g>
</g>
<defs>
<linearGradient id="paint0_linear_18_106" x1="50" y1="0" x2="50" y2="100" gradientUnits="userSpaceOnUse">
<stop stop-color="#FFB14E"/>
<stop offset="1" stop-color="#FFE433"/>
</linearGradient>
<radialGradient id="paint1_radial_18_106" cx="0" cy="0" r="1" gradientUnits="userSpaceOnUse" gradientTransform="translate(50 39) rotate(90) scale(50)">
<stop stop-color="white"/>
<stop offset="1" stop-color="#CCCCCC" stop-opacity="0"/>
</radialGradient>
<clipPath id="clip0_18_106">
<rect width="100" height="100" fill="white"/>
</clipPath>
</defs>
</svg>
