<svg width="100" height="100" viewBox="0 0 100 100" fill="none" xmlns="http://www.w3.org/2000/svg">
<rect x="15" y="43.8682" width="5" height="5" rx="0.5" transform="rotate(-10 15 43.8682)" fill="#F6A111"/>
<rect x="63" y="32.8682" width="5" height="5" rx="0.5" transform="rotate(-10 63 32.8682)" fill="#F6A111"/>
<rect x="30" y="24.8682" width="5" height="5" rx="0.5" transform="rotate(-10 30 24.8682)" fill="#3366F6"/>
<rect x="74" y="85.8682" width="5" height="5" rx="0.5" transform="rotate(-10 74 85.8682)" fill="#3366F6"/>
<rect x="17" y="85.8682" width="5" height="5" rx="0.5" transform="rotate(-10 17 85.8682)" fill="#F0334E"/>
<rect x="81" y="50.8682" width="5" height="5" rx="0.5" transform="rotate(-10 81 50.8682)" fill="#F0334E"/>
<g clip-path="url(#clip0_419_428)">
<path d="M50 100C69.33 100 85 84.33 85 65C85 45.67 69.33 30 50 30C30.67 30 15 45.67 15 65C15 84.33 30.67 100 50 100Z" fill="#F6E033"/>
<path d="M37.8375 62.2C40.0121 62.2 41.775 59.8495 41.775 56.95C41.775 54.0505 40.0121 51.7 37.8375 51.7C35.6629 51.7 33.9 54.0505 33.9 56.95C33.9 59.8495 35.6629 62.2 37.8375 62.2Z" fill="black" fill-opacity="0.8"/>
<path d="M62.3375 62.2C64.5121 62.2 66.275 59.8495 66.275 56.95C66.275 54.0505 64.5121 51.7 62.3375 51.7C60.1629 51.7 58.4 54.0505 58.4 56.95C58.4 59.8495 60.1629 62.2 62.3375 62.2Z" fill="black" fill-opacity="0.8"/>
<mask id="mask0_419_428" style="mask-type:alpha" maskUnits="userSpaceOnUse" x="15" y="30" width="70" height="70">
<path d="M50 100C69.33 100 85 84.33 85 65C85 45.67 69.33 30 50 30C30.67 30 15 45.67 15 65C15 84.33 30.67 100 50 100Z" fill="url(#paint0_linear_419_428)"/>
</mask>
<g mask="url(#mask0_419_428)">
<path d="M49.3 93C68.63 93 84.3 77.33 84.3 58C84.3 38.67 68.63 23 49.3 23C29.97 23 14.3 38.67 14.3 58C14.3 77.33 29.97 93 49.3 93Z" fill="url(#paint1_radial_419_428)" fill-opacity="0.6"/>
</g>
<ellipse cx="54" cy="80" rx="4" ry="5" fill="#F08080"/>
</g>
<mask id="mask1_419_428" style="mask-type:alpha" maskUnits="userSpaceOnUse" x="53" y="77" width="38" height="6">
<path d="M53 79C53 77.8954 53.8954 77 55 77H91V78C91 80.7614 88.7614 83 86 83H55C53.8954 83 53 82.1046 53 81V79Z" fill="black"/>
</mask>
<g mask="url(#mask1_419_428)">
<rect x="53" y="83" width="6" height="39" transform="rotate(-90 53 83)" fill="url(#paint2_linear_419_428)"/>
</g>
<circle cx="87" cy="74" r="3.5" stroke="#6633CC" stroke-width="3"/>
<path d="M47.9694 4.10185C48.2969 3.29643 49.4253 3.26376 49.7988 4.04887L64.3198 34.5704C64.6355 35.234 64.1517 36 63.4168 36H36.4861C35.7762 36 35.2924 35.281 35.5597 34.6234L47.9694 4.10185Z" fill="#6633CC"/>
<defs>
<linearGradient id="paint0_linear_419_428" x1="50" y1="30" x2="50" y2="100" gradientUnits="userSpaceOnUse">
<stop stop-color="#FFB14E"/>
<stop offset="1" stop-color="#FFE433"/>
</linearGradient>
<radialGradient id="paint1_radial_419_428" cx="0" cy="0" r="1" gradientUnits="userSpaceOnUse" gradientTransform="translate(49.3 58) rotate(90) scale(35)">
<stop stop-color="white"/>
<stop offset="1" stop-color="#CCCCCC" stop-opacity="0"/>
</radialGradient>
<linearGradient id="paint2_linear_419_428" x1="56" y1="83" x2="56" y2="122" gradientUnits="userSpaceOnUse">
<stop stop-color="#F08080" stop-opacity="0"/>
<stop offset="0.135417" stop-color="#6633CC"/>
</linearGradient>
<clipPath id="clip0_419_428">
<rect width="70" height="70" fill="white" transform="translate(15 30)"/>
</clipPath>
</defs>
</svg>
