<svg width="100" height="100" viewBox="0 0 100 100" fill="none" xmlns="http://www.w3.org/2000/svg">
<g clip-path="url(#clip0_18_106)">
<circle cx="50" cy="50" r="50" fill="#F6E033"/>
<path d="M22.0368 41.5004C22.2725 38.3081 23.6264 35.3358 25.8192 33.1968C28.0121 31.0578 30.8766 29.9153 33.8218 30.0049C36.7671 30.0945 39.5683 31.4095 41.6476 33.6785C43.727 35.9475 44.9257 38.9974 44.9967 42.1991L40.6525 42.3128C40.6084 40.3209 39.8625 38.4234 38.5689 37.0118C37.2753 35.6002 35.5326 34.7821 33.7002 34.7264C31.8679 34.6706 30.0858 35.3814 28.7215 36.7121C27.3573 38.0429 26.5149 39.892 26.3684 41.8781L22.0368 41.5004Z" fill="black" fill-opacity="0.8"/>
<path d="M56.0368 41.5004C56.2725 38.3081 57.6264 35.3358 59.8192 33.1968C62.0121 31.0578 64.8766 29.9153 67.8218 30.0049C70.7671 30.0945 73.5683 31.4095 75.6476 33.6785C77.727 35.9475 78.9257 38.9974 78.9967 42.1991L74.6525 42.3128C74.6084 40.3209 73.8625 38.4234 72.5689 37.0118C71.2753 35.6002 69.5326 34.7821 67.7002 34.7264C65.8679 34.6706 64.0858 35.3814 62.7215 36.7121C61.3573 38.0429 60.5149 39.892 60.3684 41.8781L56.0368 41.5004Z" fill="black" fill-opacity="0.8"/>
<path d="M70.0036 73.3575C66.3948 76.5863 62.0581 78.8936 57.3639 80.0822C52.6697 81.2708 47.7575 81.3054 43.047 80.1831C38.3365 79.0608 33.9676 76.8149 30.3137 73.6373C26.6597 70.4597 23.8293 66.4448 22.0641 61.9356L27.3371 59.8715C28.7691 63.5296 31.0652 66.7867 34.0295 69.3645C36.9938 71.9423 40.538 73.7643 44.3594 74.6748C48.1808 75.5852 52.1658 75.5571 55.9739 74.5929C59.7821 73.6286 63.3003 71.7568 66.2279 69.1374L70.0036 73.3575Z" fill="#F08080"/>
<path d="M85.8193 55.0163L96.9776 63.0556C96.9776 63.0556 101.103 66.2886 96.156 69.7524C91.2093 73.2162 88.9629 68.692 88.9629 68.692L85.8193 55.0163Z" fill="#66CCE4" fill-opacity="0.8"/>
<path d="M14.255 54.1L3.09673 62.1393C3.09673 62.1393 -1.0285 65.3723 3.91828 68.8361C8.86506 72.2998 11.1114 67.7757 11.1114 67.7757L14.255 54.1Z" fill="#66CCE4" fill-opacity="0.8"/>
<mask id="mask0_18_106" style="mask-type:alpha" maskUnits="userSpaceOnUse" x="0" y="0" width="100" height="100">
<circle cx="50" cy="50" r="50" fill="url(#paint0_linear_18_106)"/>
</mask>
<g mask="url(#mask0_18_106)">
<circle cx="49" cy="40" r="50" fill="url(#paint1_radial_18_106)" fill-opacity="0.6"/>
</g>
</g>
<defs>
<linearGradient id="paint0_linear_18_106" x1="50" y1="0" x2="50" y2="100" gradientUnits="userSpaceOnUse">
<stop stop-color="#FFB14E"/>
<stop offset="1" stop-color="#FFE433"/>
</linearGradient>
<radialGradient id="paint1_radial_18_106" cx="0" cy="0" r="1" gradientUnits="userSpaceOnUse" gradientTransform="translate(49 40) rotate(90) scale(50)">
<stop stop-color="white"/>
<stop offset="1" stop-color="#CCCCCC" stop-opacity="0"/>
</radialGradient>
<clipPath id="clip0_18_106">
<rect width="100" height="100" fill="white"/>
</clipPath>
</defs>
</svg>
