<svg width="100" height="100" viewBox="0 0 100 100" fill="none" xmlns="http://www.w3.org/2000/svg">
<g clip-path="url(#clip0_18_106)">
<circle cx="50" cy="50" r="50" fill="#FF6699"/>
<mask id="mask0_18_106" style="mask-type:alpha" maskUnits="userSpaceOnUse" x="57" y="25" width="26" height="26">
<g opacity="0.9">
<path d="M81.8406 34.8838C81.2514 39.0936 72.7122 48.8648 68.1798 48.0656C63.6474 47.2664 59.3991 35.4771 60.1372 31.2913C62.5898 23.1275 72.0928 24.9594 70.5288 32.811C71.9587 24.7014 82.9613 26.8758 81.8406 34.8838Z" fill="black"/>
<path d="M81.8406 34.8838C81.2514 39.0936 72.7122 48.8648 68.1798 48.0656C63.6474 47.2664 59.3991 35.4771 60.1372 31.2913C62.5898 23.1275 72.0928 24.9594 70.5288 32.811C71.9587 24.7014 82.9613 26.8758 81.8406 34.8838Z" fill="black"/>
</g>
</mask>
<g mask="url(#mask0_18_106)">
<rect x="60.2975" y="23.3435" width="24.4444" height="24.4444" transform="rotate(10 60.2975 23.3435)" fill="black" fill-opacity="0.8"/>
<circle cx="70.7211" cy="34.6136" r="15.2778" transform="rotate(10 70.7211 34.6136)" fill="url(#paint0_radial_18_106)" fill-opacity="0.2"/>
</g>
<mask id="mask1_18_106" style="mask-type:alpha" maskUnits="userSpaceOnUse" x="17" y="24" width="26" height="26">
<g opacity="0.9">
<path d="M39.8425 30.5435C40.7287 34.7009 36.0464 46.8035 31.514 47.6026C26.9816 48.4018 18.9574 38.7766 18.2193 34.5907C17.7318 26.0804 27.2883 24.5516 28.504 32.4647C27.074 24.355 38.1568 22.6352 39.8425 30.5435Z" fill="black"/>
<path d="M39.8425 30.5435C40.7287 34.7009 36.0464 46.8035 31.514 47.6026C26.9816 48.4018 18.9574 38.7766 18.2193 34.5907C17.7318 26.0804 27.2883 24.5516 28.504 32.4647C27.074 24.355 38.1568 22.6352 39.8425 30.5435Z" fill="black"/>
</g>
</mask>
<g mask="url(#mask1_18_106)">
<rect x="15.6517" y="27.0674" width="24.4444" height="24.4444" transform="rotate(-10 15.6517 27.0674)" fill="black" fill-opacity="0.8"/>
<circle cx="29.3012" cy="34.0928" r="15.2778" transform="rotate(-10 29.3012 34.0928)" fill="url(#paint1_radial_18_106)" fill-opacity="0.2"/>
</g>
<path d="M70.0036 79.3575C66.3948 82.5863 62.0581 84.8936 57.3639 86.0822C52.6697 87.2708 47.7575 87.3054 43.047 86.1831C38.3365 85.0608 33.9676 82.8149 30.3137 79.6373C26.6597 76.4597 23.8293 72.4448 22.0641 67.9356L27.3371 65.8715C28.7691 69.5296 31.0652 72.7867 34.0295 75.3645C36.9938 77.9423 40.538 79.7643 44.3594 80.6748C48.1808 81.5852 52.1658 81.5571 55.9739 80.5929C59.7821 79.6286 63.3003 77.7568 66.2279 75.1374L70.0036 79.3575Z" fill="#4E4E4E"/>
<mask id="mask2_18_106" style="mask-type:alpha" maskUnits="userSpaceOnUse" x="0" y="0" width="100" height="100">
<circle cx="50" cy="50" r="50" fill="url(#paint2_linear_18_106)"/>
</mask>
<g mask="url(#mask2_18_106)">
<circle cx="50" cy="39" r="50" fill="url(#paint3_radial_18_106)" fill-opacity="0.6"/>
</g>
</g>
<defs>
<radialGradient id="paint0_radial_18_106" cx="0" cy="0" r="1" gradientUnits="userSpaceOnUse" gradientTransform="translate(70.7211 34.6136) rotate(90) scale(15.2778)">
<stop stop-color="white"/>
<stop offset="1" stop-color="#CCCCCC" stop-opacity="0"/>
</radialGradient>
<radialGradient id="paint1_radial_18_106" cx="0" cy="0" r="1" gradientUnits="userSpaceOnUse" gradientTransform="translate(29.3012 34.0928) rotate(90) scale(15.2778)">
<stop stop-color="white"/>
<stop offset="1" stop-color="#CCCCCC" stop-opacity="0"/>
</radialGradient>
<linearGradient id="paint2_linear_18_106" x1="50" y1="0" x2="50" y2="100" gradientUnits="userSpaceOnUse">
<stop stop-color="#FFB14E"/>
<stop offset="1" stop-color="#FFE433"/>
</linearGradient>
<radialGradient id="paint3_radial_18_106" cx="0" cy="0" r="1" gradientUnits="userSpaceOnUse" gradientTransform="translate(50 39) rotate(90) scale(50)">
<stop stop-color="white"/>
<stop offset="1" stop-color="#CCCCCC" stop-opacity="0"/>
</radialGradient>
<clipPath id="clip0_18_106">
<rect width="100" height="100" fill="white"/>
</clipPath>
</defs>
</svg>
