<svg width="100" height="100" viewBox="0 0 100 100" fill="none" xmlns="http://www.w3.org/2000/svg">
<g clip-path="url(#clip0_18_106)">
<circle cx="50" cy="50" r="50" fill="#F6E033"/>
<circle r="10" transform="matrix(-1 0 0 1 71 45)" fill="black" fill-opacity="0.8"/>
<circle r="1.5" transform="matrix(-1 0 0 1 66.5 49.5)" fill="white" fill-opacity="0.7"/>
<rect width="7.32479" height="11.8189" rx="3.6624" transform="matrix(-0.642788 0.766044 0.766044 0.642788 71.6429 35.4154)" fill="#D9D9D9"/>
<path d="M84.9149 38.6218C80.4309 35.7966 76.7725 31.7651 74.3298 26.9575L77.4102 25.2826C79.5598 29.5133 82.7792 33.061 86.7251 35.5472L84.9149 38.6218Z" fill="#222211"/>
<circle cx="29" cy="45" r="10" fill="black" fill-opacity="0.8"/>
<circle cx="33.5" cy="49.5" r="1.5" fill="white" fill-opacity="0.7"/>
<rect x="28.3571" y="35.4154" width="7.32479" height="11.8189" rx="3.6624" transform="rotate(50 28.3571 35.4154)" fill="#D9D9D9"/>
<path d="M15.0851 38.6218C19.5691 35.7966 23.2275 31.7651 25.6702 26.9575L22.5898 25.2826C20.4402 29.5133 17.2208 33.061 13.2749 35.5472L15.0851 38.6218Z" fill="#222211"/>
<path d="M33.1815 70.9135C44.3926 66.9091 56.6647 67.0362 67.7905 71.2721L65.6556 76.8794C55.8649 73.1519 45.0655 73.04 35.1997 76.5639L33.1815 70.9135Z" fill="#F08080"/>
<mask id="mask0_18_106" style="mask-type:alpha" maskUnits="userSpaceOnUse" x="0" y="0" width="100" height="100">
<circle cx="50" cy="50" r="50" fill="url(#paint0_linear_18_106)"/>
</mask>
<g mask="url(#mask0_18_106)">
<circle cx="49" cy="40" r="50" fill="url(#paint1_radial_18_106)" fill-opacity="0.6"/>
</g>
</g>
<defs>
<linearGradient id="paint0_linear_18_106" x1="50" y1="0" x2="50" y2="100" gradientUnits="userSpaceOnUse">
<stop stop-color="#FFB14E"/>
<stop offset="1" stop-color="#FFE433"/>
</linearGradient>
<radialGradient id="paint1_radial_18_106" cx="0" cy="0" r="1" gradientUnits="userSpaceOnUse" gradientTransform="translate(49 40) rotate(90) scale(50)">
<stop stop-color="white"/>
<stop offset="1" stop-color="#CCCCCC" stop-opacity="0"/>
</radialGradient>
<clipPath id="clip0_18_106">
<rect width="100" height="100" fill="white"/>
</clipPath>
</defs>
</svg>
