<svg width="100" height="100" viewBox="0 0 100 100" fill="none" xmlns="http://www.w3.org/2000/svg">
<g clip-path="url(#clip0_18_106)">
<circle cx="50" cy="50" r="50" fill="#F6E033"/>
<rect x="27" y="37" width="11.25" height="4" rx="1.5" fill="black" fill-opacity="0.8"/>
<ellipse cx="67.625" cy="38.5" rx="5.625" ry="7.5" fill="black" fill-opacity="0.8"/>
<path d="M73 62C73 65.4144 72.4051 68.7953 71.2492 71.9498C70.0934 75.1042 68.3992 77.9705 66.2635 80.3848C64.1277 82.7991 61.5922 84.7142 58.8017 86.0209C56.0112 87.3275 53.0204 88 50 88C46.9796 88 43.9888 87.3275 41.1983 86.0209C38.4078 84.7142 35.8723 82.7991 33.7365 80.3848C31.6008 77.9705 29.9066 75.1042 28.7508 71.9498C27.5949 68.7953 27 65.4144 27 62L50 62H73Z" fill="#CC6666"/>
<rect x="43.25" y="69.25" width="13.5" height="24.5" rx="4.25" fill="url(#paint0_linear_18_106)" stroke="url(#paint1_linear_18_106)" stroke-width="0.5"/>
<mask id="mask0_18_106" style="mask-type:alpha" maskUnits="userSpaceOnUse" x="0" y="0" width="100" height="100">
<circle cx="50" cy="50" r="50" fill="url(#paint2_linear_18_106)"/>
</mask>
<g mask="url(#mask0_18_106)">
<circle cx="49" cy="40" r="50" fill="url(#paint3_radial_18_106)" fill-opacity="0.6"/>
</g>
</g>
<defs>
<linearGradient id="paint0_linear_18_106" x1="50" y1="69" x2="50" y2="94" gradientUnits="userSpaceOnUse">
<stop stop-color="#F08080" stop-opacity="0"/>
<stop offset="0.671875" stop-color="#F08080" stop-opacity="0.9"/>
<stop offset="0.786458" stop-color="#F08080"/>
</linearGradient>
<linearGradient id="paint1_linear_18_106" x1="50" y1="69" x2="50" y2="94" gradientUnits="userSpaceOnUse">
<stop offset="0.208333" stop-color="#CD7474" stop-opacity="0"/>
<stop offset="1" stop-color="#222222"/>
</linearGradient>
<linearGradient id="paint2_linear_18_106" x1="50" y1="0" x2="50" y2="100" gradientUnits="userSpaceOnUse">
<stop stop-color="#FFB14E"/>
<stop offset="1" stop-color="#FFE433"/>
</linearGradient>
<radialGradient id="paint3_radial_18_106" cx="0" cy="0" r="1" gradientUnits="userSpaceOnUse" gradientTransform="translate(49 40) rotate(90) scale(50)">
<stop stop-color="white"/>
<stop offset="1" stop-color="#CCCCCC" stop-opacity="0"/>
</radialGradient>
<clipPath id="clip0_18_106">
<rect width="100" height="100" fill="white"/>
</clipPath>
</defs>
</svg>
