<svg width="100" height="100" viewBox="0 0 100 100" fill="none" xmlns="http://www.w3.org/2000/svg">
<g clip-path="url(#clip0_18_106)">
<circle cx="50" cy="50" r="50" fill="#F6E033"/>
<mask id="mask0_18_106" style="mask-type:alpha" maskUnits="userSpaceOnUse" x="51" y="18" width="39" height="39">
<path d="M72.9772 23.1796L74.6314 33.4303L84.8182 35.4413L75.5804 40.1822L76.8157 50.4918L69.4521 43.1712L60.0288 47.5318L64.7157 38.2665L57.6565 30.652L67.9167 32.2463L72.9772 23.1796Z" fill="black"/>
</mask>
<g mask="url(#mask0_18_106)">
<rect x="56.726" y="18.177" width="35" height="35" transform="rotate(10 56.726 18.177)" fill="#4E3311"/>
<circle cx="70.2425" cy="31.6261" r="15.2778" transform="rotate(10 70.2425 31.6261)" fill="url(#paint0_radial_18_106)" fill-opacity="0.2"/>
</g>
<mask id="mask1_18_106" style="mask-type:alpha" maskUnits="userSpaceOnUse" x="17" y="25" width="29" height="29">
<path d="M28.9821 25.2203L34.0425 34.287L44.3027 32.6927L37.2435 40.3072L41.9304 49.5726L32.5071 45.2119L25.1436 52.5325L26.3789 42.2229L17.1411 37.482L27.3278 35.471L28.9821 25.2203Z" fill="black"/>
</mask>
<g mask="url(#mask1_18_106)">
<rect x="12" y="26.0777" width="35" height="35" transform="rotate(-10 12 26.0777)" fill="#4E3311"/>
<circle cx="29.3012" cy="34.0928" r="15.2778" transform="rotate(-10 29.3012 34.0928)" fill="url(#paint1_radial_18_106)" fill-opacity="0.2"/>
</g>
<rect x="29" y="70" width="42" height="7" rx="3.5" fill="#F08080"/>
<mask id="mask2_18_106" style="mask-type:alpha" maskUnits="userSpaceOnUse" x="0" y="0" width="100" height="100">
<circle cx="50" cy="50" r="50" fill="url(#paint2_linear_18_106)"/>
</mask>
<g mask="url(#mask2_18_106)">
<circle cx="49" cy="40" r="50" fill="url(#paint3_radial_18_106)" fill-opacity="0.6"/>
</g>
</g>
<defs>
<radialGradient id="paint0_radial_18_106" cx="0" cy="0" r="1" gradientUnits="userSpaceOnUse" gradientTransform="translate(70.2425 31.6261) rotate(90) scale(15.2778)">
<stop stop-color="white"/>
<stop offset="1" stop-color="#CCCCCC" stop-opacity="0"/>
</radialGradient>
<radialGradient id="paint1_radial_18_106" cx="0" cy="0" r="1" gradientUnits="userSpaceOnUse" gradientTransform="translate(29.3012 34.0928) rotate(90) scale(15.2778)">
<stop stop-color="white"/>
<stop offset="1" stop-color="#CCCCCC" stop-opacity="0"/>
</radialGradient>
<linearGradient id="paint2_linear_18_106" x1="50" y1="0" x2="50" y2="100" gradientUnits="userSpaceOnUse">
<stop stop-color="#FFB14E"/>
<stop offset="1" stop-color="#FFE433"/>
</linearGradient>
<radialGradient id="paint3_radial_18_106" cx="0" cy="0" r="1" gradientUnits="userSpaceOnUse" gradientTransform="translate(49 40) rotate(90) scale(50)">
<stop stop-color="white"/>
<stop offset="1" stop-color="#CCCCCC" stop-opacity="0"/>
</radialGradient>
<clipPath id="clip0_18_106">
<rect width="100" height="100" fill="white"/>
</clipPath>
</defs>
</svg>
