<svg width="100" height="100" viewBox="0 0 100 100" fill="none" xmlns="http://www.w3.org/2000/svg">
<g clip-path="url(#clip0_18_106)">
<circle cx="50" cy="50" r="50" fill="#F6E033"/>
<circle cx="33" cy="39" r="5" fill="black" fill-opacity="0.8"/>
<circle cx="67" cy="39" r="5" fill="black" fill-opacity="0.8"/>
<path d="M70 66C70 68.6264 69.4827 71.2272 68.4776 73.6537C67.4725 76.0802 65.9993 78.285 64.1421 80.1421C62.285 81.9993 60.0802 83.4725 57.6537 84.4776C55.2272 85.4827 52.6264 86 50 86C47.3736 86 44.7728 85.4827 42.3463 84.4776C39.9198 83.4725 37.715 81.9993 35.8579 80.1421C34.0007 78.285 32.5275 76.0802 31.5224 73.6537C30.5173 71.2272 30 68.6264 30 66L50 66H70Z" fill="#F08080"/>
<circle cx="50" cy="39" r="50" fill="url(#paint0_radial_18_106)" fill-opacity="0.6"/>
</g>
<defs>
<radialGradient id="paint0_radial_18_106" cx="0" cy="0" r="1" gradientUnits="userSpaceOnUse" gradientTransform="translate(50 39) rotate(90) scale(50)">
<stop stop-color="white"/>
<stop offset="1" stop-color="#CCCCCC" stop-opacity="0"/>
</radialGradient>
<clipPath id="clip0_18_106">
<rect width="100" height="100" fill="white"/>
</clipPath>
</defs>
</svg>
