<svg version="1.1" viewBox="0.0 0.0 96.0 96.0" fill="none" stroke="none" stroke-linecap="square" stroke-miterlimit="10" xmlns:xlink="http://www.w3.org/1999/xlink" xmlns="http://www.w3.org/2000/svg"><clipPath id="p.0"><path d="m0 0l96.0 0l0 96.0l-96.0 0l0 -96.0z" clip-rule="nonzero"/></clipPath><g clip-path="url(#p.0)"><path fill="#000000" fill-opacity="0.0" d="m0 0l96.0 0l0 96.0l-96.0 0z" fill-rule="evenodd"/><path fill="#ffffff" d="m12.0 48.0l0 0c0 -19.882252 16.117748 -36.0 36.0 -36.0l0 0c9.547794 0 18.704536 3.7928467 25.455841 10.544155c6.7513123 6.7513103 10.544159 15.908051 10.544159 25.455845l0 0c0 19.882248 -16.117752 36.0 -36.0 36.0l0 0c-19.882252 0 -36.0 -16.117752 -36.0 -36.0z" fill-rule="evenodd"/><path fill="#f0f0f0" d="m36.839973 57.860893l21.9211 0c1.0608864 0 2.0783234 0.4214363 2.8284836 1.1715965c0.7501602 0.7501602 1.1715965 1.7675972 1.1715965 2.8284836l0 19.99992c0 1.373291E-4 -1.1062622E-4 2.5177002E-4 -2.4795532E-4 2.5177002E-4l-29.921013 -2.5177002E-4l0 0c-1.373291E-4 0 -2.4795532E-4 -1.1444092E-4 -2.4795532E-4 -2.5177002E-4l2.4795532E-4 -19.999668l0 0c0 -2.2091827 1.7908974 -4.00008 4.00008 -4.00008z" fill-rule="evenodd"/><path fill="#333333" d="m51.7165 72.71391l-7.4329987 0l0 0c-0.4677925 0 -0.9164276 -0.18582916 -1.2472076 -0.5166092c-0.3307762 -0.33078003 -0.5166092 -0.7794113 -0.5166092 -1.2472076l0 -8.818863c0 -4.9591064E-5 4.196167E-5 -9.1552734E-5 9.1552734E-5 -9.1552734E-5l10.960541 9.1552734E-5l0 0c4.9591064E-5 0 9.1552734E-5 4.196167E-5 9.1552734E-5 9.1552734E-5l-9.1552734E-5 8.818771l0 0c0 0.9741287 -0.7896881 1.7638168 -1.7638168 1.7638168z" fill-rule="evenodd"/><path fill="#000000" fill-opacity="0.0" d="m48.0 72.71391l-0.37795258 6.9291306" fill-rule="evenodd"/><path stroke="#666666" stroke-width="1.0" stroke-linejoin="round" stroke-linecap="butt" d="m48.0 72.71391l-0.37795258 6.9291306" fill-rule="evenodd"/><path fill="#000000" fill-opacity="0.0" d="m36.09186 81.86089l11.716537 -2.803154" fill-rule="evenodd"/><path stroke="#666666" stroke-width="1.0" stroke-linejoin="round" stroke-linecap="butt" d="m36.09186 81.86089l11.716537 -2.803154" fill-rule="evenodd"/><path fill="#000000" fill-opacity="0.0" d="m47.8084 79.05774l12.472439 2.614174" fill-rule="evenodd"/><path stroke="#666666" stroke-width="1.0" stroke-linejoin="round" stroke-linecap="butt" d="m47.8084 79.05774l12.472439 2.614174" fill-rule="evenodd"/><path fill="#996600" d="m16.939632 36.09974l0 0c0 -6.566536 6.4442787 -11.889765 14.393702 -11.889765l0 0c7.949419 0 14.393702 5.323229 14.393702 11.889765l0 0c0 6.566532 -6.4442825 11.889763 -14.393702 11.889763l0 0c-7.949423 0 -14.393702 -5.3232307 -14.393702 -11.889763z" fill-rule="evenodd"/><path fill="#ffffff" d="m30.72 36.98819l0 0c3.9747105 0 7.1968517 2.2491531 7.1968517 5.0236206q0 2.5118103 0 5.0236244q-3.5984268 0 -7.1968517 0l0 0c-3.9747105 0 -7.19685 -2.2491531 -7.19685 -5.0236244l0 0c0 -2.7744675 3.2221394 -5.0236206 7.19685 -5.0236206z" fill-rule="evenodd"/><path stroke="#000000" stroke-width="1.0" stroke-linejoin="round" stroke-linecap="butt" d="m30.72 36.98819l0 0c3.9747105 0 7.1968517 2.2491531 7.1968517 5.0236206q0 2.5118103 0 5.0236244q-3.5984268 0 -7.1968517 0l0 0c-3.9747105 0 -7.19685 -2.2491531 -7.19685 -5.0236244l0 0c0 -2.7744675 3.2221394 -5.0236206 7.19685 -5.0236206z" fill-rule="evenodd"/><path fill="#996600" d="m23.52315 42.232285l0 0c0 -2.6527061 2.150444 -4.80315 4.80315 -4.80315l0 0c1.2738743 0 2.495573 0.5060425 3.3963394 1.4068108c0.9007664 0.90076447 1.4068089 2.1224632 1.4068089 3.3963394l0 0c0 2.6527061 -2.1504421 4.80315 -4.8031483 4.80315l0 0c-2.6527061 0 -4.80315 -2.150444 -4.80315 -4.80315z" fill-rule="evenodd"/><path stroke="#000000" stroke-width="1.0" stroke-linejoin="round" stroke-linecap="butt" d="m23.52315 42.232285l0 0c0 -2.6527061 2.150444 -4.80315 4.80315 -4.80315l0 0c1.2738743 0 2.495573 0.5060425 3.3963394 1.4068108c0.9007664 0.90076447 1.4068089 2.1224632 1.4068089 3.3963394l0 0c0 2.6527061 -2.1504421 4.80315 -4.8031483 4.80315l0 0c-2.6527061 0 -4.80315 -2.150444 -4.80315 -4.80315z" fill-rule="evenodd"/><path fill="#000000" d="m25.932598 42.232285l0 0c0 -1.3220062 1.0716972 -2.3937035 2.3937016 -2.3937035l0 0c0.63484764 0 1.2436962 0.25219345 1.6926022 0.7010994c0.44890594 0.44890594 0.7010975 1.0577545 0.7010975 1.6926041l0 0c0 1.3220024 -1.0716953 2.3936996 -2.3936996 2.3936996l0 0c-1.3220043 0 -2.3937016 -1.0716972 -2.3937016 -2.3936996z" fill-rule="evenodd"/><path stroke="#000000" stroke-width="1.0" stroke-linejoin="round" stroke-linecap="butt" d="m25.932598 42.232285l0 0c0 -1.3220062 1.0716972 -2.3937035 2.3937016 -2.3937035l0 0c0.63484764 0 1.2436962 0.25219345 1.6926022 0.7010994c0.44890594 0.44890594 0.7010975 1.0577545 0.7010975 1.6926041l0 0c0 1.3220024 -1.0716953 2.3936996 -2.3936996 2.3936996l0 0c-1.3220043 0 -2.3937016 -1.0716972 -2.3937016 -2.3936996z" fill-rule="evenodd"/><path fill="#ffffff" d="m59.797554 81.84814c0.21582413 1.1109848 -2.164753 2.1559525 -6.144989 2.6973877c-3.9802322 0.5414276 -8.873337 0.48589325 -12.630569 -0.14335632c-3.7572289 -0.6292496 -5.7302856 -1.7236328 -5.0930405 -2.824936l11.882069 0.40964508z" fill-rule="evenodd"/><path fill="#ffcccc" d="m63.158253 18.636808l13.00787 19.433073l-0.44094086 -27.874018z" fill-rule="evenodd"/><path stroke="#ffffff" stroke-width="2.0" stroke-linejoin="round" stroke-linecap="butt" d="m63.158253 18.636808l13.00787 19.433073l-0.44094086 -27.874018z" fill-rule="evenodd"/><path fill="#ffcccc" d="m32.841103 18.371065l-13.007874 19.43307l0.44094467 -27.874014z" fill-rule="evenodd"/><path stroke="#996600" stroke-width="2.0" stroke-linejoin="round" stroke-linecap="butt" d="m32.841103 18.371065l-13.007874 19.43307l0.44094467 -27.874014z" fill-rule="evenodd"/><path fill="#ffffff" d="m65.28 37.216377l0 0c-3.9747086 0 -7.19685 2.2491531 -7.19685 5.0236244q0 2.5118103 0 5.0236206q3.5984268 0 7.19685 0l0 0c3.9747086 0 7.1968536 -2.2491531 7.1968536 -5.0236206l0 0c0 -2.7744713 -3.222145 -5.0236244 -7.1968536 -5.0236244z" fill-rule="evenodd"/><path stroke="#000000" stroke-width="1.0" stroke-linejoin="round" stroke-linecap="butt" d="m65.28 37.216377l0 0c-3.9747086 0 -7.19685 2.2491531 -7.19685 5.0236244q0 2.5118103 0 5.0236206q3.5984268 0 7.19685 0l0 0c3.9747086 0 7.1968536 -2.2491531 7.1968536 -5.0236206l0 0c0 -2.7744713 -3.222145 -5.0236244 -7.1968536 -5.0236244z" fill-rule="evenodd"/><path fill="#996600" d="m72.47685 42.460472l0 0c0 -2.6527061 -2.150444 -4.80315 -4.803154 -4.80315l0 0c-1.2738724 0 -2.495575 0.5060463 -3.3963394 1.4068108c-0.90076447 0.90076447 -1.406807 2.122467 -1.406807 3.3963394l0 0c0 2.6527061 2.150444 4.80315 4.8031464 4.80315l0 0c2.65271 0 4.803154 -2.150444 4.803154 -4.80315z" fill-rule="evenodd"/><path stroke="#000000" stroke-width="1.0" stroke-linejoin="round" stroke-linecap="butt" d="m72.47685 42.460472l0 0c0 -2.6527061 -2.150444 -4.80315 -4.803154 -4.80315l0 0c-1.2738724 0 -2.495575 0.5060463 -3.3963394 1.4068108c-0.90076447 0.90076447 -1.406807 2.122467 -1.406807 3.3963394l0 0c0 2.6527061 2.150444 4.80315 4.8031464 4.80315l0 0c2.65271 0 4.803154 -2.150444 4.803154 -4.80315z" fill-rule="evenodd"/><path fill="#000000" d="m70.0674 42.460472l0 0c0 -1.3220024 -1.0716934 -2.3936996 -2.3936996 -2.3936996l0 0c-0.63484955 0 -1.2436905 0.25219345 -1.6925964 0.7010994c-0.44890594 0.44890594 -0.7011032 1.0577507 -0.7011032 1.6926003l0 0c0 1.3220062 1.071701 2.3936996 2.3936996 2.3936996l0 0c1.3220062 0 2.3936996 -1.0716934 2.3936996 -2.3936996z" fill-rule="evenodd"/><path stroke="#000000" stroke-width="1.0" stroke-linejoin="round" stroke-linecap="butt" d="m70.0674 42.460472l0 0c0 -1.3220024 -1.0716934 -2.3936996 -2.3936996 -2.3936996l0 0c-0.63484955 0 -1.2436905 0.25219345 -1.6925964 0.7010994c-0.44890594 0.44890594 -0.7011032 1.0577507 -0.7011032 1.6926003l0 0c0 1.3220062 1.071701 2.3936996 2.3936996 2.3936996l0 0c1.3220062 0 2.3936996 -1.0716934 2.3936996 -2.3936996z" fill-rule="evenodd"/></g></svg>