<svg version="1.1" viewBox="0.0 0.0 96.0 96.0" fill="none" stroke="none" stroke-linecap="square" stroke-miterlimit="10" xmlns:xlink="http://www.w3.org/1999/xlink" xmlns="http://www.w3.org/2000/svg"><clipPath id="p.0"><path d="m0 0l96.0 0l0 96.0l-96.0 0l0 -96.0z" clip-rule="nonzero"/></clipPath><g clip-path="url(#p.0)"><path fill="#000000" fill-opacity="0.0" d="m0 0l96.0 0l0 96.0l-96.0 0z" fill-rule="evenodd"/><path fill="#999999" d="m12.0 48.0l0 0c0 -19.882252 16.117748 -36.0 36.0 -36.0l0 0c9.547794 0 18.704536 3.7928467 25.455841 10.544155c6.7513123 6.7513103 10.544159 15.908051 10.544159 25.455845l0 0c0 19.882248 -16.117752 36.0 -36.0 36.0l0 0c-19.882252 0 -36.0 -16.117752 -36.0 -36.0z" fill-rule="evenodd"/><path fill="#cccccc" d="m39.963333 58.076115l16.073334 0l0 0c1.0511398 0 2.0592308 0.4175644 2.8024979 1.1608353c0.7432709 0.74326706 1.1608353 1.751358 1.1608353 2.8024979l0 19.816196c0 1.0681152E-4 -8.773804E-5 1.9836426E-4 -1.9836426E-4 1.9836426E-4l-23.999802 -1.9836426E-4l0 0c-1.1062622E-4 0 -1.9836426E-4 -9.1552734E-5 -1.9836426E-4 -1.9836426E-4l1.9836426E-4 -19.815998l0 0c0 -2.1888885 1.7744446 -3.9633331 3.9633331 -3.9633331z" fill-rule="evenodd"/><path fill="#666666" d="m51.20207 72.71391l-6.4041367 0l0 0c-0.42463303 0 -0.83187485 -0.16868591 -1.1321335 -0.46894836c-0.30026245 -0.30026245 -0.46894836 -0.7075043 -0.46894836 -1.1321335l0 -8.0052185c0 -4.5776367E-5 3.8146973E-5 -8.010864E-5 8.010864E-5 -8.010864E-5l9.60622 8.010864E-5l0 0c4.196167E-5 0 8.010864E-5 3.4332275E-5 8.010864E-5 8.010864E-5l-8.010864E-5 8.005138l0 0c0 0.88425446 -0.7168312 1.6010818 -1.6010818 1.6010818z" fill-rule="evenodd"/><path fill="#000000" fill-opacity="0.0" d="m48.0 72.71391l-0.37795258 6.9291306" fill-rule="evenodd"/><path stroke="#666666" stroke-width="1.0" stroke-linejoin="round" stroke-linecap="butt" d="m48.0 72.71391l-0.37795258 6.9291306" fill-rule="evenodd"/><path fill="#000000" fill-opacity="0.0" d="m36.09186 81.86089l11.716537 -2.803154" fill-rule="evenodd"/><path stroke="#666666" stroke-width="1.0" stroke-linejoin="round" stroke-linecap="butt" d="m36.09186 81.86089l11.716537 -2.803154" fill-rule="evenodd"/><path fill="#000000" fill-opacity="0.0" d="m47.8084 79.05774l12.472439 2.614174" fill-rule="evenodd"/><path stroke="#666666" stroke-width="1.0" stroke-linejoin="round" stroke-linecap="butt" d="m47.8084 79.05774l12.472439 2.614174" fill-rule="evenodd"/><path fill="#ffffff" d="m30.72 36.98819l0 0c3.9747105 0 7.1968517 2.2491531 7.1968517 5.0236206q0 2.5118103 0 5.0236244q-3.5984268 0 -7.1968517 0l0 0c-3.9747105 0 -7.19685 -2.2491531 -7.19685 -5.0236244l0 0c0 -2.7744675 3.2221394 -5.0236206 7.19685 -5.0236206z" fill-rule="evenodd"/><path fill="#996600" d="m23.52315 42.232285l0 0c0 -2.6527061 2.150444 -4.80315 4.80315 -4.80315l0 0c1.2738743 0 2.495573 0.5060425 3.3963394 1.4068108c0.9007664 0.90076447 1.4068089 2.1224632 1.4068089 3.3963394l0 0c0 2.6527061 -2.1504421 4.80315 -4.8031483 4.80315l0 0c-2.6527061 0 -4.80315 -2.150444 -4.80315 -4.80315z" fill-rule="evenodd"/><path fill="#000000" d="m25.932598 42.232285l0 0c0 -1.3220062 1.0716972 -2.3937035 2.3937016 -2.3937035l0 0c0.63484764 0 1.2436962 0.25219345 1.6926022 0.7010994c0.44890594 0.44890594 0.7010975 1.0577545 0.7010975 1.6926041l0 0c0 1.3220024 -1.0716953 2.3936996 -2.3936996 2.3936996l0 0c-1.3220043 0 -2.3937016 -1.0716972 -2.3937016 -2.3936996z" fill-rule="evenodd"/><path fill="#ffffff" d="m65.28 36.989502l0 0c-3.9747086 0 -7.19685 2.2491531 -7.19685 5.0236206q0 2.5118103 0 5.0236244q3.5984268 0 7.19685 0l0 0c3.9747086 0 7.1968536 -2.2491531 7.1968536 -5.0236244l0 0c0 -2.7744675 -3.222145 -5.0236206 -7.1968536 -5.0236206z" fill-rule="evenodd"/><path fill="#996600" d="m62.870552 42.233597l0 0c0 -2.6527061 2.150444 -4.80315 4.8031464 -4.80315l0 0c1.27388 0 2.495575 0.5060425 3.3963394 1.4068108c0.90076447 0.90076447 1.4068146 2.1224632 1.4068146 3.3963394l0 0c0 2.6527061 -2.150444 4.80315 -4.803154 4.80315l0 0c-2.6527023 0 -4.8031464 -2.150444 -4.8031464 -4.80315z" fill-rule="evenodd"/><path fill="#000000" d="m65.28 42.233597l0 0c0 -1.3220062 1.071701 -2.3937035 2.3936996 -2.3937035l0 0c0.63484955 0 1.2436981 0.25219345 1.6926041 0.7010994c0.44890594 0.44890594 0.7010956 1.0577545 0.7010956 1.6926041l0 0c0 1.3220024 -1.0716934 2.3936996 -2.3936996 2.3936996l0 0c-1.3219986 0 -2.3936996 -1.0716972 -2.3936996 -2.3936996z" fill-rule="evenodd"/><path fill="#ffffff" d="m59.797554 81.84814c0.21582413 1.1109848 -2.164753 2.1559525 -6.144989 2.6973877c-3.9802322 0.5414276 -8.873337 0.48589325 -12.630569 -0.14335632c-3.7572289 -0.6292496 -5.7302856 -1.7236328 -5.0930405 -2.824936l11.882069 0.40964508z" fill-rule="evenodd"/><path fill="#ffcccc" d="m63.26455 19.729681l13.007874 19.43307l-0.44094086 -27.874014z" fill-rule="evenodd"/><path stroke="#999999" stroke-width="2.0" stroke-linejoin="round" stroke-linecap="butt" d="m63.26455 19.729681l13.007874 19.43307l-0.44094086 -27.874014z" fill-rule="evenodd"/><path fill="#ffcccc" d="m32.947403 19.463938l-13.007875 19.43307l0.44094467 -27.874016z" fill-rule="evenodd"/><path stroke="#999999" stroke-width="2.0" stroke-linejoin="round" stroke-linecap="butt" d="m32.947403 19.463938l-13.007875 19.43307l0.44094467 -27.874016z" fill-rule="evenodd"/></g></svg>