<svg version="1.1" viewBox="0.0 0.0 96.0 96.0" fill="none" stroke="none" stroke-linecap="square" stroke-miterlimit="10" xmlns:xlink="http://www.w3.org/1999/xlink" xmlns="http://www.w3.org/2000/svg"><clipPath id="p.0"><path d="m0 0l96.0 0l0 96.0l-96.0 0l0 -96.0z" clip-rule="nonzero"/></clipPath><g clip-path="url(#p.0)"><path fill="#000000" fill-opacity="0.0" d="m0 0l96.0 0l0 96.0l-96.0 0z" fill-rule="evenodd"/><path fill="#fff0b1" d="m12.0 48.0l0 0c0 -19.882252 16.117748 -36.0 36.0 -36.0l0 0c9.547794 0 18.704536 3.7928467 25.455841 10.544155c6.7513123 6.7513103 10.544159 15.908051 10.544159 25.455845l0 0c0 19.882248 -16.117752 36.0 -36.0 36.0l0 0c-19.882252 0 -36.0 -16.117752 -36.0 -36.0z" fill-rule="evenodd"/><path fill="#ffffff" d="m39.963333 58.076115l16.073334 0l0 0c1.0511398 0 2.0592308 0.4175644 2.8024979 1.1608353c0.7432709 0.74326706 1.1608353 1.751358 1.1608353 2.8024979l0 19.816196c0 1.0681152E-4 -8.773804E-5 1.9836426E-4 -1.9836426E-4 1.9836426E-4l-23.999802 -1.9836426E-4l0 0c-1.1062622E-4 0 -1.9836426E-4 -9.1552734E-5 -1.9836426E-4 -1.9836426E-4l1.9836426E-4 -19.815998l0 0c0 -2.1888885 1.7744446 -3.9633331 3.9633331 -3.9633331z" fill-rule="evenodd"/><path fill="#333333" d="m51.7165 72.71391l-7.4329987 0l0 0c-0.4677925 0 -0.9164276 -0.18582916 -1.2472076 -0.5166092c-0.3307762 -0.33078003 -0.5166092 -0.7794113 -0.5166092 -1.2472076l0 -8.818863c0 -4.9591064E-5 4.196167E-5 -9.1552734E-5 9.1552734E-5 -9.1552734E-5l10.960541 9.1552734E-5l0 0c4.9591064E-5 0 9.1552734E-5 4.196167E-5 9.1552734E-5 9.1552734E-5l-9.1552734E-5 8.818771l0 0c0 0.9741287 -0.7896881 1.7638168 -1.7638168 1.7638168z" fill-rule="evenodd"/><path fill="#000000" fill-opacity="0.0" d="m48.0 72.71391l-0.37795258 6.9291306" fill-rule="evenodd"/><path stroke="#666666" stroke-width="1.0" stroke-linejoin="round" stroke-linecap="butt" d="m48.0 72.71391l-0.37795258 6.9291306" fill-rule="evenodd"/><path fill="#000000" fill-opacity="0.0" d="m36.09186 81.86089l11.716537 -2.803154" fill-rule="evenodd"/><path stroke="#666666" stroke-width="1.0" stroke-linejoin="round" stroke-linecap="butt" d="m36.09186 81.86089l11.716537 -2.803154" fill-rule="evenodd"/><path fill="#000000" fill-opacity="0.0" d="m47.8084 79.05774l12.472439 2.614174" fill-rule="evenodd"/><path stroke="#666666" stroke-width="1.0" stroke-linejoin="round" stroke-linecap="butt" d="m47.8084 79.05774l12.472439 2.614174" fill-rule="evenodd"/><path fill="#ffffff" d="m32.869606 36.98819l0 0c3.9747124 0 7.19685 2.2491531 7.19685 5.0236206q0 2.5118103 0 5.0236244q-3.598423 0 -7.19685 0l0 0c-3.9747105 0 -7.19685 -2.2491531 -7.19685 -5.0236244l0 0c0 -2.7744675 3.2221394 -5.0236206 7.19685 -5.0236206z" fill-rule="evenodd"/><path fill="#996600" d="m29.672756 42.232285l0 0c0 -2.6527061 2.1504421 -4.80315 4.80315 -4.80315l0 0c1.2738724 0 2.495575 0.5060425 3.3963394 1.4068108c0.90076447 0.90076447 1.4068108 2.1224632 1.4068108 3.3963394l0 0c0 2.6527061 -2.150444 4.80315 -4.80315 4.80315l0 0c-2.652708 0 -4.80315 -2.150444 -4.80315 -4.80315z" fill-rule="evenodd"/><path fill="#000000" d="m32.082203 42.01181l0 0c0 -1.3220024 1.0716972 -2.3936996 2.3937035 -2.3936996l0 0c0.63484955 0 1.2436943 0.25219345 1.6926003 0.7010994c0.44890594 0.44890594 0.7010994 1.0577507 0.7010994 1.6926003l0 0c0 1.3220062 -1.0716972 2.3936996 -2.3936996 2.3936996l0 0c-1.3220062 0 -2.3937035 -1.0716934 -2.3937035 -2.3936996z" fill-rule="evenodd"/><path fill="#ffffff" d="m63.791813 36.989502l0 0c-3.9747124 0 -7.1968536 2.2491531 -7.1968536 5.0236206q0 2.5118103 0 5.0236244q3.5984268 0 7.1968536 0l0 0c3.9747124 0 7.19685 -2.2491531 7.19685 -5.0236244l0 0c0 -2.7744675 -3.2221375 -5.0236206 -7.19685 -5.0236206z" fill-rule="evenodd"/><path fill="#996600" d="m58.988663 42.233597l0 0c0 -2.6527061 2.1504402 -4.80315 4.80315 -4.80315l0 0c1.2738762 0 2.4955711 0.5060425 3.3963356 1.4068108c0.90076447 0.90076447 1.4068146 2.1224632 1.4068146 3.3963394l0 0c0 2.6527061 -2.150444 4.80315 -4.80315 4.80315l0 0c-2.65271 0 -4.80315 -2.150444 -4.80315 -4.80315z" fill-rule="evenodd"/><path fill="#000000" d="m61.39811 42.013123l0 0c0 -1.3220024 1.0716972 -2.3936996 2.3937035 -2.3936996l0 0c0.63484573 0 1.2436943 0.25219345 1.6926003 0.7010994c0.44890594 0.44890594 0.7010956 1.0577507 0.7010956 1.6926003l0 0c0 1.3220062 -1.0716934 2.3937035 -2.3936958 2.3937035l0 0c-1.3220062 0 -2.3937035 -1.0716972 -2.3937035 -2.3937035z" fill-rule="evenodd"/><path fill="#ffffff" d="m59.797554 81.84814c0.21582413 1.1109848 -2.164753 2.1559525 -6.144989 2.6973877c-3.9802322 0.5414276 -8.873337 0.48589325 -12.630569 -0.14335632c-3.7572289 -0.6292496 -5.7302856 -1.7236328 -5.0930405 -2.824936l11.882069 0.40964508z" fill-rule="evenodd"/><path fill="#ffcccc" d="m63.158253 18.636808l13.00787 19.433073l-0.44094086 -27.874018z" fill-rule="evenodd"/><path stroke="#fff0b1" stroke-width="2.0" stroke-linejoin="round" stroke-linecap="butt" d="m63.158253 18.636808l13.00787 19.433073l-0.44094086 -27.874018z" fill-rule="evenodd"/><path fill="#ffcccc" d="m32.841103 18.371065l-13.007874 19.43307l0.44094467 -27.874014z" fill-rule="evenodd"/><path stroke="#fff0b1" stroke-width="2.0" stroke-linejoin="round" stroke-linecap="butt" d="m32.841103 18.371065l-13.007874 19.43307l0.44094467 -27.874014z" fill-rule="evenodd"/></g></svg>