<svg version="1.1" viewBox="0.0 0.0 96.0 96.0" fill="none" stroke="none" stroke-linecap="square" stroke-miterlimit="10" xmlns:xlink="http://www.w3.org/1999/xlink" xmlns="http://www.w3.org/2000/svg"><clipPath id="p.0"><path d="m0 0l96.0 0l0 96.0l-96.0 0l0 -96.0z" clip-rule="nonzero"/></clipPath><g clip-path="url(#p.0)"><path fill="#000000" fill-opacity="0.0" d="m0 0l96.0 0l0 96.0l-96.0 0z" fill-rule="evenodd"/><defs><radialGradient id="p.1" gradientUnits="userSpaceOnUse" gradientTransform="matrix(4.961031710231377 0.0 0.0 4.961031710231377 0.0 0.0)" spreadMethod="pad" cx="9.675334265623325" cy="6.8828454395013" fx="9.675334265623325" fy="6.8828454395013" r="4.961031913757324"><stop offset="0.0" stop-color="#3366ff"/><stop offset="1.0" stop-color="#000000"/></radialGradient></defs><path fill="url(#p.1)" d="m32.96719 15.242575c0 0 28.29309 3.0468063 28.792652 3.656168c0.4995613 0.60936165 -24.793964 -5.789151 -25.795277 0c-1.0013123 5.789152 15.48819 34.73491 19.787403 34.73491c4.2992134 0 9.805336 -28.336397 6.0078735 -34.73491c-3.7974625 -6.398513 -28.792652 -3.656168 -28.792652 -3.656168z" fill-rule="evenodd"/><path fill="#000000" fill-opacity="0.0" d="m19.637794 57.60105l56.72441 0l0 8.944878l-56.72441 0z" fill-rule="evenodd"/><path fill="#000000" d="m32.687233 66.56105l2.5625 -6.671875l0.953125 0l2.734375 6.671875l-1.0 0l-0.78125 -2.015625l-2.796875 0l-0.734375 2.015625l-0.9375 0zm1.921875 -2.734375l2.265625 0l-0.6875 -1.859375q-0.328125 -0.84375 -0.484375 -1.375q-0.125 0.640625 -0.359375 1.265625l-0.734375 1.96875zm4.5967865 1.296875l0.8125 -0.140625q0.078125 0.5 0.390625 0.765625q0.3125 0.25 0.859375 0.25q0.578125 0 0.84375 -0.234375q0.28125 -0.234375 0.28125 -0.53125q0 -0.28125 -0.25 -0.4375q-0.171875 -0.109375 -0.84375 -0.28125q-0.890625 -0.234375 -1.25 -0.390625q-0.34375 -0.171875 -0.53125 -0.46875q-0.171875 -0.296875 -0.171875 -0.640625q0 -0.328125 0.140625 -0.59375q0.15625 -0.28125 0.40625 -0.46875q0.203125 -0.140625 0.53125 -0.234375q0.328125 -0.109375 0.703125 -0.109375q0.578125 0 1.0 0.171875q0.4375 0.15625 0.640625 0.4375q0.203125 0.28125 0.28125 0.75l-0.796875 0.109375q-0.0625 -0.375 -0.328125 -0.578125q-0.265625 -0.203125 -0.734375 -0.203125q-0.5625 0 -0.8125 0.1875q-0.234375 0.171875 -0.234375 0.4375q0 0.15625 0.09375 0.28125q0.109375 0.125 0.3125 0.21875q0.125 0.046875 0.734375 0.203125q0.859375 0.234375 1.203125 0.390625q0.34375 0.140625 0.53125 0.421875q0.203125 0.28125 0.203125 0.703125q0 0.40625 -0.234375 0.78125q-0.234375 0.359375 -0.6875 0.5625q-0.453125 0.1875 -1.015625 0.1875q-0.953125 0 -1.453125 -0.390625q-0.484375 -0.390625 -0.625 -1.15625zm4.9921875 1.4375l0 -6.671875l0.828125 0l0 2.390625q0.578125 -0.671875 1.453125 -0.671875q0.53125 0 0.921875 0.21875q0.40625 0.21875 0.578125 0.59375q0.171875 0.359375 0.171875 1.078125l0 3.0625l-0.828125 0l0 -3.0625q0 -0.625 -0.265625 -0.890625q-0.265625 -0.28125 -0.75 -0.28125q-0.375 0 -0.703125 0.1875q-0.3125 0.1875 -0.453125 0.515625q-0.125 0.3125 -0.125 0.890625l0 2.640625l-0.828125 0zm5.172241 0l0 -6.671875l0.828125 0l0 6.671875l-0.828125 0zm2.1036682 -5.734375l0 -0.9375l0.8125 0l0 0.9375l-0.8125 0zm0 5.734375l0 -4.84375l0.8125 0l0 4.84375l-0.8125 0zm2.0567932 0l0 -4.84375l0.75 0l0 0.6875q0.53125 -0.796875 1.53125 -0.796875q0.4375 0 0.796875 0.171875q0.375 0.15625 0.546875 0.40625q0.1875 0.25 0.265625 0.609375q0.046875 0.21875 0.046875 0.796875l0 2.96875l-0.828125 0l0 -2.9375q0 -0.5 -0.09375 -0.75q-0.09375 -0.25 -0.34375 -0.390625q-0.234375 -0.15625 -0.5625 -0.15625q-0.515625 0 -0.90625 0.328125q-0.375 0.328125 -0.375 1.265625l0 2.640625l-0.828125 0zm5.047241 0.40625l0.796875 0.109375q0.046875 0.375 0.28125 0.546875q0.296875 0.21875 0.828125 0.21875q0.5625 0 0.875 -0.234375q0.3125 -0.21875 0.421875 -0.625q0.0625 -0.25 0.0625 -1.0625q-0.546875 0.640625 -1.34375 0.640625q-1.0 0 -1.546875 -0.71875q-0.546875 -0.71875 -0.546875 -1.734375q0 -0.6875 0.25 -1.265625q0.25 -0.59375 0.71875 -0.90625q0.484375 -0.328125 1.125 -0.328125q0.859375 0 1.421875 0.703125l0 -0.59375l0.75 0l0 4.1875q0 1.125 -0.234375 1.59375q-0.21875 0.484375 -0.71875 0.75q-0.5 0.28125 -1.234375 0.28125q-0.859375 0 -1.390625 -0.390625q-0.53125 -0.390625 -0.515625 -1.171875zm0.671875 -2.90625q0 0.953125 0.375 1.390625q0.390625 0.4375 0.953125 0.4375q0.5625 0 0.9375 -0.4375q0.390625 -0.4375 0.390625 -1.375q0 -0.875 -0.390625 -1.328125q-0.390625 -0.453125 -0.953125 -0.453125q-0.546875 0 -0.9375 0.453125q-0.375 0.4375 -0.375 1.3125z" fill-rule="nonzero"/><path fill="#3366ff" d="m37.793053 77.76105l-1.296875 0l1.390625 -6.53125l4.5625 0l-0.28125 1.3125l-3.265625 0l-0.28125 1.296875l1.96875 0l-0.28125 1.3125l-1.96875 0l-0.546875 2.609375zm8.485367 -2.484375q-0.125 0.546875 -0.421875 1.015625q-0.28125 0.46875 -0.703125 0.8125q-0.40625 0.34375 -0.90625 0.546875q-0.484375 0.203125 -1.0 0.203125q-0.515625 0 -0.9375 -0.203125q-0.40625 -0.203125 -0.671875 -0.546875q-0.265625 -0.34375 -0.375 -0.8125q-0.09375 -0.46875 0.03125 -1.015625q0.109375 -0.546875 0.40625 -1.015625q0.296875 -0.484375 0.71875 -0.828125q0.421875 -0.34375 0.90625 -0.53125q0.5 -0.203125 1.015625 -0.203125q0.515625 0 0.921875 0.1875q0.421875 0.171875 0.6875 0.515625q0.265625 0.34375 0.359375 0.828125q0.09375 0.46875 -0.03125 1.046875zm-1.25 0q0.0625 -0.296875 0 -0.53125q-0.046875 -0.25 -0.171875 -0.421875q-0.125 -0.1875 -0.328125 -0.28125q-0.203125 -0.09375 -0.453125 -0.09375q-0.265625 0 -0.515625 0.09375q-0.25 0.09375 -0.453125 0.28125q-0.203125 0.171875 -0.34375 0.421875q-0.140625 0.234375 -0.203125 0.53125q-0.0625 0.28125 -0.03125 0.53125q0.046875 0.234375 0.171875 0.421875q0.125 0.171875 0.328125 0.28125q0.21875 0.09375 0.484375 0.09375q0.25 0 0.484375 -0.09375q0.25 -0.09375 0.453125 -0.265625q0.203125 -0.171875 0.359375 -0.421875q0.15625 -0.25 0.21875 -0.546875zm2.6519318 2.484375l-1.25 0l1.03125 -4.875l0.3125 0l0.3125 0.46875q0.359375 -0.265625 0.765625 -0.40625q0.421875 -0.15625 0.828125 -0.15625q0.453125 0 0.8125 0.171875q0.359375 0.171875 0.578125 0.46875q0.234375 0.296875 0.3125 0.703125q0.09375 0.390625 0 0.84375l-0.59375 2.78125l-1.234375 0l0.59375 -2.78125q0.046875 -0.203125 0 -0.375q-0.046875 -0.171875 -0.140625 -0.296875q-0.09375 -0.125 -0.25 -0.1875q-0.15625 -0.078125 -0.34375 -0.078125q-0.1875 0 -0.375 0.078125q-0.1875 0.0625 -0.359375 0.1875q-0.15625 0.125 -0.265625 0.296875q-0.09375 0.171875 -0.140625 0.375l-0.59375 2.78125zm6.381851 0q-0.453125 0 -0.8125 -0.171875q-0.359375 -0.171875 -0.59375 -0.46875q-0.234375 -0.296875 -0.328125 -0.6875q-0.078125 -0.40625 0.015625 -0.859375l0.296875 -1.4375l-0.609375 0l0.265625 -1.25l0.609375 0l0.421875 -1.9375l1.25 0l-0.421875 1.9375l1.875 0l-0.265625 1.25l-1.875 0l-0.296875 1.4375q-0.046875 0.203125 -0.015625 0.375q0.03125 0.171875 0.125 0.296875q0.109375 0.125 0.265625 0.203125q0.15625 0.078125 0.359375 0.078125l0.9375 0l-0.265625 1.234375l-0.9375 0zm4.319992 0l-2.84375 0l0.265625 -1.234375l2.84375 0q0.125 0 0.234375 -0.09375q0.109375 -0.09375 0.140625 -0.21875q0.03125 -0.140625 -0.0625 -0.171875q-0.078125 -0.046875 -0.203125 -0.046875l-1.296875 0q-0.328125 0 -0.59375 -0.125q-0.25 -0.125 -0.421875 -0.328125q-0.15625 -0.21875 -0.21875 -0.5q-0.046875 -0.28125 0.015625 -0.609375q0.078125 -0.3125 0.25 -0.59375q0.171875 -0.28125 0.421875 -0.484375q0.265625 -0.21875 0.5625 -0.34375q0.3125 -0.125 0.640625 -0.125l2.515625 0l-0.265625 1.25l-2.515625 0q-0.125 0 -0.234375 0.09375q-0.109375 0.078125 -0.140625 0.203125q-0.03125 0.140625 0.046875 0.234375q0.078125 0.09375 0.203125 0.09375l1.296875 0q0.3125 0 0.5625 0.109375q0.265625 0.109375 0.4375 0.296875q0.171875 0.1875 0.234375 0.453125q0.078125 0.265625 0 0.59375q-0.0625 0.328125 -0.25 0.609375q-0.1875 0.265625 -0.453125 0.484375q-0.25 0.21875 -0.5625 0.34375q-0.296875 0.109375 -0.609375 0.109375z" fill-rule="nonzero"/></g></svg>