<svg version="1.1" viewBox="0.0 0.0 96.0 96.0" fill="none" stroke="none" stroke-linecap="square" stroke-miterlimit="10" xmlns:xlink="http://www.w3.org/1999/xlink" xmlns="http://www.w3.org/2000/svg"><clipPath id="p.0"><path d="m0 0l96.0 0l0 96.0l-96.0 0l0 -96.0z" clip-rule="nonzero"/></clipPath><g clip-path="url(#p.0)"><path fill="#000000" fill-opacity="0.0" d="m0 0l96.0 0l0 96.0l-96.0 0z" fill-rule="evenodd"/><path fill="#ffffff" d="m12.0 48.0l0 0c0 -19.882252 16.117748 -36.0 36.0 -36.0l0 0c9.547794 0 18.704536 3.7928467 25.455841 10.544155c6.7513123 6.7513103 10.544159 15.908051 10.544159 25.455845l0 0c0 19.882248 -16.117752 36.0 -36.0 36.0l0 0c-19.882252 0 -36.0 -16.117752 -36.0 -36.0z" fill-rule="evenodd"/><path fill="#cccccc" d="m40.68255 53.98163l14.640152 0l0 0c1.7507439 0 3.429779 0.69548035 4.6677437 1.9334412c1.2379608 1.2379608 1.9334412 2.9169998 1.9334412 4.66774l0 17.379059c0 2.1504745 -1.7433052 3.893776 -3.893776 3.893776l-20.05497 0c-2.1504707 0 -3.893776 -1.7433014 -3.893776 -3.893776l0 -17.379059l0 0c0 -3.6457329 2.955452 -6.601181 6.601185 -6.601181z" fill-rule="evenodd"/><path fill="#333333" d="m51.7165 72.71391l-7.4329987 0l0 0c-0.4677925 0 -0.9164276 -0.18582916 -1.2472076 -0.5166092c-0.3307762 -0.33078003 -0.5166092 -0.7794113 -0.5166092 -1.2472076l0 -8.818863c0 -4.9591064E-5 4.196167E-5 -9.1552734E-5 9.1552734E-5 -9.1552734E-5l10.960541 9.1552734E-5l0 0c4.9591064E-5 0 9.1552734E-5 4.196167E-5 9.1552734E-5 9.1552734E-5l-9.1552734E-5 8.818771l0 0c0 0.9741287 -0.7896881 1.7638168 -1.7638168 1.7638168z" fill-rule="evenodd"/><path fill="#000000" fill-opacity="0.0" d="m48.0 72.71391l-0.37795258 6.9291306" fill-rule="evenodd"/><path stroke="#666666" stroke-width="1.0" stroke-linejoin="round" stroke-linecap="butt" d="m48.0 72.71391l-0.37795258 6.9291306" fill-rule="evenodd"/><path fill="#000000" fill-opacity="0.0" d="m36.0 81.8294l12.0 -2.9291382" fill-rule="evenodd"/><path stroke="#666666" stroke-width="1.0" stroke-linejoin="round" stroke-linecap="butt" d="m36.0 81.8294l12.0 -2.9291382" fill-rule="evenodd"/><path fill="#000000" fill-opacity="0.0" d="m47.8084 79.05774l12.472439 2.614174" fill-rule="evenodd"/><path stroke="#666666" stroke-width="1.0" stroke-linejoin="round" stroke-linecap="butt" d="m47.8084 79.05774l12.472439 2.614174" fill-rule="evenodd"/><path fill="#ffffff" d="m30.80399 38.442257l0 0c3.9747124 0 7.19685 2.2491531 7.19685 5.0236206q0 2.511814 0 5.0236244q-3.598423 0 -7.19685 0l0 0c-3.9747105 0 -7.19685 -2.2491531 -7.19685 -5.0236244l0 0c0 -2.7744675 3.2221394 -5.0236206 7.19685 -5.0236206z" fill-rule="evenodd"/><path stroke="#000000" stroke-width="1.0" stroke-linejoin="round" stroke-linecap="butt" d="m30.80399 38.442257l0 0c3.9747124 0 7.19685 2.2491531 7.19685 5.0236206q0 2.511814 0 5.0236244q-3.598423 0 -7.19685 0l0 0c-3.9747105 0 -7.19685 -2.2491531 -7.19685 -5.0236244l0 0c0 -2.7744675 3.2221394 -5.0236206 7.19685 -5.0236206z" fill-rule="evenodd"/><path fill="#996600" d="m23.60714 43.68635l0 0c0 -2.6527061 2.1504421 -4.80315 4.8031483 -4.80315l0 0c1.2738762 0 2.495575 0.5060463 3.3963413 1.4068108c0.90076447 0.90076447 1.4068108 2.1224632 1.4068108 3.3963394l0 0c0 2.6527061 -2.150444 4.80315 -4.803152 4.80315l0 0c-2.6527061 0 -4.8031483 -2.150444 -4.8031483 -4.80315z" fill-rule="evenodd"/><path stroke="#000000" stroke-width="1.0" stroke-linejoin="round" stroke-linecap="butt" d="m23.60714 43.68635l0 0c0 -2.6527061 2.1504421 -4.80315 4.8031483 -4.80315l0 0c1.2738762 0 2.495575 0.5060463 3.3963413 1.4068108c0.90076447 0.90076447 1.4068108 2.1224632 1.4068108 3.3963394l0 0c0 2.6527061 -2.150444 4.80315 -4.803152 4.80315l0 0c-2.6527061 0 -4.8031483 -2.150444 -4.8031483 -4.80315z" fill-rule="evenodd"/><path fill="#000000" d="m26.016588 43.68635l0 0c0 -1.3220062 1.0716953 -2.3936996 2.3936996 -2.3936996l0 0c0.63484955 0 1.2436962 0.25218964 1.6926022 0.7010994c0.44890594 0.44890594 0.7010994 1.0577507 0.7010994 1.6926003l0 0c0 1.3220062 -1.0716953 2.3936996 -2.3937016 2.3936996l0 0c-1.3220043 0 -2.3936996 -1.0716934 -2.3936996 -2.3936996z" fill-rule="evenodd"/><path stroke="#000000" stroke-width="1.0" stroke-linejoin="round" stroke-linecap="butt" d="m26.016588 43.68635l0 0c0 -1.3220062 1.0716953 -2.3936996 2.3936996 -2.3936996l0 0c0.63484955 0 1.2436962 0.25218964 1.6926022 0.7010994c0.44890594 0.44890594 0.7010994 1.0577507 0.7010994 1.6926003l0 0c0 1.3220062 -1.0716953 2.3936996 -2.3937016 2.3936996l0 0c-1.3220043 0 -2.3936996 -1.0716934 -2.3936996 -2.3936996z" fill-rule="evenodd"/><path fill="#ffffff" d="m65.90336 38.44357l0 0c-3.9747086 0 -7.19685 2.2491531 -7.19685 5.0236206q0 2.511814 0 5.0236244q3.5984268 0 7.19685 0l0 0c3.9747086 0 7.1968536 -2.2491531 7.1968536 -5.0236244l0 0c0 -2.7744675 -3.222145 -5.0236206 -7.1968536 -5.0236206z" fill-rule="evenodd"/><path stroke="#000000" stroke-width="1.0" stroke-linejoin="round" stroke-linecap="butt" d="m65.90336 38.44357l0 0c-3.9747086 0 -7.19685 2.2491531 -7.19685 5.0236206q0 2.511814 0 5.0236244q3.5984268 0 7.19685 0l0 0c3.9747086 0 7.1968536 -2.2491531 7.1968536 -5.0236244l0 0c0 -2.7744675 -3.222145 -5.0236206 -7.1968536 -5.0236206z" fill-rule="evenodd"/><path fill="#996600" d="m63.49391 43.687664l0 0c0 -2.6527061 2.150444 -4.80315 4.8031464 -4.80315l0 0c1.27388 0 2.495575 0.5060463 3.3963394 1.4068108c0.90076447 0.90076447 1.4068146 2.1224632 1.4068146 3.3963394l0 0c0 2.6527061 -2.150444 4.80315 -4.803154 4.80315l0 0c-2.6527023 0 -4.8031464 -2.150444 -4.8031464 -4.80315z" fill-rule="evenodd"/><path stroke="#000000" stroke-width="1.0" stroke-linejoin="round" stroke-linecap="butt" d="m63.49391 43.687664l0 0c0 -2.6527061 2.150444 -4.80315 4.8031464 -4.80315l0 0c1.27388 0 2.495575 0.5060463 3.3963394 1.4068108c0.90076447 0.90076447 1.4068146 2.1224632 1.4068146 3.3963394l0 0c0 2.6527061 -2.150444 4.80315 -4.803154 4.80315l0 0c-2.6527023 0 -4.8031464 -2.150444 -4.8031464 -4.80315z" fill-rule="evenodd"/><path fill="#000000" d="m65.90336 43.687664l0 0c0 -1.3220062 1.071701 -2.3936996 2.3936996 -2.3936996l0 0c0.63484955 0 1.2436981 0.25219345 1.6926041 0.7010994c0.44890594 0.44890594 0.7010956 1.0577507 0.7010956 1.6926003l0 0c0 1.3220062 -1.0716934 2.3936996 -2.3936996 2.3936996l0 0c-1.3219986 0 -2.3936996 -1.0716934 -2.3936996 -2.3936996z" fill-rule="evenodd"/><path stroke="#000000" stroke-width="1.0" stroke-linejoin="round" stroke-linecap="butt" d="m65.90336 43.687664l0 0c0 -1.3220062 1.071701 -2.3936996 2.3936996 -2.3936996l0 0c0.63484955 0 1.2436981 0.25219345 1.6926041 0.7010994c0.44890594 0.44890594 0.7010956 1.0577507 0.7010956 1.6926003l0 0c0 1.3220062 -1.0716934 2.3936996 -2.3936996 2.3936996l0 0c-1.3219986 0 -2.3936996 -1.0716934 -2.3936996 -2.3936996z" fill-rule="evenodd"/><path fill="#ffffff" d="m69.662186 28.353344l0 0c3.5920258 5.366295 9.317139 7.8269653 12.787407 5.496063l0 0c1.6664734 -1.119339 2.5794678 -3.2165356 2.5381165 -5.8302326c-0.04134369 -2.6136951 -1.033638 -5.529789 -2.7585907 -8.106775l0 0c-3.5920258 -5.366294 -9.317139 -7.8269653 -12.787399 -5.496063l0 0c-3.4702682 2.330902 -3.3715591 8.570713 0.22046661 13.937008z" fill-rule="evenodd"/><path stroke="#ffffff" stroke-width="2.0" stroke-linejoin="round" stroke-linecap="butt" d="m69.662186 28.353344l0 0c3.5920258 5.366295 9.317139 7.8269653 12.787407 5.496063l0 0c1.6664734 -1.119339 2.5794678 -3.2165356 2.5381165 -5.8302326c-0.04134369 -2.6136951 -1.033638 -5.529789 -2.7585907 -8.106775l0 0c-3.5920258 -5.366294 -9.317139 -7.8269653 -12.787399 -5.496063l0 0c-3.4702682 2.330902 -3.3715591 8.570713 0.22046661 13.937008z" fill-rule="evenodd"/><path fill="#ffffff" d="m24.029598 31.524961l0 0c-4.861845 7.2710247 -11.616353 11.275785 -15.086615 8.944883l0 0c-1.6664782 -1.119339 -2.3372302 -3.579895 -1.8646975 -6.84037c0.47253275 -3.2604733 2.0496426 -7.053789 4.3843822 -10.545458l0 0c4.861846 -7.2710247 11.616353 -11.2757845 15.086614 -8.944881l0 0c3.4702625 2.330902 2.3421612 10.114801 -2.5196838 17.385826z" fill-rule="evenodd"/><path stroke="#ffffff" stroke-width="2.0" stroke-linejoin="round" stroke-linecap="butt" d="m24.029598 31.524961l0 0c-4.861845 7.2710247 -11.616353 11.275785 -15.086615 8.944883l0 0c-1.6664782 -1.119339 -2.3372302 -3.579895 -1.8646975 -6.84037c0.47253275 -3.2604733 2.0496426 -7.053789 4.3843822 -10.545458l0 0c4.861846 -7.2710247 11.616353 -11.2757845 15.086614 -8.944881l0 0c3.4702625 2.330902 2.3421612 10.114801 -2.5196838 17.385826z" fill-rule="evenodd"/><path fill="#e4e4e4" d="m41.805775 54.1916l3.1181107 -21.448818l6.2362213 0l3.1181068 21.448818z" fill-rule="evenodd"/><path fill="#ffffff" d="m71.79338 30.50659l0 0c4.8618393 7.2710247 11.616348 11.275785 15.086609 8.94488l0 0c1.666481 -1.119339 2.3372345 -3.5798912 1.8647003 -6.8403664c-0.47253418 -3.2604752 -2.0496445 -7.053789 -4.384384 -10.54546l0 0c-4.861847 -7.2710238 -11.616348 -11.275784 -15.0866165 -8.944881l0 0c-3.4702606 2.330903 -2.3421555 10.114803 2.5196915 17.385828z" fill-rule="evenodd"/><path stroke="#ffffff" stroke-width="2.0" stroke-linejoin="round" stroke-linecap="butt" d="m71.79338 30.50659l0 0c4.8618393 7.2710247 11.616348 11.275785 15.086609 8.94488l0 0c1.666481 -1.119339 2.3372345 -3.5798912 1.8647003 -6.8403664c-0.47253418 -3.2604752 -2.0496445 -7.053789 -4.384384 -10.54546l0 0c-4.861847 -7.2710238 -11.616348 -11.275784 -15.0866165 -8.944881l0 0c-3.4702606 2.330903 -2.3421555 10.114803 2.5196915 17.385828z" fill-rule="evenodd"/><path fill="#ffffff" d="m18.470274 48.616936l0 0c0 8.749584 -3.3913555 15.835472 -7.5748043 15.826775l0 0c-2.0089626 -0.004180908 -3.9356432 -1.6773033 -5.3561945 -4.651306c-1.4205508 -2.973999 -2.2186081 -7.005268 -2.2186081 -11.206963l0 0c0 -8.749584 3.3913548 -15.835472 7.5748024 -15.826775l0 0c4.183449 0.00869751 7.5748043 7.1086884 7.5748043 15.858269z" fill-rule="evenodd"/><path stroke="#ffffff" stroke-width="2.0" stroke-linejoin="round" stroke-linecap="butt" d="m18.470274 48.616936l0 0c0 8.749584 -3.3913555 15.835472 -7.5748043 15.826775l0 0c-2.0089626 -0.004180908 -3.9356432 -1.6773033 -5.3561945 -4.651306c-1.4205508 -2.973999 -2.2186081 -7.005268 -2.2186081 -11.206963l0 0c0 -8.749584 3.3913548 -15.835472 7.5748024 -15.826775l0 0c4.183449 0.00869751 7.5748043 7.1086884 7.5748043 15.858269z" fill-rule="evenodd"/><path fill="#ffffff" d="m92.680244 48.616936l0 0c0 8.749584 -3.3913498 15.835472 -7.5747986 15.826775l0 0c-2.0089645 -0.004180908 -3.935646 -1.6773033 -5.3561935 -4.651306c-1.4205551 -2.973999 -2.2186127 -7.005268 -2.2186127 -11.206963l0 0c0 -8.749584 3.3913574 -15.835472 7.574806 -15.826775l0 0c4.183449 0.00869751 7.5747986 7.1086884 7.5747986 15.858269z" fill-rule="evenodd"/><path stroke="#ffffff" stroke-width="2.0" stroke-linejoin="round" stroke-linecap="butt" d="m92.680244 48.616936l0 0c0 8.749584 -3.3913498 15.835472 -7.5747986 15.826775l0 0c-2.0089645 -0.004180908 -3.935646 -1.6773033 -5.3561935 -4.651306c-1.4205551 -2.973999 -2.2186127 -7.005268 -2.2186127 -11.206963l0 0c0 -8.749584 3.3913574 -15.835472 7.574806 -15.826775l0 0c4.183449 0.00869751 7.5747986 7.1086884 7.5747986 15.858269z" fill-rule="evenodd"/><path fill="#cccccc" d="m23.811024 17.362206l0 0c0 -5.3054132 10.745167 -9.6063 24.0 -9.6063l0 0c13.254833 0 23.999996 4.3008866 23.999996 9.6063l0 0c0 5.3054123 -10.745163 9.606298 -23.999996 9.606298l0 0c-13.254833 0 -24.0 -4.300886 -24.0 -9.606298z" fill-rule="evenodd"/></g></svg>