<svg version="1.1" viewBox="0.0 0.0 96.0 96.0" fill="none" stroke="none" stroke-linecap="square" stroke-miterlimit="10" xmlns:xlink="http://www.w3.org/1999/xlink" xmlns="http://www.w3.org/2000/svg"><clipPath id="p.0"><path d="m0 0l96.0 0l0 96.0l-96.0 0l0 -96.0z" clip-rule="nonzero"/></clipPath><g clip-path="url(#p.0)"><path fill="#000000" fill-opacity="0.0" d="m0 0l96.0 0l0 96.0l-96.0 0z" fill-rule="evenodd"/><path fill="#cc0000" d="m15.632545 0l67.11811 0l0 96.0l-67.11811 0z" fill-rule="evenodd"/><path fill="#990000" d="m31.10336 26.919998l-5.171875 -13.359375l1.921875 0l3.46875 9.703125q0.421875 1.171875 0.703125 2.1875q0.3125 -1.09375 0.71875 -2.1875l3.609375 -9.703125l1.796875 0l-5.234375 13.359375l-1.8125 0zm6.78862 -4.84375q0 -2.6875 1.484375 -3.96875q1.25 -1.078125 3.046875 -1.078125q2.0 0 3.265625 1.3125q1.265625 1.296875 1.265625 3.609375q0 1.859375 -0.5625 2.9375q-0.5625 1.0625 -1.640625 1.65625q-1.0625 0.59375 -2.328125 0.59375q-2.03125 0 -3.28125 -1.296875q-1.25 -1.3125 -1.25 -3.765625zm1.6875 0q0 1.859375 0.796875 2.796875q0.8125 0.921875 2.046875 0.921875q1.21875 0 2.03125 -0.921875q0.8125 -0.9375 0.8125 -2.84375q0 -1.796875 -0.8125 -2.71875q-0.8125 -0.921875 -2.03125 -0.921875q-1.234375 0 -2.046875 0.921875q-0.796875 0.90625 -0.796875 2.765625zm9.250717 4.84375l0 -13.359375l1.640625 0l0 13.359375l-1.640625 0zm4.644821 0l0 -1.875l1.875 0l0 1.875l-1.875 0zm15.6322365 0l-1.640625 0l0 -10.453125q-0.59375 0.5625 -1.5625 1.140625q-0.953125 0.5625 -1.71875 0.84375l0 -1.59375q1.375 -0.640625 2.40625 -1.5625q1.03125 -0.921875 1.453125 -1.78125l1.0625 0l0 13.40625z" fill-rule="nonzero"/><path fill="#990000" d="m32.147816 37.4l0 -4.765625l3.4375 0l0 0.5625l-2.8125 0l0 1.453125l2.640625 0l0 0.5625l-2.640625 0l0 1.625l2.921875 0l0 0.5625l-3.546875 0zm4.3302917 0l0 -4.765625l0.59375 0l0 4.765625l-0.59375 0zm1.2756805 -1.71875q0 -0.96875 0.53125 -1.421875q0.453125 -0.390625 1.09375 -0.390625q0.703125 0 1.15625 0.46875q0.453125 0.46875 0.453125 1.28125q0 0.671875 -0.203125 1.0625q-0.1875 0.375 -0.578125 0.59375q-0.375 0.203125 -0.828125 0.203125q-0.734375 0 -1.1875 -0.453125q-0.4375 -0.46875 -0.4375 -1.34375zm0.609375 0q0 0.65625 0.28125 0.984375q0.296875 0.328125 0.734375 0.328125q0.4375 0 0.71875 -0.328125q0.296875 -0.328125 0.296875 -1.015625q0 -0.640625 -0.296875 -0.96875q-0.296875 -0.328125 -0.71875 -0.328125q-0.4375 0 -0.734375 0.328125q-0.28125 0.328125 -0.28125 1.0zm3.092514 0q0 -0.96875 0.53125 -1.421875q0.453125 -0.390625 1.09375 -0.390625q0.703125 0 1.15625 0.46875q0.453125 0.46875 0.453125 1.28125q0 0.671875 -0.203125 1.0625q-0.1875 0.375 -0.578125 0.59375q-0.375 0.203125 -0.828125 0.203125q-0.734375 0 -1.1875 -0.453125q-0.4375 -0.46875 -0.4375 -1.34375zm0.609375 0q0 0.65625 0.28125 0.984375q0.296875 0.328125 0.734375 0.328125q0.4375 0 0.71875 -0.328125q0.296875 -0.328125 0.296875 -1.015625q0 -0.640625 -0.296875 -0.96875q-0.296875 -0.328125 -0.71875 -0.328125q-0.4375 0 -0.734375 0.328125q-0.28125 0.328125 -0.28125 1.0zm3.295639 1.71875l0 -4.765625l0.59375 0l0 4.765625l-0.59375 0zm1.4631805 1.328125l-0.0625 -0.546875q0.203125 0.046875 0.34375 0.046875q0.1875 0 0.296875 -0.0625q0.125 -0.0625 0.203125 -0.1875q0.046875 -0.078125 0.171875 -0.421875q0.015625 -0.0625 0.0625 -0.15625l-1.3125 -3.453125l0.625 0l0.71875 2.0q0.140625 0.375 0.25 0.796875q0.109375 -0.40625 0.25 -0.78125l0.734375 -2.015625l0.578125 0l-1.3125 3.515625q-0.203125 0.5625 -0.328125 0.78125q-0.15625 0.28125 -0.359375 0.421875q-0.203125 0.140625 -0.46875 0.140625q-0.171875 0 -0.390625 -0.078125zm5.2555695 -1.328125l0 -4.765625l1.796875 0q0.546875 0 0.875 0.15625q0.328125 0.140625 0.515625 0.4375q0.1875 0.296875 0.1875 0.625q0 0.3125 -0.171875 0.578125q-0.171875 0.265625 -0.5 0.4375q0.4375 0.125 0.65625 0.4375q0.234375 0.296875 0.234375 0.71875q0 0.328125 -0.140625 0.625q-0.140625 0.28125 -0.34375 0.4375q-0.203125 0.15625 -0.515625 0.234375q-0.3125 0.078125 -0.78125 0.078125l-1.8125 0zm0.640625 -2.765625l1.015625 0q0.421875 0 0.609375 -0.046875q0.234375 -0.078125 0.359375 -0.234375q0.125 -0.171875 0.125 -0.421875q0 -0.234375 -0.125 -0.40625q-0.109375 -0.1875 -0.328125 -0.25q-0.203125 -0.078125 -0.703125 -0.078125l-0.953125 0l0 1.4375zm0 2.203125l1.171875 0q0.3125 0 0.4375 -0.015625q0.21875 -0.046875 0.359375 -0.140625q0.15625 -0.09375 0.25 -0.265625q0.09375 -0.171875 0.09375 -0.390625q0 -0.265625 -0.140625 -0.46875q-0.140625 -0.203125 -0.390625 -0.28125q-0.234375 -0.078125 -0.6875 -0.078125l-1.09375 0l0 1.640625zm3.5334167 -1.15625q0 -0.96875 0.53125 -1.421875q0.453125 -0.390625 1.09375 -0.390625q0.703125 0 1.15625 0.46875q0.453125 0.46875 0.453125 1.28125q0 0.671875 -0.203125 1.0625q-0.1875 0.375 -0.578125 0.59375q-0.375 0.203125 -0.828125 0.203125q-0.734375 0 -1.1875 -0.453125q-0.4375 -0.46875 -0.4375 -1.34375zm0.609375 0q0 0.65625 0.28125 0.984375q0.296875 0.328125 0.734375 0.328125q0.4375 0 0.71875 -0.328125q0.296875 -0.328125 0.296875 -1.015625q0 -0.640625 -0.296875 -0.96875q-0.296875 -0.328125 -0.71875 -0.328125q-0.4375 0 -0.734375 0.328125q-0.28125 0.328125 -0.28125 1.0zm3.092514 0q0 -0.96875 0.53125 -1.421875q0.453125 -0.390625 1.09375 -0.390625q0.703125 0 1.15625 0.46875q0.453125 0.46875 0.453125 1.28125q0 0.671875 -0.203125 1.0625q-0.1875 0.375 -0.578125 0.59375q-0.375 0.203125 -0.828125 0.203125q-0.734375 0 -1.1875 -0.453125q-0.4375 -0.46875 -0.4375 -1.34375zm0.609375 0q0 0.65625 0.28125 0.984375q0.296875 0.328125 0.734375 0.328125q0.4375 0 0.71875 -0.328125q0.296875 -0.328125 0.296875 -1.015625q0 -0.640625 -0.296875 -0.96875q-0.296875 -0.328125 -0.71875 -0.328125q-0.4375 0 -0.734375 0.328125q-0.28125 0.328125 -0.28125 1.0zm3.311264 1.71875l0 -4.765625l0.5937538 0l0 2.71875l1.375 -1.40625l0.765625 0l-1.328125 1.28125l1.453125 2.171875l-0.71875 0l-1.140625 -1.765625l-0.40625 0.390625l0 1.375l-0.5937538 0z" fill-rule="nonzero"/><path fill="#990000" d="m34.87817 45.4l0 -4.765625l1.796875 0q0.546875 0 0.875 0.15625q0.328125 0.140625 0.515625 0.4375q0.1875 0.296875 0.1875 0.625q0 0.3125 -0.171875 0.578125q-0.171875 0.265625 -0.5 0.4375q0.4375 0.125 0.65625 0.4375q0.234375 0.296875 0.234375 0.71875q0 0.328125 -0.140625 0.625q-0.140625 0.28125 -0.34375 0.4375q-0.203125 0.15625 -0.515625 0.234375q-0.3125 0.078125 -0.78125 0.078125l-1.8125 0zm0.640625 -2.765625l1.015625 0q0.421875 0 0.609375 -0.046875q0.234375 -0.078125 0.359375 -0.234375q0.125 -0.171875 0.125 -0.421875q0 -0.234375 -0.125 -0.40625q-0.109375 -0.1875 -0.328125 -0.25q-0.203125 -0.078125 -0.703125 -0.078125l-0.953125 0l0 1.4375zm0 2.203125l1.171875 0q0.3125 0 0.4375 -0.015625q0.21875 -0.046875 0.359375 -0.140625q0.15625 -0.09375 0.25 -0.265625q0.09375 -0.171875 0.09375 -0.390625q0 -0.265625 -0.140625 -0.46875q-0.140625 -0.203125 -0.390625 -0.28125q-0.234375 -0.078125 -0.6875 -0.078125l-1.09375 0l0 1.640625zm3.7209167 1.890625l-0.0625 -0.546875q0.203125 0.046875 0.34375 0.046875q0.1875 0 0.296875 -0.0625q0.125 -0.0625 0.203125 -0.1875q0.046875 -0.078125 0.171875 -0.421875q0.015625 -0.0625 0.0625 -0.15625l-1.3125 -3.453125l0.625 0l0.71875 2.0q0.140625 0.375 0.25 0.796875q0.109375 -0.40625 0.25 -0.78125l0.734375 -2.015625l0.578125 0l-1.3125 3.515625q-0.203125 0.5625 -0.328125 0.78125q-0.15625 0.28125 -0.359375 0.421875q-0.203125 0.140625 -0.46875 0.140625q-0.171875 0 -0.390625 -0.078125zm3.515625 -4.109375l0 -0.671875l0.671875 0l0 0.671875l-0.671875 0zm0 2.78125l0 -0.671875l0.671875 0l0 0.671875l-0.671875 0zm3.636139 0l0 -4.765625l3.4375 0l0 0.5625l-2.8125 0l0 1.453125l2.640625 0l0 0.5625l-2.640625 0l0 1.625l2.921875 0l0 0.5625l-3.546875 0zm4.3302917 0l0 -4.765625l0.59375 0l0 4.765625l-0.59375 0zm1.2756805 -1.71875q0 -0.96875 0.53125 -1.421875q0.453125 -0.390625 1.09375 -0.390625q0.703125 0 1.15625 0.46875q0.453125 0.46875 0.453125 1.28125q0 0.671875 -0.203125 1.0625q-0.1875 0.375 -0.578125 0.59375q-0.375 0.203125 -0.828125 0.203125q-0.734375 0 -1.1875 -0.453125q-0.4375 -0.46875 -0.4375 -1.34375zm0.609375 0q0 0.65625 0.28125 0.984375q0.296875 0.328125 0.734375 0.328125q0.4375 0 0.71875 -0.328125q0.296875 -0.328125 0.296875 -1.015625q0 -0.640625 -0.296875 -0.96875q-0.296875 -0.328125 -0.71875 -0.328125q-0.4375 0 -0.734375 0.328125q-0.28125 0.328125 -0.28125 1.0zm3.092514 0q0 -0.96875 0.53125 -1.421875q0.453125 -0.390625 1.09375 -0.390625q0.703125 0 1.15625 0.46875q0.453125 0.46875 0.453125 1.28125q0 0.671875 -0.203125 1.0625q-0.1875 0.375 -0.578125 0.59375q-0.375 0.203125 -0.828125 0.203125q-0.734375 0 -1.1875 -0.453125q-0.4375 -0.46875 -0.4375 -1.34375zm0.609375 0q0 0.65625 0.28125 0.984375q0.296875 0.328125 0.734375 0.328125q0.4375 0 0.71875 -0.328125q0.296875 -0.328125 0.296875 -1.015625q0 -0.640625 -0.296875 -0.96875q-0.296875 -0.328125 -0.71875 -0.328125q-0.4375 0 -0.734375 0.328125q-0.28125 0.328125 -0.28125 1.0zm3.295639 1.71875l0 -4.765625l0.59375 0l0 4.765625l-0.59375 0zm1.4631805 1.328125l-0.0625 -0.546875q0.203125 0.046875 0.34375 0.046875q0.1875 0 0.296875 -0.0625q0.125 -0.0625 0.203125 -0.1875q0.046875 -0.078125 0.171875 -0.421875q0.015625 -0.0625 0.0625 -0.15625l-1.3125 -3.453125l0.625 0l0.71875 2.0q0.140625 0.375 0.25 0.796875q0.109375 -0.40625 0.25 -0.78125l0.734375 -2.015625l0.578125 0l-1.3125 3.515625q-0.203125 0.5625 -0.328125 0.78125q-0.15625 0.28125 -0.359375 0.421875q-0.203125 0.140625 -0.46875 0.140625q-0.171875 0 -0.390625 -0.078125z" fill-rule="nonzero"/><path fill="#ffcc99" d="m9.364829 0l6.2677164 0l0 96.0l-6.2677164 0z" fill-rule="evenodd"/></g></svg>