<svg width="100" height="100" viewBox="0 0 100 100" fill="none" xmlns="http://www.w3.org/2000/svg">
<g clip-path="url(#clip0_281_1281)">
<mask id="mask0_281_1281" style="mask-type:alpha" maskUnits="userSpaceOnUse" x="5" y="6" width="90" height="88">
<g opacity="0.9">
<path d="M94.9898 31.1893C95.6068 48.5681 68.1455 94 49.3178 94C30.4901 94 5 49.5219 5 32.1338C9.08138 -2.49855 48.6683 -1.86886 47.9448 30.8745C47.9448 -2.81326 93.8162 -1.86878 94.9898 31.1893Z" fill="black"/>
<path d="M94.9898 31.1893C95.6068 48.5681 68.1455 94 49.3178 94C30.4901 94 5 49.5219 5 32.1338C9.08138 -2.49855 48.6683 -1.86886 47.9448 30.8745C47.9448 -2.81326 93.8162 -1.86878 94.9898 31.1893Z" fill="black"/>
</g>
</mask>
<g mask="url(#mask0_281_1281)">
<rect width="100" height="100" fill="#800000"/>
<circle cx="50" cy="38" r="62.5" fill="url(#paint0_radial_281_1281)" fill-opacity="0.6"/>
</g>
</g>
<defs>
<radialGradient id="paint0_radial_281_1281" cx="0" cy="0" r="1" gradientUnits="userSpaceOnUse" gradientTransform="translate(50 38) rotate(90) scale(62.5)">
<stop stop-color="white"/>
<stop offset="1" stop-color="#CCCCCC" stop-opacity="0"/>
</radialGradient>
<clipPath id="clip0_281_1281">
<rect width="100" height="100" fill="white"/>
</clipPath>
</defs>
</svg>
