<svg width="60" height="30" viewBox="0 0 60 30" fill="none" xmlns="http://www.w3.org/2000/svg">
<path d="M60 0C60 3.93966 59.224 7.84074 57.7164 11.4805C56.2087 15.1203 53.999 18.4274 51.2132 21.2132C48.4274 23.999 45.1203 26.2087 41.4805 27.7164C37.8407 29.224 33.9397 30 30 30C26.0603 30 22.1593 29.224 18.5195 27.7164C14.8797 26.2087 11.5726 23.999 8.7868 21.2132C6.00104 18.4274 3.79125 15.1203 2.28361 11.4805C0.775972 7.84073 -3.44416e-07 3.93966 0 -1.90735e-06H5.66255C5.66255 3.19604 6.29206 6.36078 7.51513 9.31354C8.7382 12.2663 10.5309 14.9492 12.7908 17.2092C15.0508 19.4691 17.7337 21.2618 20.6865 22.4849C23.6392 23.7079 26.804 24.3374 30 24.3374C33.196 24.3375 36.3608 23.7079 39.3135 22.4849C42.2663 21.2618 44.9492 19.4691 47.2092 17.2092C49.4691 14.9492 51.2618 12.2663 52.4849 9.31354C53.7079 6.36078 54.3374 3.19604 54.3374 0H60Z" fill="#F08080"/>
</svg>
